<?xml version="1.0" encoding="utf-8"?>
<!-- Generator: Adobe Illustrator 22.1.0, SVG Export Plug-In . SVG Version: 6.00 Build 0)  -->
<svg version="1.1" id="svgwrapper_svg" xmlns="http://www.w3.org/2000/svg" xmlns:xlink="http://www.w3.org/1999/xlink" x="0px"
	 y="0px" width="830px" height="463px" viewBox="0 0 830 463" style="enable-background:new 0 0 830 463;" xml:space="preserve">
<style type="text/css">
	.st0{fill:none;stroke:#BABABA;stroke-miterlimit:10;stroke-dasharray:6,4;}
	.st1{enable-background:new    ;}
	.st2{fill:#444444;}
	.st3{fill-opacity:0;}
	.st4{fill:none;stroke:#888888;}
	.st5{fill:#888888;}
	.st6{fill:none;stroke:#FF0000;stroke-width:15;stroke-opacity:0;}
	.st7{opacity:0.6;fill:#BBBBBB;enable-background:new    ;}
	.st8{fill:#FFFFFF;stroke:#E5E5E5;}
	.st9{fill:#878787;}
</style>
<path class="st0" d="M133.4,121.2h223v102h-223V121.2"/>
<g transform="translate(10 10)">
	<g>
		<g class="st1">
			<path class="st2" d="M134.3,125.9h6c-0.3-0.7-0.6-1.3-1-1.8l1-0.4c0.4,0.6,0.7,1.3,1.1,2.1h5.2v1h-7.4l-0.1,2.5h5.8
				c0,2.8-0.1,4.5-0.3,5.3c-0.3,1.2-1,1.8-2.1,1.8c-0.3,0-0.8,0-1.6-0.1l-0.3-0.9c0.7,0,1.3,0,1.8,0c0.7,0,1.1-0.5,1.3-1.5
				c0.1-0.5,0.1-1.8,0.2-3.8H139c-0.2,1.1-0.5,2.1-1,3.1c-0.7,1.2-1.6,2.3-2.9,3.3l-0.7-0.7c1.5-1.3,2.5-2.4,3-3.5s0.7-2.3,0.8-3.6
				c0-0.9,0.1-1.6,0.1-2h-3.9L134.3,125.9C134.4,125.9,134.3,125.9,134.3,125.9z"/>
			<path class="st2" d="M148.5,129.6h5.9v1h-2.5v3.6c0.9-0.2,1.9-0.4,3-0.7v1c-2,0.5-4.1,0.9-6.5,1.2l-0.2-1
				c0.7-0.1,1.6-0.2,2.7-0.4v-3.8h-2.5L148.5,129.6L148.5,129.6z M148.3,126.3h6.8c0-0.7-0.1-1.5-0.1-2.5h1c0,1,0,1.8,0.1,2.5h4.3v1
				h-4.3c0.2,2.3,0.5,4.3,1.1,5.9c0.6,1.5,1.1,2.3,1.6,2.3c0.3,0,0.6-0.8,0.9-2.4l0.9,0.5c-0.4,2-1,3-1.7,3.1
				c-1.2-0.1-2.3-1.6-3.1-4.7c-0.3-1.3-0.5-2.9-0.6-4.6h-6.9V126.3z M158.2,123.9c0.4,0.5,0.9,1.1,1.3,1.8l-0.8,0.4
				c-0.4-0.7-0.8-1.3-1.3-1.9L158.2,123.9z"/>
			<path class="st2" d="M166.4,125.3v10h-1.1v-8.6c-0.6,0.6-1.4,1.1-2.4,1.4V127c0.4-0.1,0.9-0.3,1.4-0.6c0.5-0.3,0.9-0.6,1.2-1
				L166.4,125.3L166.4,125.3z"/>
		</g>
	</g>
</g>
<rect x="133.4" y="236.2" class="st3" width="223" height="102"/>
<path class="st0" d="M133.4,236.2h223v102h-223V236.2"/>
<g transform="translate(10 10)">
	<g>
		<g class="st1">
			<path class="st2" d="M134.3,240.9h6c-0.3-0.7-0.6-1.3-1-1.8l1-0.4c0.4,0.6,0.7,1.3,1.1,2.1h5.2v1h-7.4l-0.1,2.5h5.8
				c0,2.8-0.1,4.5-0.3,5.3c-0.3,1.2-1,1.8-2.1,1.8c-0.3,0-0.8,0-1.6-0.1l-0.3-0.9c0.7,0,1.3,0,1.8,0c0.7,0,1.1-0.5,1.3-1.5
				c0.1-0.5,0.1-1.8,0.2-3.8H139c-0.2,1.1-0.5,2.1-1,3.1c-0.7,1.2-1.6,2.3-2.9,3.3l-0.7-0.7c1.5-1.3,2.5-2.4,3-3.5s0.7-2.3,0.8-3.6
				c0-0.9,0.1-1.6,0.1-2h-3.9L134.3,240.9L134.3,240.9L134.3,240.9z"/>
			<path class="st2" d="M148.5,244.6h5.9v1h-2.5v3.6c0.9-0.2,1.9-0.4,3-0.7v1c-2,0.5-4.1,0.9-6.5,1.2l-0.2-1
				c0.7-0.1,1.6-0.2,2.7-0.4v-3.8h-2.5L148.5,244.6L148.5,244.6z M148.3,241.3h6.8c0-0.7-0.1-1.5-0.1-2.5h1c0,1,0,1.8,0.1,2.5h4.3v1
				h-4.3c0.2,2.3,0.5,4.3,1.1,5.9c0.6,1.5,1.1,2.3,1.6,2.3c0.3,0,0.6-0.8,0.9-2.4l0.9,0.5c-0.4,2-1,3-1.7,3.1
				c-1.2-0.1-2.3-1.6-3.1-4.7c-0.3-1.3-0.5-2.9-0.6-4.6h-6.9V241.3z M158.2,238.9c0.4,0.5,0.9,1.1,1.3,1.8l-0.8,0.4
				c-0.4-0.7-0.8-1.3-1.3-1.9L158.2,238.9z"/>
			<path class="st2" d="M168,240.9c0.6,0.5,0.9,1.2,0.9,2.1c0,0.9-0.3,1.6-1,2.4c-0.4,0.4-1.1,0.9-2.1,1.6c-1.3,0.8-2,1.6-2.2,2.3
				h5.3v1h-6.7c0-0.9,0.3-1.8,1-2.5c0.4-0.5,1.2-1.1,2.2-1.8c0.8-0.6,1.3-1,1.6-1.2c0.5-0.6,0.8-1.2,0.8-1.8s-0.2-1.1-0.5-1.4
				c-0.4-0.3-0.9-0.5-1.5-0.5c-0.7,0-1.2,0.2-1.6,0.7c-0.4,0.5-0.6,1.1-0.6,2h-1.1c0-1.1,0.3-2,0.9-2.7c0.6-0.7,1.4-1,2.4-1
				C166.7,240.1,167.4,240.3,168,240.9z"/>
		</g>
	</g>
</g>
<path class="st0" d="M133.4,351.2h223v102h-223V351.2"/>
<g transform="translate(10 10)">
	<g>
		<g class="st1">
			<path class="st2" d="M134.3,355.9h6c-0.3-0.7-0.6-1.3-1-1.8l1-0.4c0.4,0.6,0.7,1.3,1.1,2.1h5.2v1h-7.4l-0.1,2.5h5.8
				c0,2.8-0.1,4.5-0.3,5.3c-0.3,1.2-1,1.8-2.1,1.8c-0.3,0-0.8,0-1.6-0.1l-0.3-0.9c0.7,0,1.3,0,1.8,0c0.7,0,1.1-0.5,1.3-1.5
				c0.1-0.5,0.1-1.8,0.2-3.8H139c-0.2,1.1-0.5,2.1-1,3.1c-0.7,1.2-1.6,2.3-2.9,3.3l-0.7-0.7c1.5-1.3,2.5-2.4,3-3.5s0.7-2.3,0.8-3.6
				c0-0.9,0.1-1.6,0.1-2h-3.9L134.3,355.9L134.3,355.9z"/>
			<path class="st2" d="M148.5,359.6h5.9v1h-2.5v3.6c0.9-0.2,1.9-0.4,3-0.7v1c-2,0.5-4.1,0.9-6.5,1.2l-0.2-1
				c0.7-0.1,1.6-0.2,2.7-0.4v-3.8h-2.5L148.5,359.6L148.5,359.6z M148.3,356.3h6.8c0-0.7-0.1-1.5-0.1-2.5h1c0,1,0,1.8,0.1,2.5h4.3v1
				h-4.3c0.2,2.3,0.5,4.3,1.1,5.9c0.6,1.5,1.1,2.3,1.6,2.3c0.3,0,0.6-0.8,0.9-2.4l0.9,0.5c-0.4,2-1,3-1.7,3.1
				c-1.2-0.1-2.3-1.6-3.1-4.7c-0.3-1.3-0.5-2.9-0.6-4.6h-6.9V356.3z M158.2,353.9c0.4,0.5,0.9,1.1,1.3,1.8l-0.8,0.4
				c-0.4-0.7-0.8-1.3-1.3-1.9L158.2,353.9z"/>
			<path class="st2" d="M168,355.8c0.6,0.5,0.9,1.2,0.9,2c0,1.1-0.5,1.9-1.6,2.2c0.6,0.2,1,0.5,1.3,0.9s0.5,0.9,0.5,1.5
				c0,0.9-0.3,1.6-1,2.2c-0.6,0.6-1.5,0.9-2.5,0.9c-0.9,0-1.7-0.2-2.3-0.7c-0.7-0.6-1.1-1.4-1.2-2.6h1.2c0,0.8,0.3,1.4,0.8,1.8
				c0.4,0.3,1,0.5,1.6,0.5c0.7,0,1.3-0.2,1.7-0.6s0.6-0.9,0.6-1.5s-0.2-1.1-0.6-1.4s-0.9-0.5-1.6-0.5H165v-0.9h0.8
				c0.7,0,1.2-0.1,1.5-0.4c0.4-0.3,0.5-0.7,0.5-1.3c0-0.6-0.2-1-0.5-1.3c-0.4-0.3-0.9-0.5-1.5-0.5c-0.7,0-1.2,0.2-1.6,0.5
				c-0.4,0.4-0.6,0.9-0.7,1.6h-1.1c0.1-1,0.4-1.7,1.1-2.3c0.6-0.5,1.3-0.8,2.3-0.8C166.7,355.1,167.4,355.3,168,355.8z"/>
		</g>
	</g>
</g>
<g id="DashRectBlueGroup26" transform="translate(786.57 62)">
	<path class="st0" d="M-419.1,58.7h111v334h-111V58.7"/>
</g>
<rect x="484.3" y="120.2" class="st3" width="120" height="333"/>
<path class="st0" d="M484.3,120.2h120v333h-120V120.2"/>
<g id="DashRectBlueGroup34" transform="translate(1157.57 62)">
	<path class="st0" d="M-548.3,58.6h111v334h-111V58.6"/>
</g>
<g id="middlegroup" transform="translate(0)">
	<g id="Link18" transform="translate(0)">
		<path class="st4" d="M140.9,42.9h-20V286l0,0h11"/>
		<g transform="translate(0.5)">
			<polygon class="st5" points="126.9,290.5 132.9,286 126.9,281.5 			"/>
		</g>
		<path class="st6" d="M116.5,286h4.4"/>
		<path class="st6" d="M120.9,286h11"/>
	</g>
</g>
<g id="RectEndPoint1" transform="translate(141 98)">
	<rect x="2.4" y="61.2" class="st7" width="97" height="50"/>
	<rect x="0.4" y="59.2" class="st8" width="97" height="50"/>
	<g transform="translate(20 9)">
		<g class="st1">
			<path class="st2" d="M5.4,68.9c1.2,1.3,2.4,2.7,3.5,4.1l-0.7,0.7C7,72.1,5.9,70.8,5,69.9c-1.1,1.6-2.3,3-3.6,4.2l-0.6-0.8
				c1.4-1.3,2.6-2.7,3.7-4.4L5.4,68.9L5.4,68.9z M6.4,74.2h-3V80c0,0.3,0.2,0.5,0.5,0.5h2.7c0.5,0,0.8-0.1,0.9-0.3
				c0.1-0.3,0.2-0.8,0.3-1.6l1,0.3c-0.1,1.2-0.3,1.9-0.5,2.2c-0.2,0.2-0.7,0.3-1.3,0.3H3.7c-0.8,0-1.2-0.4-1.2-1.1v-7h5V77
				c0,0.8-0.4,1.1-1.2,1.2c-0.5,0-1,0-1.5,0l-0.3-1c0.5,0.1,1,0.1,1.4,0.1s0.6-0.2,0.6-0.6L6.4,74.2L6.4,74.2z M9.9,81.5l-0.2-1
				c0.8,0,1.5,0.1,2.1,0.1c0.3,0,0.5-0.2,0.5-0.6V68.9h1v11.5c0,0.8-0.4,1.2-1.1,1.2L9.9,81.5L9.9,81.5z M9.7,70h1v8.7h-1V70z"/>
			<path class="st2" d="M27.7,80.3l-0.2,1h-4.1c-2.5,0-4.3-0.4-5.4-1.1c-0.2-0.2-0.4-0.3-0.5-0.4c-0.4,0.6-1,1.2-1.7,1.7l-0.7-0.9
				c0.6-0.5,1.2-1,1.7-1.7c-0.6-0.8-1-1.8-1.3-3l0.8-0.3c0.3,1,0.6,1.8,1,2.4c0.5-1,0.8-2.2,0.8-3.5h-2.6v-0.8
				c0.8-1.1,1.6-2.2,2.2-3.4h-2.3v-1h3.4v0.8c-0.6,1.2-1.3,2.3-2.1,3.3h2.2V74c-0.1,1.8-0.4,3.4-1.1,4.7c0.2,0.2,0.5,0.4,0.7,0.6
				c0.9,0.5,2.4,0.8,4.3,0.8C24.3,80.4,25.9,80.4,27.7,80.3z M26.6,74.6h-3v1.1h3.3v0.8h-3.3v1.2h3.7v0.9h-3.7V80h-1v-1.4h-3.2v-0.9
				h3.2v-1.2h-2.7v-0.8h2.7v-1.1h-2.4v-0.8h2.4v-1.1h-3.1v-0.8h3.1v-1.1h-2.4V70h2.4v-1h1v1h3v1.9h0.9v0.8h-0.9V74.6z M23.6,70.6
				v1.1h2v-1.1H23.6z M23.6,72.6v1.1h2v-1.1H23.6z"/>
			<path class="st2" d="M31.5,73.5v1.2c0,2.7-0.6,5-1.9,6.9l-0.7-0.7c1.1-1.6,1.6-3.7,1.6-6.3v-4.9h4.7c-0.1-0.4-0.3-0.8-0.4-1.1
				l1.1-0.2c0.2,0.5,0.3,0.9,0.4,1.2h4.5v3.6h-9.3V73.5z M32.2,76.1v-1h4c-0.2-0.4-0.3-0.8-0.4-1.1l1.1-0.2c0.1,0.4,0.3,0.8,0.4,1.2
				h4.4v1h-6.3c0,0.5-0.1,0.9-0.2,1.3h5.3c-0.1,1.9-0.1,3-0.3,3.3c-0.1,0.3-0.4,0.5-0.7,0.6c-0.4,0.1-1.1,0.2-2.3,0.2h-0.3l-0.3-0.9
				c0.4,0,0.6,0,0.8,0c0.7,0,1.2,0,1.5-0.1c0.2-0.1,0.3-0.2,0.4-0.4c0-0.2,0.1-0.8,0.2-1.8H35c-0.6,1.4-1.6,2.5-3.1,3.3l-0.5-0.9
				c1.9-0.9,2.9-2.5,3-4.7h-2.2V76.1z M39.8,70.8h-8.3v1.8h8.3V70.8z"/>
			<path class="st2" d="M43.8,71.1h1v10.5h-1V71.1z M45.8,68.7c0.7,0.8,1.2,1.6,1.7,2.5l-0.9,0.5c-0.5-1-1.1-1.9-1.7-2.6L45.8,68.7z
				 M46.7,72.6H52v6.5h-5.3V72.6z M47.6,75.4H51v-1.9h-3.4V75.4z M51.1,78.2v-1.9h-3.4v1.9H51.1z M52.4,81.5l-0.3-0.9h1.2
				c0.4,0,0.6-0.3,0.6-0.9v-9.3h-5.4v-0.9h6.4V80c0,1-0.5,1.5-1.4,1.5H52.4z"/>
		</g>
	</g>
</g>
<g id="RectEndPoint5" transform="translate(249 98)">
	<rect x="2.4" y="61.2" class="st7" width="97.5" height="50"/>
	<rect x="0.4" y="59.2" class="st8" width="97.5" height="50"/>
	<g transform="translate(20 9)">
		<g class="st1">
			<path class="st2" d="M0.7,66.6h1.9v-2.7h1v2.7h1.7v1H3.6v0.8c0.6,0.6,1.2,1.5,2,2.5L5,71.8c-0.6-1-1-1.8-1.4-2.4v7.3h-1v-7
				c-0.4,1.3-1,2.6-1.8,3.7l-0.4-1.1c1-1.4,1.7-2.9,2.2-4.7H0.8L0.7,66.6L0.7,66.6z M7,70.3v4.9c0.8-0.2,1.6-0.5,2.5-0.9l0.2,0.9
				c-1,0.4-2.3,0.8-3.8,1.2l-0.2-0.9c0.2-0.1,0.4-0.2,0.4-0.4V64.4h6.1v6H9.6c0.2,0.9,0.5,1.7,0.9,2.3c0.7-0.4,1.3-0.9,2-1.6
				l0.6,0.7c-0.6,0.7-1.3,1.3-2.1,1.7c0.7,0.9,1.5,1.6,2.5,2.2l-0.6,0.9c-2.3-1.5-3.7-3.6-4.1-6.2L7,70.3L7,70.3z M11.2,66.9v-1.7
				H7.1v1.7H11.2z M7,67.8v1.6h4.1v-1.6H7z"/>
			<path class="st2" d="M15,76.5l-0.2-1c0.4,0,0.8,0.1,1.1,0.1c0.4,0,0.5-0.2,0.5-0.6v-3.4c-0.7,0.2-1.2,0.4-1.7,0.6l-0.3-1
				c0.6-0.1,1.3-0.3,1.9-0.6v-3.2h-1.7v-1h1.7v-2.6h1v2.6h1.3v1h-1.2v2.8c0.4-0.2,0.9-0.4,1.3-0.6v1c-0.3,0.1-0.7,0.4-1.3,0.6v4.1
				c0,0.8-0.4,1.2-1.2,1.2H15z M20.4,70.3c-0.2,2.4-0.7,4.5-1.6,6.3L18,75.9c1-1.8,1.5-4.2,1.5-7.2v-4.4h7.4v3.4h-2.6v1.7h3v0.9h-3
				V72h2.4v4.6h-0.9V76H22v0.7h-0.9v-4.6h2.3v-1.7L20.4,70.3L20.4,70.3z M23.2,67.8h-2.8v1.7h2.8V67.8z M25.9,65.3h-5.5v1.6h5.4
				L25.9,65.3L25.9,65.3z M21.8,75.1h3.8V73h-3.8V75.1z"/>
			<path class="st2" d="M31,68.5v1.2c0,2.7-0.6,5-1.9,6.9L28.4,76c1.1-1.6,1.6-3.7,1.6-6.3v-4.9h4.7c-0.1-0.4-0.3-0.8-0.4-1.1
				l1.1-0.2c0.2,0.5,0.3,0.9,0.4,1.2h4.5v3.6H31C31,68.3,31,68.5,31,68.5z M31.7,71.1v-1h4c-0.2-0.4-0.3-0.8-0.4-1.1l1.1-0.2
				c0.1,0.4,0.3,0.8,0.4,1.2h4.4v1H35c0,0.5-0.1,0.9-0.2,1.3h5.3c-0.1,1.9-0.1,3-0.3,3.3c-0.1,0.3-0.4,0.5-0.7,0.6
				c-0.4,0.1-1.1,0.2-2.3,0.2h-0.4l-0.3-0.9c0.4,0,0.6,0,0.8,0c0.7,0,1.2,0,1.5-0.1c0.2-0.1,0.3-0.2,0.4-0.4c0-0.2,0.1-0.8,0.2-1.8
				h-4.6c-0.6,1.4-1.6,2.5-3.1,3.3l-0.5-0.9c1.9-0.9,2.9-2.5,3-4.7h-2.1C31.7,70.9,31.7,71.1,31.7,71.1z M39.3,65.8H31v1.8h8.3V65.8
				z"/>
			<path class="st2" d="M43.3,66.1h1v10.5h-1V66.1z M45.3,63.7c0.7,0.8,1.2,1.6,1.7,2.5l-0.9,0.5c-0.5-1-1.1-1.9-1.7-2.6L45.3,63.7z
				 M46.2,67.6h5.3v6.5h-5.3V67.6z M47.1,70.4h3.4v-1.9h-3.4V70.4z M50.6,73.2v-1.9h-3.4v1.9H50.6z M51.9,76.5l-0.3-0.9h1.2
				c0.4,0,0.6-0.3,0.6-0.9v-9.3H48v-0.9h6.4V75c0,1-0.5,1.5-1.4,1.5H51.9z"/>
			<path class="st2" d="M-3.2,87.1h-3.2v-1H6.2v1h-8.4l-0.5,1.6h6.8c-0.1,2.2-0.3,3.6-0.6,4s-1,0.6-1.9,0.6c-0.7,0-1.3,0-1.9-0.1
				l-0.3-0.9c0.7,0.1,1.4,0.1,2,0.1c0.8,0,1.2-0.2,1.4-0.5s0.3-1.1,0.4-2.4h-7L-3.2,87.1z M-4.2,81.1H4v3.8h-8.2V81.1z M3,84v-2
				h-6.1v2H3z"/>
			<path class="st2" d="M9.9,80.7h1v2.4h2.9c0,4.6-0.1,7.4-0.2,8.5c-0.1,1.2-0.8,1.7-2.1,1.7l-1.1-0.1l-0.3-0.9c0.6,0,1,0.1,1.2,0.1
				c0.7,0,1.2-0.4,1.3-1.2c0.1-0.8,0.1-3.2,0.2-7.1h-1.9v0.3c0,4.2-1,7.3-2.7,9.2l-0.8-0.7c1.7-1.7,2.5-4.6,2.5-8.5v-0.3H7.7v-1h2.2
				V80.7z M19.6,82.4v10.9h-1v-0.9h-2.5v0.9h-1V82.4H19.6z M16.1,91.3h2.5v-8h-2.5V91.3z"/>
			<path class="st2" d="M25,81.1l0.8-0.5c1.2,0.9,2.3,2.4,3.2,4.7c1.3,3.4,3.1,5.7,5.3,7.1l-0.6,0.8c-2.3-1.4-4.1-3.9-5.6-7.6
				c-0.1-0.3-0.2-0.5-0.2-0.6c-0.9,3.6-2.9,6.3-5.8,8.2l-0.6-0.9c3-2,4.9-4.8,5.8-8.5C26.6,82.7,25.9,81.8,25,81.1z"/>
			<path class="st2" d="M38,85.3v1.2c0,2.7-0.6,5-1.9,6.9l-0.7-0.7c1.1-1.6,1.6-3.7,1.6-6.3v-4.9h4.7c-0.1-0.4-0.3-0.8-0.4-1.1
				l1.1-0.2c0.2,0.5,0.3,0.9,0.4,1.2h4.5V85H38V85.3z M38.7,87.9v-1h4c-0.2-0.4-0.3-0.8-0.4-1.1l1.1-0.2c0.1,0.4,0.3,0.8,0.4,1.2
				h4.4v1H42c0,0.5-0.1,0.9-0.2,1.3h5.3c-0.1,1.9-0.1,3-0.3,3.3c-0.1,0.3-0.4,0.5-0.7,0.6c-0.4,0.1-1.1,0.2-2.3,0.2h-0.4l-0.3-0.9
				c0.4,0,0.6,0,0.8,0c0.7,0,1.2,0,1.5-0.1c0.2-0.1,0.3-0.2,0.4-0.4c0-0.2,0.1-0.8,0.2-1.8h-4.6c-0.6,1.4-1.6,2.5-3.1,3.3l-0.5-0.9
				c1.9-0.9,2.9-2.5,3-4.7h-2.1C38.7,87.7,38.7,87.9,38.7,87.9z M46.3,82.6H38v1.8h8.3V82.6z"/>
			<path class="st2" d="M50.3,82.9h1v10.5h-1V82.9z M52.3,80.5c0.7,0.8,1.2,1.6,1.7,2.5l-0.9,0.5c-0.5-1-1.1-1.9-1.7-2.6L52.3,80.5z
				 M53.2,84.4h5.3v6.5h-5.3V84.4z M54.1,87.2h3.4v-1.9h-3.4V87.2z M57.6,90v-1.9h-3.4V90H57.6z M58.9,93.3l-0.3-0.9h1.2
				c0.4,0,0.6-0.3,0.6-0.9v-9.3H55v-0.9h6.4v10.5c0,1-0.5,1.5-1.4,1.5C60,93.3,58.9,93.3,58.9,93.3z"/>
		</g>
	</g>
</g>
<g id="RectEndPoint7" transform="translate(141 211)">
	<rect x="2.4" y="61.2" class="st7" width="98" height="50"/>
	<rect x="0.4" y="59.2" class="st8" width="98" height="50"/>
	<g transform="translate(20 9)">
		<g class="st1">
			<path class="st2" d="M3.2,76c-0.6,0.6-1.1,1.1-1.7,1.5l-0.6-0.8c1.7-1.4,3.1-3.1,4.1-5H1.4v-1h4.1c0.3-0.7,0.6-1.4,0.7-2l1,0.1
				c-0.2,0.7-0.4,1.4-0.7,1.9h7v1H6c-0.5,1.1-1.2,2.1-2,3.1v6.9H3V76H3.2z M5.4,75.3h3.2v-2.6h1v2.6h3.3v1H9.6v3.9h4v1H4.8v-1h3.8
				v-3.9H5.4V75.3z"/>
			<path class="st2" d="M18.4,69.1c-0.7,1.8-1.4,3.3-2.2,4.4c0.5,0,1.2-0.1,1.9-0.2l0.8-1.6l0.9,0.3c-1.2,2.3-2.2,4-3.1,5
				c1-0.2,2-0.5,3-0.8v0.9c-1.5,0.5-2.9,0.8-4.2,1l-0.3-0.9c0.2-0.1,0.3-0.2,0.5-0.3c0.5-0.5,1.1-1.5,1.9-2.8
				c-0.5,0.1-1.3,0.2-2.3,0.3l-0.2-0.9c0.1-0.1,0.3-0.2,0.4-0.4c0.8-1.3,1.4-2.8,2-4.4L18.4,69.1z M20,79.8c-1.4,0.5-3,1-4.7,1.3
				l-0.1-1c1.8-0.3,3.4-0.7,4.8-1.3V79.8z M26.8,71.3l0.1,0.9l-3.6,0.5c0,0.7,0.1,1.3,0.1,1.9l3.7-0.6l0.2,1l-3.8,0.6
				c0,0.2,0.1,0.5,0.1,0.7c0.1,0.7,0.3,1.3,0.5,1.9c0.8-0.7,1.4-1.5,2-2.4l0.8,0.5c-0.8,1.1-1.6,2-2.4,2.8l0.2,0.3
				c0.5,0.7,0.9,1,1.2,1c0.4,0,0.7-0.8,0.9-2.3l0.9,0.6c-0.4,1.9-1,2.8-1.7,2.8s-1.3-0.5-1.9-1.3c-0.1-0.2-0.2-0.4-0.3-0.5
				c-1,0.8-2.2,1.3-3.3,1.7l-0.6-0.8c1.3-0.4,2.5-1,3.5-1.8c-0.3-0.6-0.5-1.3-0.6-2c-0.1-0.3-0.1-0.6-0.2-1.1l-2.5,0.4l-0.1-1
				l2.5-0.4c-0.1-0.6-0.1-1.2-0.1-1.9l-2,0.3l-0.2-0.9l2.1-0.3v-3.1h1v3L26.8,71.3z M24.8,68.8c0.7,0.7,1.3,1.3,1.7,1.7L25.7,71
				c-0.4-0.5-0.9-1.1-1.7-1.8L24.8,68.8z"/>
			<path class="st2" d="M31,70.6v9.6h10.6v1H30V69.6h11.3v1H38v5.7c0,0.4,0.2,0.6,0.6,0.6h1.2c0.3,0,0.4-0.1,0.5-0.3
				c0.1-0.2,0.2-0.9,0.3-1.9l1,0.3c-0.1,1.3-0.3,2.2-0.5,2.5s-0.6,0.4-1.1,0.4h-1.7c-0.8,0-1.2-0.4-1.2-1.3v-5.9h-2
				c-0.1,3.7-1,6.3-2.7,7.7l-0.8-0.7c1.6-1.2,2.5-3.6,2.6-7.1C34.2,70.6,31,70.6,31,70.6z"/>
			<path class="st2" d="M43.1,69.4h6.4v1h-1.8V72h1.6v9.6h-0.9v-0.8h-4v0.8h-0.9V72H45v-1.6h-1.9V69.4z M45.2,72.9h-0.8v4.7h4v-1.2
				h-0.7c-0.6,0-0.9-0.3-0.9-1v-2.5h-0.9v0.9c0,1.5-0.3,2.6-0.9,3.3l-0.5-0.5c0.5-0.6,0.8-1.5,0.8-2.8L45.2,72.9L45.2,72.9z
				 M44.4,79.9h4v-1.4h-4V79.9z M45.9,72h0.9v-1.6h-0.9V72z M48.3,75.6v-2.7h-0.9v2.3c0,0.2,0.1,0.4,0.3,0.4
				C47.7,75.6,48.3,75.6,48.3,75.6z M55.8,77.9c-0.1,1.5-0.3,2.4-0.5,2.8s-0.7,0.6-1.3,0.6h-2.8c-0.7,0-1-0.4-1-1.3v-5.9H54v-3.7
				h-4.1v-1h5v5.7h-3.8v4.6c0,0.5,0.1,0.7,0.4,0.7h2.2c0.4,0,0.6-0.2,0.8-0.6c0.1-0.4,0.2-1.1,0.2-2.3L55.8,77.9z"/>
		</g>
	</g>
</g>
<g id="RectEndPoint10" transform="translate(141 326)">
	<rect x="2.4" y="61.2" class="st7" width="100" height="50"/>
	<rect x="0.4" y="59.2" class="st8" width="100" height="50"/>
	<g transform="translate(20 9)">
		<g class="st1">
			<path class="st2" d="M2.8,63.6c0,1.4-0.2,2.7-0.5,4l-0.8-0.2C1.8,66.2,2,64.9,2,63.6H2.8z M3.5,60.9h1v12.7h-1V60.9z M5.5,63.2
				c0.4,0.9,0.7,1.9,1,3.1l-0.8,0.2c-0.3-1.1-0.6-2.1-1-3.1L5.5,63.2z M6.5,63H9v-2.1h1V63h3v4.2h1.1v1h-3.8
				c0.9,1.9,2.3,3.5,4.1,4.6l-0.7,0.8c-1.9-1.3-3.3-3-4.2-5c-0.6,2.2-1.9,3.9-3.8,4.9l-0.6-0.8c1.8-1,3-2.5,3.5-4.6H5.7v-1h3.1
				c0.1-0.7,0.2-1.4,0.2-2v-1.2H6.5C6.5,63.9,6.5,63,6.5,63z M10,63.9v1c0,0.8-0.1,1.5-0.2,2.3H12v-3.3C12,63.9,10,63.9,10,63.9z"/>
			<path class="st2" d="M24.8,73.4c-0.5,0-1.3,0-2.5,0c-0.9,0-1.6-0.1-2.2-0.3c-0.5-0.2-1-0.5-1.5-1c-0.2-0.2-0.4-0.3-0.5-0.3
				c-0.3,0-0.9,0.6-1.6,1.9L15.7,73c0.7-1.2,1.4-1.9,1.9-2.1v-4.3h-2v-0.9h2.9v5.2c0.1,0.1,0.2,0.2,0.4,0.3c0.3,0.4,0.7,0.7,1.1,0.9
				c0.4,0.2,1.1,0.3,1.9,0.3c1,0,1.9,0,2.8,0c0.4,0,1.1,0,2,0c0.8,0,1.3,0,1.6-0.1l-0.2,1L24.8,73.4L24.8,73.4z M16.7,61
				c1,0.7,1.8,1.5,2.4,2.2l-0.7,0.7c-0.6-0.7-1.4-1.5-2.4-2.2L16.7,61z M19.9,62h3.6v-1.1h0.9V62h3.5v0.9h-3.5V64h3v3.6h-3v4.3h-1
				V68c-0.7,1.3-1.8,2.3-3.3,3.2l-0.6-0.8c1.5-0.8,2.7-1.7,3.3-2.8h-2.4V64h3v-1.2h-3.6L19.9,62L19.9,62z M23.4,66.7v-1.8h-2.1v1.8
				H23.4z M26.5,66.7v-1.8h-2.1v1.8H26.5z M25.5,68.1c1,0.8,1.8,1.5,2.5,2.4l-0.7,0.7c-0.6-0.7-1.4-1.5-2.4-2.4L25.5,68.1z"/>
			<path class="st2" d="M31.9,60.9h1v2.4h2.9c0,4.6-0.1,7.4-0.2,8.5c-0.1,1.2-0.8,1.7-2.1,1.7l-1.1-0.1l-0.3-0.9
				c0.6,0,1,0.1,1.2,0.1c0.7,0,1.2-0.4,1.3-1.2c0.1-0.8,0.1-3.2,0.2-7.1h-1.9v0.3c0,4.2-1,7.3-2.7,9.2L29.4,73
				c1.7-1.7,2.5-4.6,2.5-8.5v-0.3h-2.2v-1h2.2V60.9z M41.6,62.6v10.9h-1v-0.9h-2.5v0.9h-1V62.6H41.6z M38.1,71.5h2.5v-8h-2.5V71.5z"
				/>
			<path class="st2" d="M46,65.5v1.2c0,2.7-0.6,5-1.9,6.9L43.4,73c1.1-1.6,1.6-3.7,1.6-6.3v-4.9h4.7c-0.1-0.4-0.3-0.8-0.4-1.1
				l1.1-0.2c0.2,0.5,0.3,0.9,0.4,1.2h4.5v3.6H46V65.5z M46.7,68.1v-1h4c-0.2-0.4-0.3-0.8-0.4-1.1l1.1-0.2c0.1,0.4,0.3,0.8,0.4,1.2
				h4.4v1H50c0,0.5-0.1,0.9-0.2,1.3h5.3c-0.1,1.9-0.1,3-0.3,3.3c-0.1,0.3-0.4,0.5-0.7,0.6c-0.4,0.1-1.1,0.2-2.3,0.2h-0.4l-0.3-0.9
				c0.4,0,0.6,0,0.8,0c0.7,0,1.2,0,1.5-0.1c0.2-0.1,0.3-0.2,0.4-0.4c0-0.2,0.1-0.8,0.2-1.8h-4.6c-0.6,1.4-1.6,2.5-3.1,3.3l-0.5-0.9
				c1.9-0.9,2.9-2.5,3-4.7h-2.1C46.7,67.9,46.7,68.1,46.7,68.1z M54.3,62.8H46v1.8h8.3V62.8z"/>
			<path class="st2" d="M-0.2,77.5c-0.6,0.9-1,1.9-1.3,2.9c-0.4,1.2-0.6,2.4-0.6,3.6s0.2,2.4,0.6,3.6c0.3,1,0.8,1.9,1.3,2.9h-1
				c-0.6-0.9-1.1-1.8-1.4-2.9C-3,86.4-3.2,85.2-3.2,84c0-1.3,0.2-2.5,0.6-3.7c0.4-1,0.8-2,1.4-2.9L-0.2,77.5L-0.2,77.5z"/>
			<path class="st2" d="M4,82.3v1.2c0,2.7-0.6,5-1.9,6.9l-0.7-0.7C2.5,88.1,3,86,3,83.4v-4.9h4.7c-0.1-0.4-0.3-0.8-0.4-1.1l1.1-0.2
				c0.2,0.5,0.3,0.9,0.4,1.2h4.5V82H4V82.3z M4.7,84.9v-1h4c-0.2-0.4-0.3-0.8-0.4-1.1l1.1-0.2c0.1,0.4,0.3,0.8,0.4,1.2h4.4v1H8
				c0,0.5-0.1,0.9-0.2,1.3h5.3c-0.1,1.9-0.1,3-0.3,3.3c-0.1,0.3-0.4,0.5-0.7,0.6c-0.4,0.1-1.1,0.2-2.3,0.2H9.5l-0.3-0.9
				c0.4,0,0.6,0,0.8,0c0.7,0,1.2,0,1.5-0.1c0.2-0.1,0.3-0.2,0.4-0.4c0-0.2,0.1-0.8,0.2-1.8H7.6C7,88.4,6,89.5,4.5,90.3L4,89.4
				c1.9-0.9,2.9-2.5,3-4.7H4.7V84.9z M12.3,79.6H4v1.8h8.3V79.6z"/>
			<path class="st2" d="M16.3,79.9h1v10.5h-1V79.9z M18.3,77.5c0.7,0.8,1.2,1.6,1.7,2.5l-0.9,0.5c-0.5-1-1.1-1.9-1.7-2.6L18.3,77.5z
				 M19.2,81.4h5.3v6.5h-5.3V81.4z M20.1,84.2h3.4v-1.9h-3.4V84.2z M23.6,87v-1.9h-3.4V87H23.6z M24.9,90.3l-0.3-0.9h1.2
				c0.4,0,0.6-0.3,0.6-0.9v-9.3H21v-0.9h6.4v10.5c0,1-0.5,1.5-1.4,1.5C26,90.3,24.9,90.3,24.9,90.3z"/>
			<path class="st2" d="M31.5,79.4V89h10.6v1H30.4V78.4h11.3v1h-3.3v5.7c0,0.4,0.2,0.6,0.6,0.6h1.2c0.3,0,0.4-0.1,0.5-0.3
				c0.1-0.2,0.2-0.9,0.3-1.9l1,0.3c-0.1,1.3-0.3,2.2-0.5,2.5s-0.6,0.4-1.1,0.4h-1.7c-0.8,0-1.2-0.4-1.2-1.3v-5.9h-2
				c-0.1,3.7-1,6.3-2.7,7.7L32,86.5c1.6-1.2,2.5-3.6,2.6-7.1H31.5z"/>
			<path class="st2" d="M43.6,78.2H50v1h-1.8v1.6h1.6v9.6h-0.9v-0.8h-4v0.8H44v-9.6h1.5v-1.6h-1.9V78.2z M45.7,81.7h-0.8v4.7h4v-1.2
				h-0.7c-0.6,0-0.9-0.3-0.9-1v-2.5h-0.9v0.9c0,1.5-0.3,2.6-0.9,3.3L45,85.4c0.5-0.6,0.8-1.5,0.8-2.8L45.7,81.7L45.7,81.7z
				 M44.9,88.7h4v-1.4h-4V88.7z M46.4,80.8h0.9v-1.6h-0.9V80.8z M48.8,84.4v-2.7h-0.9V84c0,0.2,0.1,0.4,0.3,0.4H48.8z M56.3,86.7
				c-0.1,1.5-0.3,2.4-0.5,2.8s-0.7,0.6-1.3,0.6h-2.8c-0.7,0-1-0.4-1-1.3v-5.9h3.8v-3.7h-4.1v-1h5v5.7h-3.8v4.6
				c0,0.5,0.1,0.7,0.4,0.7h2.2c0.4,0,0.6-0.2,0.8-0.6c0.1-0.4,0.2-1.1,0.2-2.3L56.3,86.7z"/>
			<path class="st2" d="M59,77.5c0.6,0.9,1.1,1.8,1.4,2.9c0.4,1.2,0.6,2.4,0.6,3.7c0,1.2-0.2,2.4-0.6,3.6c-0.4,1-0.9,2-1.4,2.9h-1
				c0.5-0.9,1-1.9,1.3-2.9c0.4-1.3,0.6-2.5,0.6-3.6s-0.2-2.4-0.6-3.6c-0.3-1-0.8-2-1.3-2.9L59,77.5L59,77.5z"/>
		</g>
	</g>
</g>
<g id="RectEndPoint17" transform="translate(5 202.5)">
	<rect x="130.4" y="-192.8" class="st7" width="101" height="51"/>
	<rect x="128.4" y="-194.8" class="st8" width="101" height="51"/>
	<g transform="translate(20 9)">
		<g>
			<g>
				<path class="st9" d="M140.4-189.6c2.2,0,4,1.8,4,4s-1.8,4-4,4s-4-1.8-4-4S138.2-189.6,140.4-189.6 M140.4-191.6
					c-3.3,0-6,2.7-6,6s2.7,6,6,6s6-2.7,6-6S143.7-191.6,140.4-191.6z"/>
				<path class="st9" d="M144.4-175.6c3.3,0,6,2.7,6,6v1h-20v-1c0-3.3,2.7-6,6-6H144.4 M144.4-177.6h-8c-4.4,0-8,3.6-8,8v3h24v-3
					C152.4-174,148.8-177.6,144.4-177.6z"/>
				<path class="st9" d="M153.4-177.6h-3c0.8,0.6,1.4,1.2,2,2h1c2.2,0,4,1.8,4,4v1h-3c0,0.3,0,0.7,0,1v1h5v-3
					C159.4-174.9,156.7-177.6,153.4-177.6z"/>
				<path class="st9" d="M149.4-190.6c-0.8,0-1.6,0.2-2.3,0.6c0.4,0.6,0.7,1.2,0.9,1.8c1.4-0.8,3.3-0.3,4.1,1.1
					c0.8,1.4,0.3,3.3-1.1,4.1c-0.9,0.5-2,0.5-3,0c-0.2,0.6-0.5,1.2-0.9,1.8c0.7,0.4,1.5,0.6,2.3,0.6c2.8,0,5-2.2,5-5
					C154.4-188.4,152.2-190.6,149.4-190.6z"/>
			</g>
		</g>
		<g class="st1">
			<path class="st2" d="M172.9-183.2h-1.8v-0.9h4.5v0.9h-1.8v3.2h1.6v0.9h-1.5v3.2c0.5-0.2,1.1-0.4,1.8-0.7v1
				c-1.3,0.6-2.8,1.2-4.4,1.7l-0.3-1c0.8-0.2,1.4-0.4,1.9-0.6v-3.5h-1.6v-0.9h1.6V-183.2z M177.7-179.4h-1.8v-1h7.5v1h-2v5.3
				c0,0.4,0.2,0.6,0.5,0.6h0.4c0.2,0,0.3-0.1,0.4-0.2c0.1-0.1,0.2-0.8,0.3-2l0.9,0.3c-0.1,1.4-0.2,2.2-0.4,2.4s-0.5,0.4-1,0.4h-0.9
				c-0.4,0-0.7-0.1-0.9-0.4c-0.2-0.2-0.3-0.6-0.3-0.9v-5.6h-1.7v1c0,2.7-1.3,4.8-3.6,6l-0.8-0.7c2.2-1.1,3.4-2.9,3.4-5.4
				L177.7-179.4L177.7-179.4z M176.4-184.4h6.6v1h-6.6V-184.4z"/>
			<path class="st2" d="M192.7-177.6c0.2,0.7,0.4,1.4,0.4,2.2c0,1.1-0.1,1.9-0.4,2.3c-0.3,0.5-1.1,0.7-2.3,0.7h-0.5l-0.3-0.9h0.7
				c0.8,0,1.3-0.1,1.6-0.4c0.3-0.3,0.4-0.9,0.4-1.8c0-0.3,0-0.5-0.1-0.7c-1.6,1.2-3.6,2.2-6.1,3l-0.7-0.8c2.8-0.8,5-1.9,6.5-3.1
				c-0.1-0.4-0.3-0.8-0.4-1c-1.3,1-3.1,1.9-5.4,2.5l-0.5-0.9c2.4-0.6,4.2-1.4,5.4-2.4c-0.1-0.2-0.3-0.5-0.6-0.7l-0.3,0.2
				c-1,0.4-2.2,0.9-3.8,1.3l-0.5-0.8c1.4-0.3,2.6-0.7,3.6-1.1c0.6-0.3,1.1-0.5,1.4-0.7h-3.7v-0.9h8.4v0.9h-3.1
				c-0.5,0.3-0.9,0.6-1.1,0.7c0.5,0.5,0.9,1.1,1.2,1.6c1.3-0.4,2.5-0.9,3.7-1.7l0.7,0.7c-0.8,0.5-1.6,0.9-2.4,1.2
				c0.7,1.8,1.7,3.2,3.2,4.2l-0.7,0.8c-1.5-1.3-2.6-2.8-3.3-4.7L192.7-177.6z M191.6-185.3c0.1,0.3,0.3,0.8,0.5,1.3h5.3v2.4h-1v-1.5
				h-9.8v1.5h-1v-2.4h5.5c-0.1-0.4-0.3-0.8-0.5-1.1L191.6-185.3z"/>
		</g>
	</g>
</g>
<g id="RectEndPoint27" transform="translate(844.07 98)">
	<rect x="-469.3" y="60.7" class="st7" width="97" height="50"/>
	<rect x="-471.3" y="58.7" class="st8" width="97" height="50"/>
	<g transform="translate(20 9)">
		<g class="st1">
			<path class="st2" d="M-473.4,78.7v2.4h-0.9v-9.7h-1v7.5h-0.9v-8.3h1.9v-2.2h0.9v2.2h1.9v6.9c0,0.8-0.4,1.3-1.1,1.3h-0.8V78.7z
				 M-473.4,71.4v6.4h0.5c0.3,0,0.5-0.2,0.5-0.6v-5.8H-473.4z M-468.2,73.5h1v2c0,1.6-0.4,2.8-0.9,3.7c-0.6,0.9-1.5,1.5-2.8,2
				l-0.5-0.9c1.2-0.4,2.1-1.1,2.6-1.8c0.5-0.8,0.7-1.8,0.7-3.1v-1.9C-468.1,73.5-468.2,73.5-468.2,73.5z M-464.7,71.7V78h-1v-5.4
				h-3.9v5.5h-1v-6.4h2.1v-3.4h1v1.1h3.3v0.9h-3.3v1.4H-464.7z M-467,78.3c1.1,0.6,2.2,1.3,3.1,2.1l-0.5,0.8c-1-0.9-2-1.6-3.1-2.2
				L-467,78.3z"/>
			<path class="st2" d="M-453.8,81.1l-0.3-1h1.8c0.4,0,0.5-0.2,0.5-0.6v-9.7h-9.2v11.3h-1V68.9h11.2v10.9c0,0.9-0.4,1.4-1.2,1.4
				h-1.8V81.1z M-459.9,71.4h7.2v0.9h-7.2V71.4z M-459.1,73.9h5.6v4.5h-5.6V73.9z M-454.5,77.5v-2.7h-3.7v2.7H-454.5z"/>
			<path class="st2" d="M-442.8,68.3h1V70h4.2v1h-4.2v1.9h5.6v1h-5.6v4.2h-1v-4.2h-5.9v-1h2.1v-3.5h1v3.5h2.6v-4.6H-442.8z
				 M-444.5,75.1c-0.8,1.3-1.9,2.5-3.1,3.4l-0.6-0.8c1.2-0.9,2.2-2,3-3.2L-444.5,75.1z M-437.3,75.4c-1.8,3.9-5.1,5.8-10.1,5.8
				l-0.4-1c4.8,0,8-1.8,9.6-5.4L-437.3,75.4z"/>
			<path class="st2" d="M-433.8,69.2h10.9v1h-2.3v3.7h3.1v1h-3.1V81h-1v-6.2h-4c-0.1,1.4-0.4,2.6-0.8,3.6c-0.5,1.2-1.4,2.1-2.6,2.7
				l-0.5-0.9c1.1-0.6,1.9-1.5,2.4-2.6c0.3-0.8,0.5-1.8,0.6-2.9h-3.2v-1h3.3v-0.5V70h-2.5v-0.8H-433.8z M-430.2,70.1v3.5v0.2h4v-3.7
				H-430.2z"/>
			<path class="st2" d="M-418,68.3c-0.1,1-0.2,1.8-0.4,2.6h2.1v0.6c-0.1,2.3-0.5,4.2-1.2,5.9c0.7,0.7,1.2,1.3,1.6,1.9l-0.7,0.8
				c-0.4-0.6-0.9-1.1-1.4-1.7c-0.6,1.1-1.3,2-2.1,2.8l-0.6-0.8c0.8-0.8,1.5-1.7,2-2.7c-0.5-0.5-1.1-1.1-1.8-1.8
				c0.3-1.2,0.6-2.5,0.9-3.9h-1.1v-1h1.3c0.1-0.9,0.3-1.8,0.4-2.7L-418,68.3z M-417.3,72h-1.3c-0.3,1.5-0.5,2.7-0.8,3.7
				c0.4,0.4,0.8,0.7,1.1,1.1C-417.7,75.3-417.4,73.7-417.3,72z M-415.9,73c0.8-0.4,1.8-2,3-4.7l1,0.3c-0.8,1.8-1.7,3.2-2.5,4.4
				c1.6-0.1,3.1-0.3,4.5-0.5c-0.4-0.8-0.8-1.5-1.2-2.1l0.9-0.4c0.8,1.3,1.5,2.6,2.2,4l-0.9,0.4c-0.3-0.6-0.4-1-0.5-1.1
				c-1.9,0.3-4,0.5-6.2,0.6L-415.9,73z M-408.9,75.2v6h-1v-0.8h-4.3v0.8h-1v-6H-408.9z M-414.2,79.4h4.3v-3.2h-4.3V79.4z"/>
		</g>
	</g>
</g>
<g id="RectEndPoint28" transform="translate(793 153)">
	<rect x="-417.1" y="72.1" class="st7" width="97" height="50"/>
	<rect x="-419.1" y="70.1" class="st8" width="97" height="50"/>
	<g transform="translate(20 9)">
		<g class="st1">
			<path class="st2" d="M-426.4,71.6c-0.3,1.1-0.7,2-1.2,3v9.5h-1v-7.8c-0.4,0.6-0.8,1.2-1.3,1.7l-0.3-1.1c1.3-1.7,2.3-3.6,2.9-5.8
				L-426.4,71.6z M-417.7,77.5v2.4h-0.8v0.6h-3v2.3c0,0.8-0.4,1.1-1.2,1.1h-1.6l-0.2-1c0.7,0,1.2,0.1,1.4,0.1c0.4,0,0.5-0.2,0.5-0.5
				v-2h-3.1v-0.6h-0.9v-2.4H-417.7z M-422.2,71.1c0.1,0.2,0.2,0.6,0.4,1.2h4v0.9h-8.7v-0.9h3.7c-0.1-0.4-0.3-0.7-0.4-1L-422.2,71.1z
				 M-425.6,79.7h6.9v-1.3h-6.9V79.7z M-425.5,74.1h6.7v2.6h-6.7V74.1z M-419.8,75.9v-1.1h-4.7v1.1H-419.8z"/>
			<path class="st2" d="M-409.7,71.3h1v4.5h4.3v1h-4.3v5.7h5.1v1H-416v-1h2.4v-8.7h1v8.7h2.9V71.3z"/>
			<path class="st2" d="M-399.6,75.9v1.2c0,2.7-0.6,5-1.9,6.9l-0.7-0.7c1.1-1.6,1.6-3.7,1.6-6.3v-4.9h4.7c-0.1-0.4-0.3-0.8-0.4-1.1
				l1.1-0.2c0.2,0.5,0.3,0.9,0.4,1.2h4.5v3.6h-9.3L-399.6,75.9L-399.6,75.9z M-399,78.5v-1h4c-0.2-0.4-0.3-0.8-0.4-1.1l1.1-0.2
				c0.1,0.4,0.3,0.8,0.4,1.2h4.4v1h-6.2c0,0.5-0.1,0.9-0.2,1.3h5.3c-0.1,1.9-0.1,3-0.3,3.3c-0.1,0.3-0.4,0.5-0.7,0.6
				c-0.4,0.1-1.1,0.2-2.3,0.2h-0.3l-0.3-0.9c0.4,0,0.6,0,0.8,0c0.7,0,1.2,0,1.5-0.1c0.2-0.1,0.3-0.2,0.4-0.4c0-0.2,0.1-0.8,0.2-1.8
				h-4.5c-0.6,1.4-1.6,2.5-3.1,3.3l-0.5-0.9c1.9-0.9,2.9-2.5,3-4.7h-2.3V78.5z M-391.4,73.2h-8.3V75h8.3V73.2z"/>
			<path class="st2" d="M-387.4,73.5h1V84h-1V73.5z M-385.3,71.1c0.7,0.8,1.2,1.6,1.7,2.5l-0.9,0.5c-0.5-1-1.1-1.9-1.7-2.6
				L-385.3,71.1z M-384.5,75h5.3v6.5h-5.3V75z M-383.5,77.8h3.4v-1.9h-3.4V77.8z M-380.1,80.6v-1.9h-3.4v1.9H-380.1z M-378.8,83.9
				l-0.3-0.9h1.2c0.4,0,0.6-0.3,0.6-0.9v-9.3h-5.4v-0.9h6.4v10.5c0,1-0.5,1.5-1.4,1.5C-377.7,83.9-378.8,83.9-378.8,83.9z"/>
			<path class="st2" d="M-371.7,71.3h1v2.4h2.9c0,4.6-0.1,7.4-0.2,8.5c-0.1,1.2-0.8,1.7-2.1,1.7l-1.1-0.1l-0.3-0.9
				c0.6,0,1,0.1,1.2,0.1c0.7,0,1.2-0.4,1.3-1.2c0.1-0.8,0.1-3.2,0.2-7.1h-1.9V75c0,4.2-1,7.3-2.7,9.2l-0.8-0.7
				c1.7-1.7,2.5-4.6,2.5-8.5v-0.3h-2.2v-1h2.2V71.3z M-362.1,73v10.9h-1V83h-2.5v0.9h-1V73H-362.1z M-365.6,81.9h2.5v-8h-2.5V81.9z"
				/>
			<path class="st2" d="M-356.7,71.7l0.8-0.5c1.2,0.9,2.3,2.4,3.2,4.7c1.3,3.4,3.1,5.7,5.3,7.1l-0.6,0.8c-2.3-1.4-4.1-3.9-5.6-7.6
				c-0.1-0.3-0.2-0.5-0.2-0.6c-0.9,3.6-2.9,6.3-5.8,8.2l-0.6-0.9c3-2,4.9-4.8,5.8-8.5C-355,73.3-355.8,72.4-356.7,71.7z"/>
			<path class="st2" d="M-420.3,88c0.7,0.5,1.2,1,1.7,1.5l-0.6,0.6h1.7v1h-4.3c0.1,1.7,0.3,3.1,0.5,4.1c0.1,0.3,0.2,0.6,0.3,1
				c0.7-1.1,1.3-2.4,1.7-3.9l0.9,0.4c-0.6,1.9-1.3,3.4-2.2,4.7c0.2,0.5,0.4,0.8,0.6,1.2c0.5,0.7,0.8,1,1.1,1c0.3,0,0.5-0.7,0.7-2.2
				l0.9,0.5c-0.3,1.9-0.8,2.8-1.4,2.8s-1.2-0.4-1.9-1.3c-0.3-0.3-0.5-0.7-0.7-1.2c-1,1.1-2.1,2-3.4,2.6l-0.6-0.8
				c1.4-0.6,2.6-1.6,3.6-2.8c-0.2-0.6-0.4-1.1-0.5-1.7c-0.3-1.1-0.5-2.6-0.6-4.4h-4.8v2.3h3.4c0,2.4-0.1,3.9-0.3,4.6
				c-0.2,0.6-0.6,0.9-1.3,0.9c-0.2,0-0.6,0-1.2-0.1l-0.3-0.9c0.5,0,1,0,1.4,0c0.3,0,0.5-0.2,0.6-0.6s0.1-1.4,0.2-3h-2.4v0.4
				c-0.1,2.5-0.6,4.5-1.7,6l-0.8-0.7c0.9-1.3,1.4-3.1,1.4-5.3V90h5.8c0-0.7,0-1.4,0-2.2h1c0,0.8,0,1.5,0,2.2h2.6
				c-0.4-0.5-1-1-1.7-1.6L-420.3,88z"/>
			<path class="st2" d="M-409.1,95c-0.2,2.1-0.6,3.4-1.3,4.2c-0.7,0.9-2.4,1.4-5,1.7l-0.4-0.9c2.3-0.1,3.8-0.6,4.5-1.4
				c0.7-0.7,1-1.9,1.1-3.7L-409.1,95z M-405.2,93.1v5.1h-1V94h-6.9v4.4h-1v-5.3H-405.2z M-413.5,88.5h7.4V92h-7.4V88.5z M-407,91.1
				v-1.7h-5.4V91L-407,91.1L-407,91.1z M-408.7,98.2c1.7,0.5,3.4,1.2,4.9,2l-0.5,0.8c-1.6-0.9-3.2-1.5-4.9-2L-408.7,98.2z"/>
			<path class="st2" d="M-389.9,87.9c-0.6,0.9-1,1.9-1.3,2.9c-0.4,1.2-0.6,2.4-0.6,3.6s0.2,2.4,0.6,3.6c0.3,1,0.8,1.9,1.3,2.9h-1
				c-0.6-0.9-1.1-1.8-1.4-2.9c-0.4-1.2-0.6-2.4-0.6-3.6c0-1.3,0.2-2.5,0.6-3.7c0.4-1,0.8-2,1.4-2.9L-389.9,87.9L-389.9,87.9z"/>
			<path class="st2" d="M-388,88.9h12.5v1h-1.8v9.5c0,0.9-0.4,1.4-1.3,1.4h-2.3l-0.2-1c1,0,1.8,0.1,2.2,0.1c0.5,0,0.7-0.2,0.7-0.7
				v-9.3h-9.6v-1H-388z M-380.9,92v5.1h-4.5v1.2h-1v-6.4h5.5V92z M-385.4,96.2h3.5v-3.3h-3.5V96.2z"/>
			<path class="st2" d="M-364.8,100.6c-0.5,0-1.3,0-2.5,0c-0.9,0-1.7-0.1-2.2-0.3c-0.6-0.2-1.1-0.5-1.5-1c-0.2-0.2-0.4-0.3-0.5-0.3
				c-0.3,0-0.9,0.6-1.7,1.9l-0.8-0.7c0.7-1.2,1.4-1.9,2-2.1v-4.3h-2v-0.9h2.9v5.2c0.1,0.1,0.2,0.2,0.3,0.3c0.3,0.4,0.7,0.7,1.1,0.9
				c0.4,0.2,1.1,0.3,1.9,0.3c1,0,1.9,0,2.8,0c0.4,0,1.1,0,2,0c0.8,0,1.3,0,1.6-0.1l-0.2,1L-364.8,100.6L-364.8,100.6z M-373,88.2
				c0.9,0.7,1.7,1.4,2.4,2.2l-0.7,0.7c-0.6-0.7-1.4-1.4-2.4-2.2L-373,88.2z M-366.1,88h1v1.8h2.8v1h-2.8v2h3.3v1h-2.3v3.6
				c0,0.2,0.1,0.3,0.4,0.3h0.5c0.2,0,0.4,0,0.5-0.1c0.2-0.1,0.3-0.6,0.4-1.6l0.9,0.3c-0.1,1.1-0.3,1.8-0.5,2s-0.6,0.3-1.1,0.3h-1
				c-0.3,0-0.6-0.1-0.8-0.3c-0.2-0.2-0.3-0.4-0.3-0.7v-4h-1.4c0,0.9-0.2,1.8-0.4,2.5c-0.4,1.1-1.2,1.9-2.5,2.6l-0.6-0.8
				c1.1-0.5,1.9-1.2,2.2-2.1c0.2-0.6,0.4-1.3,0.4-2.2h-2.2v-1h3.5v-2h-2.3c-0.3,0.5-0.5,1-0.8,1.5l-0.9-0.5c0.7-1,1.2-2.2,1.6-3.5
				l1,0.2c-0.2,0.6-0.3,1-0.4,1.4h1.8L-366.1,88L-366.1,88z"/>
			<path class="st2" d="M-358.7,87.9c0.6,0.9,1.1,1.8,1.4,2.9c0.4,1.2,0.6,2.4,0.6,3.7c0,1.2-0.2,2.4-0.6,3.6c-0.4,1-0.9,2-1.4,2.9
				h-1c0.5-0.9,1-1.9,1.3-2.9c0.4-1.3,0.6-2.5,0.6-3.6s-0.2-2.4-0.6-3.6c-0.3-1-0.8-2-1.3-2.9L-358.7,87.9L-358.7,87.9z"/>
		</g>
	</g>
</g>
<g id="RectEndPoint31" transform="translate(1027 99)">
	<rect x="-534.2" y="59.2" class="st7" width="108" height="49"/>
	<rect x="-536.2" y="57.2" class="st8" width="108" height="49"/>
	<g transform="translate(20 9)">
		<g class="st1">
			<path class="st2" d="M-535.2,79.5l-0.2-1c0.5,0,0.9,0.1,1.1,0.1c0.4,0,0.5-0.2,0.5-0.6v-3.4c-0.4,0.1-1,0.4-1.7,0.6l-0.3-1
				c0.6-0.2,1.3-0.4,2-0.6v-3.1h-1.7v-1h1.7v-2.6h1v2.6h1.2v1h-1.2v2.7c0.4-0.2,0.8-0.4,1.2-0.6v1c-0.4,0.2-0.8,0.4-1.2,0.6v4.1
				c0,0.8-0.4,1.3-1.2,1.3L-535.2,79.5L-535.2,79.5z M-527.2,72.7c-0.1,0.4-0.3,0.7-0.5,1.1h4.8v1h-1.5c-0.2,1-0.6,1.9-1.3,2.6
				c1,0.5,1.9,0.9,2.8,1.4l-0.5,0.8c-0.8-0.5-1.8-1-2.9-1.6c-0.9,0.7-2.4,1.2-4.4,1.6l-0.4-0.9c1.7-0.3,2.9-0.7,3.8-1.2
				c-0.7-0.3-1.6-0.7-2.7-1.2c0.4-0.6,0.7-1.1,1-1.7h-1.9v-1h2.4c0.2-0.4,0.4-0.8,0.5-1.2L-527.2,72.7z M-528.8,69.2
				c0.3,0.6,0.7,1.3,1,2.1h1.4c0.4-0.7,0.7-1.4,1-2.2l1,0.3c-0.3,0.7-0.6,1.3-0.9,1.9h2.3v1h-7.8v-1h2.1c-0.3-0.7-0.6-1.2-0.9-1.7
				L-528.8,69.2z M-527,66.7c0.1,0.4,0.3,0.8,0.5,1.3h3.1v1h-7.2v-0.9h3.1c-0.1-0.4-0.3-0.8-0.5-1.2L-527,66.7z M-528.2,74.8
				c-0.3,0.5-0.5,0.9-0.8,1.2c0.8,0.3,1.6,0.6,2.4,1c0.6-0.6,1-1.3,1.3-2.2H-528.2z"/>
			<path class="st2" d="M-521.2,76c0.3-0.1,0.4-0.3,0.4-0.5v-6.9h1v7c0.5-0.2,1.2-0.4,1.9-0.7v-8h1v12.7h-1v-3.7c-1,0.4-2,0.7-3,1
				L-521.2,76z M-515.8,73.5l-0.6-0.8c1.1-1.6,1.8-3.6,2.2-5.9l1,0.1c-0.1,0.8-0.3,1.5-0.5,2.1h4.5v1h-1.1c-0.1,2.4-0.6,4.4-1.5,6.1
				c0.9,1.2,1.9,2.1,3.1,2.7l-0.6,0.8c-1.2-0.7-2.2-1.6-3-2.7c-0.8,1.1-2,2-3.3,2.7l-0.6-0.8c1.4-0.7,2.5-1.6,3.4-2.7
				c-0.8-1.2-1.4-2.6-1.9-4.2C-515.1,72.5-515.4,73-515.8,73.5z M-511.2,70.1h-2.8c-0.2,0.6-0.3,0.8-0.3,0.7
				c0.5,1.7,1.1,3.2,1.9,4.5C-511.6,73.8-511.2,72-511.2,70.1z"/>
			<path class="st2" d="M-504.3,77.2v2.4h-0.9v-9.7h-1v7.5h-0.9v-8.3h1.9v-2.2h0.9v2.2h1.9V76c0,0.8-0.4,1.3-1.1,1.3h-0.8V77.2z
				 M-504.3,69.9v6.4h0.5c0.3,0,0.5-0.2,0.5-0.6v-5.8H-504.3z M-499.1,72h1v2c0,1.6-0.4,2.8-0.9,3.7c-0.6,0.9-1.5,1.5-2.8,2
				l-0.5-0.9c1.2-0.4,2.1-1.1,2.6-1.8c0.5-0.8,0.7-1.8,0.7-3.1V72H-499.1z M-495.6,70.2v6.3h-1v-5.4h-3.9v5.5h-1v-6.4h2.1v-3.4h1
				v1.1h3.3v0.9h-3.3v1.4H-495.6z M-497.9,76.8c1.1,0.6,2.2,1.3,3.2,2.1l-0.5,0.8c-1-0.9-2-1.6-3.1-2.2L-497.9,76.8z"/>
			<path class="st2" d="M-492.8,70.3c1,0.7,1.8,1.4,2.5,2.1l-0.7,0.7c-0.6-0.7-1.4-1.4-2.5-2.1L-492.8,70.3z M-490.1,74.4
				c-0.7,1.8-1.5,3.6-2.3,5.1l-0.9-0.4c0.9-1.7,1.7-3.3,2.4-5L-490.1,74.4z M-492.4,67c1,0.7,1.9,1.4,2.6,2.1l-0.7,0.7
				c-0.7-0.7-1.5-1.4-2.6-2.2L-492.4,67z M-488.6,67.4c0.6,0.7,1.1,1.5,1.6,2.3l-0.9,0.4c-0.5-0.9-1-1.6-1.6-2.3L-488.6,67.4z
				 M-485.9,66.8h1v3.8h3.2v7.5c0,0.9-0.4,1.4-1.3,1.4h-1.8l-0.3-1h1.7c0.4,0,0.7-0.2,0.7-0.7v-1.4h-5.4v3.1h-1v-8.9h3.2
				L-485.9,66.8L-485.9,66.8z M-482.6,73.2v-1.6h-5.4v1.6H-482.6z M-488,74.1v1.5h5.4v-1.5H-488z M-481.3,67.6
				c-0.4,0.9-0.9,1.7-1.5,2.5l-0.9-0.4c0.6-0.8,1.1-1.7,1.5-2.5L-481.3,67.6z"/>
			<path class="st2" d="M-477.3,75.8c-0.3,1.3-0.8,2.4-1.4,3.3l-0.9-0.5c0.6-0.9,1-1.9,1.3-3L-477.3,75.8z M-477.5,67.8h3.1
				c0.2-0.4,0.3-0.7,0.4-1.1l1,0.1c-0.1,0.3-0.3,0.7-0.4,1h4.6v6.8h-8.8L-477.5,67.8L-477.5,67.8z M-476.6,69.9h6.8v-1.1h-6.8V69.9z
				 M-476.6,71.8h6.8v-1.1h-6.8V71.8z M-469.8,73.8v-1.2h-6.8v1.2H-469.8z M-475.1,79.4c-0.8,0-1.2-0.4-1.2-1.2v-2.7h1V78
				c0,0.3,0.2,0.5,0.5,0.5h3.1c0.3,0,0.5-0.1,0.7-0.2c0.2-0.2,0.3-0.8,0.4-1.7l1,0.3c-0.1,1.2-0.3,1.9-0.6,2.2
				c-0.3,0.2-0.7,0.3-1.2,0.3L-475.1,79.4L-475.1,79.4z M-473.4,75.1c0.7,0.7,1.3,1.3,1.7,1.9l-0.8,0.5c-0.4-0.6-1-1.3-1.7-2
				L-473.4,75.1z M-468.9,75.4c0.9,1.1,1.6,2.1,2.1,3l-0.8,0.6c-0.5-0.9-1.2-1.9-2-3L-468.9,75.4z"/>
		</g>
	</g>
</g>
<g id="RectEndPoint32" transform="translate(1025 154)">
	<rect x="-534.2" y="71.1" class="st7" width="112" height="50"/>
	<rect x="-536.2" y="69.1" class="st8" width="112" height="50"/>
	<g transform="translate(20 9)">
		<g class="st1">
			<path class="st2" d="M-534.6,83l1.1-3.9l1,0.2l-0.8,2.8h2.5c0.3-1.1,0.5-2.2,0.7-3.4l1,0.1c-0.2,1.1-0.4,2.2-0.7,3.3h6.6v1h-6.8
				c-0.2,0.7-0.4,1.2-0.5,1.6h5.7v0.9c-0.4,1.2-1.1,2.3-2.3,3.3c1.1,0.7,2.5,1.3,4.1,1.8l-0.5,0.9c-1.8-0.7-3.3-1.4-4.5-2.1
				c-1.1,0.8-2.6,1.5-4.3,2.2l-0.5-0.9c1.6-0.6,2.9-1.2,3.9-1.9c-1.1-0.8-1.9-1.7-2.3-2.7c-1,2.2-2.3,4-3.9,5.3l-0.5-0.9
				c2-1.8,3.5-4.2,4.5-7.4h-3.5V83L-534.6,83z M-530.4,85.5c0.5,1,1.3,1.8,2.4,2.6c1-0.8,1.8-1.7,2.1-2.6H-530.4z M-526.8,78.7
				c1,0.7,1.8,1.5,2.5,2.3l-0.7,0.7c-0.6-0.7-1.4-1.5-2.5-2.4L-526.8,78.7z"/>
			<path class="st2" d="M-512.3,91.3c-0.5,0-1.3,0-2.5,0c-0.9,0-1.7-0.1-2.2-0.3c-0.6-0.2-1.1-0.5-1.5-1c-0.2-0.2-0.4-0.3-0.5-0.3
				c-0.3,0-0.9,0.6-1.7,1.9l-0.8-0.7c0.7-1.2,1.4-1.9,2-2.1v-4.3h-2v-0.9h2.9v5.2c0.1,0.1,0.2,0.2,0.4,0.3c0.3,0.4,0.7,0.7,1.1,0.9
				c0.4,0.2,1.1,0.3,1.9,0.3c1,0,1.9,0,2.8,0c0.4,0,1.1,0,2,0c0.8,0,1.3,0,1.6-0.1l-0.2,1L-512.3,91.3L-512.3,91.3z M-520.5,78.9
				c1,0.7,1.8,1.5,2.4,2.2l-0.7,0.7c-0.6-0.7-1.4-1.4-2.4-2.2L-520.5,78.9z M-517.2,84.2h3.4c0.1-0.6,0.1-1.3,0.2-2.1h-3.1v-0.9h4.2
				c0.4-0.8,0.8-1.7,1.1-2.6l1,0.3c-0.3,0.8-0.7,1.6-1,2.3h1.8v0.9h-3c0,0.9-0.1,1.6-0.2,2.1h3.6v1h-3.8c-0.4,1.7-1.6,3.1-3.7,4.2
				l-0.6-0.8c1.8-0.9,2.9-2,3.3-3.4h-3.2V84.2L-517.2,84.2z M-515.3,78.7c0.4,0.6,0.9,1.3,1.3,2l-0.9,0.4c-0.4-0.8-0.9-1.4-1.4-2
				L-515.3,78.7z M-512.4,86c1.2,0.8,2.2,1.7,3.2,2.6l-0.7,0.8c-1-1.1-2-2-3.1-2.7L-512.4,86z"/>
			<path class="st2" d="M-504.3,89.1v2.4h-0.9v-9.7h-1v7.5h-0.9V81h1.9v-2.2h0.9V81h1.9v6.9c0,0.8-0.4,1.3-1.1,1.3h-0.8V89.1z
				 M-504.3,81.8v6.4h0.5c0.3,0,0.5-0.2,0.5-0.6v-5.8H-504.3z M-499.1,83.9h1v2c0,1.6-0.4,2.8-0.9,3.7c-0.6,0.9-1.5,1.5-2.8,2
				l-0.5-0.9c1.2-0.4,2.1-1.1,2.6-1.8c0.5-0.8,0.7-1.8,0.7-3.1v-1.9C-499,83.9-499.1,83.9-499.1,83.9z M-495.6,82.1v6.3h-1V83h-3.9
				v5.5h-1v-6.4h2.1v-3.4h1v1.1h3.3v0.9h-3.3v1.4H-495.6z M-497.9,88.7c1.1,0.6,2.2,1.3,3.2,2.1l-0.5,0.8c-1-0.9-2-1.6-3.1-2.2
				L-497.9,88.7z"/>
			<path class="st2" d="M-492.8,82.2c1,0.7,1.8,1.4,2.5,2.1L-491,85c-0.6-0.7-1.4-1.4-2.5-2.1L-492.8,82.2z M-490.1,86.3
				c-0.7,1.8-1.5,3.6-2.3,5.1l-0.9-0.4c0.9-1.7,1.7-3.3,2.4-5L-490.1,86.3z M-492.4,78.9c1,0.7,1.9,1.4,2.6,2.1l-0.7,0.7
				c-0.7-0.7-1.5-1.4-2.6-2.2L-492.4,78.9z M-488.6,79.3c0.6,0.7,1.1,1.5,1.6,2.3l-0.9,0.4c-0.5-0.9-1-1.6-1.6-2.3L-488.6,79.3z
				 M-485.9,78.7h1v3.8h3.2V90c0,0.9-0.4,1.4-1.3,1.4h-1.8l-0.3-1h1.7c0.4,0,0.7-0.2,0.7-0.7v-1.4h-5.4v3.1h-1v-8.9h3.2L-485.9,78.7
				L-485.9,78.7z M-482.6,85.1v-1.6h-5.4v1.6H-482.6z M-488,86v1.5h5.4V86H-488z M-481.3,79.5c-0.4,0.9-0.9,1.7-1.5,2.5l-0.9-0.4
				c0.6-0.8,1.1-1.7,1.5-2.5L-481.3,79.5z"/>
			<path class="st2" d="M-477.3,87.7c-0.3,1.3-0.8,2.4-1.4,3.3l-0.9-0.5c0.6-0.9,1-1.9,1.3-3L-477.3,87.7z M-477.5,79.7h3.1
				c0.2-0.4,0.3-0.7,0.4-1.1l1,0.1c-0.1,0.3-0.3,0.7-0.4,1h4.6v6.8h-8.8L-477.5,79.7L-477.5,79.7z M-476.6,81.8h6.8v-1.1h-6.8V81.8z
				 M-476.6,83.7h6.8v-1.1h-6.8V83.7z M-469.8,85.7v-1.2h-6.8v1.2H-469.8z M-475.1,91.3c-0.8,0-1.2-0.4-1.2-1.2v-2.7h1v2.5
				c0,0.3,0.2,0.5,0.5,0.5h3.1c0.3,0,0.5-0.1,0.7-0.2c0.2-0.2,0.3-0.8,0.4-1.7l1,0.3c-0.1,1.2-0.3,1.9-0.6,2.2
				c-0.3,0.2-0.7,0.3-1.2,0.3L-475.1,91.3L-475.1,91.3z M-473.4,87c0.7,0.7,1.3,1.3,1.7,1.9l-0.8,0.5c-0.4-0.6-1-1.3-1.7-2
				L-473.4,87z M-468.9,87.3c0.9,1.1,1.6,2.1,2.1,3l-0.8,0.6c-0.5-0.9-1.2-1.9-2-3L-468.9,87.3z"/>
		</g>
	</g>
</g>
<g id="RectEndPoint35" transform="translate(1204.07 98)">
	<rect x="-585.8" y="60.6" class="st7" width="96" height="50"/>
	<rect x="-587.8" y="58.6" class="st8" width="96" height="50"/>
	<g transform="translate(20 9)">
		<g class="st1">
			<path class="st2" d="M-590.7,68.5c-0.7,1.8-1.4,3.3-2.2,4.4c0.6-0.1,1.3-0.2,2-0.3l0.8-1.6l0.9,0.3c-1.3,2.4-2.3,4-3.2,5.1
				c1.1-0.2,2.1-0.5,3.2-0.8v0.9c-1.5,0.5-3,0.9-4.4,1l-0.3-0.9c0.2-0.1,0.3-0.2,0.5-0.3c0.5-0.5,1.2-1.5,2-2.8
				c-0.6,0.1-1.4,0.2-2.4,0.3l-0.3-0.9c0.2-0.1,0.3-0.2,0.4-0.4c0.8-1.3,1.5-2.8,2-4.4L-590.7,68.5z M-589,79.2
				c-1.4,0.5-3,0.9-4.9,1.3l-0.1-1c1.9-0.3,3.5-0.7,5-1.2V79.2z M-589.2,69.9h3.3v-1.7h1v1.7h3.3v1h-3.3V73h2.9v1h-6.8v-1h2.9v-2.1
				h-3.3L-589.2,69.9L-589.2,69.9z M-582.3,75.4V81h-1v-0.7h-4V81h-1v-5.6H-582.3z M-587.3,79.4h4v-3.1h-4V79.4z"/>
			<path class="st2" d="M-579.8,69.6h5.5v-1.4h1v1.4h5.4v1h-5.4V72h4.4v4h-3.6c1,1.4,2.7,2.7,5.1,3.8l-0.7,0.9
				c-2.5-1.4-4.2-2.9-5.2-4.7l0,0v5h-1v-5.1l0,0c-1.1,1.9-2.8,3.5-5.3,4.7l-0.6-0.9c2.3-1,4-2.2,5.1-3.8h-3.5v-4h4.4v-1.4h-5.5
				L-579.8,69.6L-579.8,69.6z M-574.3,75v-2.1h-3.4V75H-574.3z M-569.9,75v-2.1h-3.4V75H-569.9z"/>
			<path class="st2" d="M-562.9,78.6V81h-0.9v-9.7h-1v7.5h-0.9v-8.3h1.9v-2.2h0.9v2.2h1.9v6.9c0,0.8-0.4,1.3-1.1,1.3h-0.8
				L-562.9,78.6L-562.9,78.6z M-562.9,71.3v6.4h0.5c0.3,0,0.5-0.2,0.5-0.6v-5.8H-562.9z M-557.6,73.4h1v2c0,1.6-0.4,2.8-0.9,3.7
				c-0.6,0.9-1.5,1.5-2.8,2l-0.5-0.9c1.2-0.4,2.1-1.1,2.6-1.8c0.5-0.8,0.7-1.8,0.7-3.1L-557.6,73.4
				C-557.5,73.4-557.6,73.4-557.6,73.4z M-554.2,71.5v6.3h-1v-5.4h-3.9v5.5h-1v-6.4h2.1v-3.4h1v1.1h3.3v0.9h-3.3v1.4H-554.2z
				 M-556.4,78.2c1.1,0.6,2.2,1.3,3.1,2.1l-0.5,0.8c-1-0.9-2-1.6-3.1-2.2L-556.4,78.2z"/>
			<path class="st2" d="M-543.3,81l-0.3-1h1.8c0.4,0,0.5-0.2,0.5-0.6v-9.7h-9.2V81h-1V68.7h11.2v10.9c0,0.9-0.4,1.4-1.2,1.4H-543.3z
				 M-549.4,71.3h7.2v0.9h-7.2V71.3z M-548.6,73.8h5.6v4.5h-5.6V73.8z M-544,77.4v-2.7h-3.7v2.7H-544z"/>
			<path class="st2" d="M-532.2,68.2h1v1.7h4.2v1h-4.2v1.9h5.6v1h-5.6V78h-1v-4.2h-5.9v-1h2.1v-3.5h1v3.5h2.6v-4.6
				C-532.4,68.2-532.2,68.2-532.2,68.2z M-533.9,75c-0.8,1.3-1.9,2.5-3.1,3.4l-0.6-0.8c1.2-0.9,2.2-2,3-3.2L-533.9,75z M-526.7,75.2
				c-1.8,3.9-5.1,5.8-10.1,5.8l-0.4-1c4.8,0,8-1.8,9.6-5.4L-526.7,75.2z"/>
		</g>
	</g>
</g>
<g id="RectEndPoint36" transform="translate(1166.07 154)">
	<rect x="-547.8" y="71.1" class="st7" width="96" height="50"/>
	<rect x="-549.8" y="69.1" class="st8" width="96" height="50"/>
	<g transform="translate(20 9)">
		<g class="st1">
			<path class="st2" d="M-559.9,78.2l-0.2-0.9c1-0.4,2.3-2.1,3.9-5l1,0.3c-1.1,1.9-2.1,3.5-3.2,4.7c2.5-0.1,4.8-0.2,6.9-0.4
				c-0.6-0.9-1.1-1.8-1.7-2.5l0.9-0.4c1.1,1.5,2.1,3.1,3,4.7l-1,0.5c-0.2-0.4-0.4-0.8-0.7-1.4l-1.9,0.2v5.5c0,0.4,0.2,0.6,0.6,0.6
				h1.5c0.4,0,0.6-0.1,0.8-0.3c0.2-0.3,0.3-1,0.4-2.3l1,0.3c-0.1,1.5-0.3,2.4-0.7,2.8c-0.3,0.3-0.7,0.4-1.3,0.4h-2
				c-0.9,0-1.3-0.4-1.3-1.3v-5.6l-2.2,0.1c-0.1,2-0.5,3.4-1,4.4c-0.7,1.1-1.8,2-3.3,2.8l-0.7-0.8c1.4-0.7,2.4-1.5,3-2.4
				c0.5-0.9,0.9-2.2,1-3.9C-558.3,78.2-559.2,78.2-559.9,78.2z"/>
			<path class="st2" d="M-547.1,76.6h2.9v6.2c0.5-0.4,1.1-0.9,1.6-1.5l0.3,1c-0.8,0.8-1.8,1.5-2.8,2.2l-0.4-0.9
				c0.2-0.2,0.3-0.4,0.3-0.6v-5.5h-2L-547.1,76.6L-547.1,76.6z M-545.6,72.5c1,0.7,1.8,1.4,2.4,2.2l-0.7,0.7
				c-0.6-0.7-1.4-1.4-2.4-2.2L-545.6,72.5z M-540.8,75.1c-0.5,1-1.1,1.8-1.8,2.5l-0.6-0.8c1.2-1.1,2-2.7,2.4-4.6l1,0.2
				c-0.1,0.6-0.3,1.1-0.5,1.7h5.6v1h-2.9v3.4h3.5v1h-3.5v5.7h-1v-5.7h-4.2v-1h4.2v-3.4H-540.8z"/>
			<path class="st2" d="M-530.7,77v1.2c0,2.7-0.6,5-1.9,6.9l-0.7-0.7c1.1-1.6,1.6-3.7,1.6-6.3v-4.9h4.7c-0.1-0.4-0.3-0.8-0.4-1.1
				l1.1-0.2c0.2,0.5,0.3,0.9,0.4,1.2h4.5v3.6h-9.3L-530.7,77L-530.7,77z M-530,79.6v-1h4c-0.2-0.4-0.3-0.8-0.4-1.1l1.1-0.2
				c0.1,0.4,0.3,0.8,0.4,1.2h4.4v1h-6.2c0,0.5-0.1,0.9-0.2,1.3h5.3c-0.1,1.9-0.1,3-0.3,3.3c-0.1,0.3-0.4,0.5-0.7,0.6
				c-0.4,0.1-1.1,0.2-2.3,0.2h-0.3l-0.3-0.9c0.4,0,0.6,0,0.8,0c0.7,0,1.2,0,1.5-0.1c0.2-0.1,0.3-0.2,0.4-0.4c0-0.2,0.1-0.8,0.2-1.8
				h-4.5c-0.6,1.4-1.6,2.5-3.1,3.3l-0.5-0.9c1.9-0.9,2.9-2.5,3-4.7h-2.3L-530,79.6L-530,79.6z M-522.4,74.3h-8.3v1.8h8.3V74.3z"/>
			<path class="st2" d="M-518.4,74.6h1v10.5h-1V74.6z M-516.4,72.2c0.7,0.8,1.2,1.6,1.7,2.5l-0.9,0.5c-0.5-1-1.1-1.9-1.7-2.6
				L-516.4,72.2z M-515.5,76.1h5.3v6.5h-5.3V76.1z M-514.6,78.9h3.4V77h-3.4V78.9z M-511.1,81.7v-1.9h-3.4v1.9H-511.1z M-509.8,85
				l-0.3-0.9h1.2c0.4,0,0.6-0.3,0.6-0.9v-9.3h-5.4V73h6.4v10.5c0,1-0.5,1.5-1.4,1.5C-508.7,85-509.8,85-509.8,85z"/>
			<path class="st2" d="M-502.8,72.4h1v2.4h2.9c0,4.6-0.1,7.4-0.2,8.5c-0.1,1.2-0.8,1.7-2.1,1.7l-1.1-0.1l-0.3-0.9
				c0.6,0,1,0.1,1.2,0.1c0.7,0,1.2-0.4,1.3-1.2c0.1-0.8,0.1-3.2,0.2-7.1h-1.9v0.3c0,4.2-1,7.3-2.7,9.2l-0.8-0.7
				c1.7-1.7,2.5-4.6,2.5-8.5v-0.3h-2.2v-1h2.2V72.4z M-493.1,74.1V85h-1v-0.9h-2.5V85h-1V74.1H-493.1z M-496.6,83h2.5v-8h-2.5V83z"
				/>
			<path class="st2" d="M-487.7,72.8l0.8-0.5c1.2,0.9,2.3,2.4,3.2,4.7c1.3,3.4,3.1,5.7,5.3,7.1l-0.6,0.8c-2.3-1.4-4.1-3.9-5.6-7.6
				c-0.1-0.3-0.2-0.5-0.2-0.6c-0.9,3.6-2.9,6.3-5.8,8.2l-0.6-0.9c3-2,4.9-4.8,5.8-8.5C-486,74.4-486.8,73.5-487.7,72.8z"/>
			<path class="st2" d="M-551.4,89.1c0.7,0.5,1.2,1,1.7,1.5l-0.6,0.6h1.7v1h-4.3c0.1,1.7,0.3,3.1,0.5,4.1c0.1,0.3,0.2,0.6,0.3,1
				c0.7-1.1,1.3-2.4,1.7-3.9l0.9,0.4c-0.6,1.9-1.3,3.4-2.2,4.7c0.2,0.5,0.4,0.8,0.6,1.2c0.5,0.7,0.8,1,1.1,1s0.5-0.7,0.7-2.2
				l0.9,0.5c-0.3,1.9-0.8,2.8-1.4,2.8c-0.6,0-1.2-0.4-1.9-1.3c-0.3-0.3-0.5-0.7-0.7-1.2c-1,1.1-2.1,2-3.4,2.6l-0.6-0.8
				c1.4-0.6,2.6-1.6,3.6-2.8c-0.2-0.6-0.4-1.1-0.5-1.7c-0.3-1.1-0.5-2.6-0.6-4.4h-4.8v2.3h3.4c0,2.4-0.1,3.9-0.3,4.6
				c-0.2,0.6-0.6,0.9-1.3,0.9c-0.2,0-0.6,0-1.2-0.1l-0.3-0.9c0.5,0,1,0,1.4,0c0.3,0,0.5-0.2,0.6-0.6s0.1-1.4,0.2-3h-2.4v0.4
				c-0.1,2.5-0.6,4.5-1.7,6l-0.8-0.7c0.9-1.3,1.4-3.1,1.4-5.3v-4.7h5.8c0-0.7,0-1.4,0-2.2h1c0,0.8,0,1.5,0,2.2h2.6
				c-0.4-0.5-1-1-1.7-1.6L-551.4,89.1z"/>
			<path class="st2" d="M-540.1,96.1c-0.2,2.1-0.6,3.4-1.3,4.2c-0.7,0.9-2.4,1.4-5,1.7l-0.4-0.9c2.3-0.1,3.8-0.6,4.5-1.4
				c0.7-0.7,1-1.9,1.1-3.7L-540.1,96.1z M-536.3,94.2v5.1h-1v-4.2h-6.9v4.4h-1v-5.3H-536.3z M-544.5,89.6h7.4v3.5h-7.4V89.6z
				 M-538.1,92.2v-1.7h-5.4v1.6L-538.1,92.2L-538.1,92.2z M-539.8,99.3c1.7,0.5,3.4,1.2,4.9,2l-0.5,0.8c-1.6-0.9-3.2-1.5-4.9-2
				L-539.8,99.3z"/>
			<path class="st2" d="M-520.9,89c-0.6,0.9-1,1.9-1.3,2.9c-0.4,1.2-0.6,2.4-0.6,3.6s0.2,2.4,0.6,3.6c0.3,1,0.8,1.9,1.3,2.9h-1
				c-0.6-0.9-1.1-1.8-1.4-2.9c-0.4-1.2-0.6-2.4-0.6-3.6c0-1.3,0.2-2.5,0.6-3.7c0.4-1,0.8-2,1.4-2.9L-520.9,89L-520.9,89z"/>
			<path class="st2" d="M-519,90h12.5v1h-1.8v9.5c0,0.9-0.4,1.4-1.3,1.4h-2.3l-0.2-1c1,0,1.8,0.1,2.2,0.1c0.5,0,0.7-0.2,0.7-0.7V91
				h-9.6v-1H-519z M-511.9,93.1v5.1h-4.5v1.2h-1V93h5.5L-511.9,93.1L-511.9,93.1z M-516.4,97.3h3.5V94h-3.5V97.3z"/>
			<path class="st2" d="M-495.8,101.7c-0.5,0-1.3,0-2.5,0c-0.9,0-1.7-0.1-2.2-0.3c-0.6-0.2-1.1-0.5-1.5-1c-0.2-0.2-0.4-0.3-0.5-0.3
				c-0.3,0-0.9,0.6-1.7,1.9l-0.8-0.7c0.7-1.2,1.4-1.9,2-2.1v-4.3h-2V94h2.9v5.2c0.1,0.1,0.2,0.2,0.3,0.3c0.3,0.4,0.7,0.7,1.1,0.9
				c0.4,0.2,1.1,0.3,1.9,0.3c1,0,1.9,0,2.8,0c0.4,0,1.1,0,2,0c0.8,0,1.3,0,1.6-0.1l-0.2,1L-495.8,101.7L-495.8,101.7z M-504,89.3
				c0.9,0.7,1.7,1.4,2.4,2.2l-0.7,0.7c-0.6-0.7-1.4-1.4-2.4-2.2L-504,89.3z M-497.1,89.1h1v1.8h2.8v1h-2.8v2h3.3v1h-2.3v3.6
				c0,0.2,0.1,0.3,0.4,0.3h0.5c0.2,0,0.4,0,0.5-0.1c0.2-0.1,0.3-0.6,0.4-1.6l0.9,0.3c-0.1,1.1-0.3,1.8-0.5,2s-0.6,0.3-1.1,0.3h-1
				c-0.3,0-0.6-0.1-0.8-0.3c-0.2-0.2-0.3-0.4-0.3-0.7v-4h-1.4c0,0.9-0.2,1.8-0.4,2.5c-0.4,1.1-1.2,1.9-2.5,2.6L-501,99
				c1.1-0.5,1.9-1.2,2.2-2.1c0.2-0.6,0.4-1.3,0.4-2.2h-2.2v-1h3.5v-2h-2.3c-0.3,0.5-0.5,1-0.8,1.5l-0.9-0.5c0.7-1,1.2-2.2,1.6-3.5
				l1,0.2c-0.2,0.6-0.3,1-0.4,1.4h1.8L-497.1,89.1L-497.1,89.1z"/>
			<path class="st2" d="M-489.7,89c0.6,0.9,1.1,1.8,1.4,2.9c0.4,1.2,0.6,2.4,0.6,3.7c0,1.2-0.2,2.4-0.6,3.6c-0.4,1-0.9,2-1.4,2.9h-1
				c0.5-0.9,1-1.9,1.3-2.9c0.4-1.3,0.6-2.5,0.6-3.6s-0.2-2.4-0.6-3.6c-0.3-1-0.8-2-1.3-2.9L-489.7,89L-489.7,89z"/>
		</g>
	</g>
</g>
<g id="RectEndPoint37" transform="translate(1211.57 222)">
	<rect x="-592.8" y="69.9" class="st7" width="96" height="50"/>
	<rect x="-594.8" y="67.9" class="st8" width="96" height="50"/>
	<g transform="translate(20 9)">
		<g class="st1">
			<path class="st2" d="M-587.6,77.4c0.2,0.3,0.3,0.7,0.5,1.2h5.3v0.9h-12v-0.9h5.7c-0.1-0.3-0.3-0.6-0.5-1L-587.6,77.4z
				 M-584.3,83.2v-3h1v3.9h-4.5l-0.3,1h5.7v4.2c0,0.8-0.4,1.1-1.2,1.1h-1.2l-0.3-1h1.1c0.4,0,0.5-0.1,0.5-0.4v-3.1h-2.6
				c0.6,0.9,1.1,1.8,1.6,2.8l-0.8,0.4l-0.4-0.8c-1.1,0.2-2.9,0.4-5.1,0.7l-0.2-0.9c0.2,0,0.4-0.1,0.4-0.2c0.3-0.5,0.7-1.2,1-2h-2.7
				v4.4h-1V85h4l0.3-1h-3.4v-3.9h1v3L-584.3,83.2L-584.3,83.2L-584.3,83.2z M-590,79.9c0.8,0.3,1.7,0.7,2.5,1.1
				c0.6-0.4,1.1-0.8,1.6-1.2l0.7,0.4c-0.5,0.4-1,0.8-1.5,1.2c0.5,0.3,1.1,0.6,1.7,1l-0.5,0.7c-0.7-0.5-1.4-0.9-2.1-1.2
				c-0.8,0.4-1.7,0.8-2.8,1.2l-0.4-0.7c0.9-0.3,1.7-0.6,2.3-0.9c-0.8-0.4-1.5-0.7-2.1-0.9L-590,79.9z M-586.3,85.9h-2.2
				c-0.3,0.7-0.6,1.4-1,2.1c1.3-0.1,2.5-0.3,3.5-0.5c-0.3-0.5-0.6-1-0.8-1.4L-586.3,85.9z"/>
			<path class="st2" d="M-579.2,78.3h10.9v1h-2.3V83h3.1v1h-3.1v6.2h-1V84h-4c-0.1,1.4-0.4,2.6-0.8,3.6c-0.5,1.2-1.4,2.1-2.6,2.7
				l-0.5-0.9c1.1-0.6,1.9-1.5,2.4-2.6c0.3-0.8,0.5-1.8,0.6-2.9h-3.2v-1h3.3v-0.5v-3.1h-2.5v-1C-578.9,78.3-579.2,78.3-579.2,78.3z
				 M-575.6,79.3v3.5V83h4v-3.7H-575.6z"/>
			<path class="st2" d="M-563.7,82.2v1.2c0,2.7-0.6,5-1.9,6.9l-0.7-0.7c1.1-1.6,1.6-3.7,1.6-6.3v-4.9h4.7c-0.1-0.4-0.3-0.8-0.4-1.1
				l1.1-0.2c0.2,0.5,0.3,0.9,0.4,1.2h4.5v3.6h-9.3L-563.7,82.2L-563.7,82.2z M-563,84.8v-1h4c-0.2-0.4-0.3-0.8-0.4-1.1l1.1-0.2
				c0.1,0.4,0.3,0.8,0.4,1.2h4.4v1h-6.2c0,0.5-0.1,0.9-0.2,1.3h5.3c-0.1,1.9-0.1,3-0.3,3.3c-0.1,0.3-0.4,0.5-0.7,0.6
				c-0.4,0.1-1.1,0.2-2.3,0.2h-0.3l-0.3-0.9c0.4,0,0.6,0,0.8,0c0.7,0,1.2,0,1.5-0.1c0.2-0.1,0.3-0.2,0.4-0.4c0-0.2,0.1-0.8,0.2-1.8
				h-4.5c-0.6,1.4-1.6,2.5-3.1,3.3l-0.5-0.9c1.9-0.9,2.9-2.5,3-4.7h-2.3L-563,84.8L-563,84.8z M-555.4,79.5h-8.3v1.8h8.3V79.5z"/>
			<path class="st2" d="M-551.4,79.8h1v10.5h-1V79.8z M-549.4,77.4c0.7,0.8,1.2,1.6,1.7,2.5l-0.9,0.5c-0.5-1-1.1-1.9-1.7-2.6
				L-549.4,77.4z M-548.5,81.3h5.3v6.5h-5.3V81.3z M-547.6,84.1h3.4v-1.9h-3.4V84.1z M-544.1,86.9V85h-3.4v1.9H-544.1z M-542.8,90.2
				l-0.2-0.9h1.2c0.4,0,0.6-0.3,0.6-0.9v-9.3h-5.4v-0.9h6.4v10.5c0,1-0.5,1.5-1.4,1.5C-541.6,90.2-542.8,90.2-542.8,90.2z"/>
		</g>
	</g>
</g>
<g id="RectEndPoint38" transform="translate(1210.57 292)">
	<rect x="-592.8" y="67.9" class="st7" width="97" height="50"/>
	<rect x="-594.8" y="65.9" class="st8" width="97" height="50"/>
	<g transform="translate(20 9)">
		<g class="st1">
			<path class="st2" d="M-592.6,85c-0.1,1.4-0.4,2.5-1,3.5l-0.7-0.6c0.5-1,0.8-2.4,0.8-4v-4.3c-0.1,0.1-0.1,0.1-0.1,0.2l-0.6-0.7
				c0.8-0.9,1.5-2.1,2.1-3.5l0.9,0.2l-0.4,0.9h2.5v0.7c-0.3,0.6-0.6,1.1-0.9,1.6h1.7v8.4c0,0.7-0.3,1-1,1h-0.8l-0.2-0.8
				c0.4,0,0.6,0.1,0.7,0.1c0.3,0,0.5-0.2,0.5-0.5v-1.9h-1.3v3.2h-0.8v-3.2h-1.4V85L-592.6,85z M-591,78.8c0.3-0.4,0.6-0.8,0.9-1.5
				h-1.8c-0.2,0.4-0.5,0.9-0.9,1.5H-591z M-592.5,82.3V84v0.2h1.3v-1.9C-591.2,82.3-592.5,82.3-592.5,82.3z M-591.2,79.7h-1.3v1.8
				h1.3V79.7z M-589.1,81.4v-1.8h-1.3v1.8H-589.1z M-589.1,84.1v-1.8h-1.3v1.8H-589.1z M-586.5,83c-0.3,0.5-0.6,0.9-0.9,1.3
				l-0.6-0.7c0.6-0.7,1-1.6,1.2-2.7l0.8,0.2c-0.1,0.4-0.2,0.7-0.3,1h1.3v-1.3h1v1.3h2.1V83h-2.1v1.7h2.4v0.9h-2.4v2.7h-1v-2.7h-3.1
				v-0.9h3.1V83H-586.5z M-587.8,77.2v-0.9h5.8c0,1.9-0.1,3-0.4,3.4s-0.7,0.6-1.3,0.6c-0.2,0-0.6,0-1.2-0.1l-0.2-0.8l1.2,0.1
				c0.4,0,0.6-0.1,0.7-0.4c0.1-0.2,0.1-0.9,0.2-1.9h-2.1c-0.1,0.6-0.3,1.2-0.6,1.7c-0.4,0.6-0.9,1.1-1.6,1.6l-0.6-0.8
				c0.6-0.4,1.1-0.8,1.4-1.3c0.2-0.4,0.4-0.8,0.5-1.2L-587.8,77.2L-587.8,77.2z"/>
			<path class="st2" d="M-579.8,76.9h1.3v-1.4h0.9v1.4h1.9v-1.4h0.9v1.4h1.3v0.9h-1.3v1.5h1.5v0.9h-6.9v-0.9h1.6v-1.5h-1.3
				L-579.8,76.9L-579.8,76.9z M-578.1,85.9v2.4h-1V81h5v6c0,0.8-0.4,1.2-1.2,1.2h-1.2l-0.3-0.9h1.2c0.3,0,0.5-0.2,0.5-0.5v-1h-3
				V85.9z M-575,83.1V82h-3v1.1H-575z M-578.1,83.9V85h3v-1.1H-578.1z M-577.5,79.2h1.9v-1.5h-1.9V79.2z M-572.4,81
				c-0.2,0.5-0.5,1-0.8,1.4l-0.6-0.8c1-1.5,1.6-3.6,2-6.2l1,0.2c-0.1,0.7-0.2,1.4-0.4,2h3.7v1h-0.9c-0.1,2.4-0.6,4.4-1.4,6.1
				c0.8,1.2,1.6,2.2,2.7,2.8l-0.6,0.8c-1-0.7-1.9-1.6-2.6-2.7c-0.7,1.1-1.6,2-2.8,2.8l-0.5-0.9c1.2-0.7,2.1-1.7,2.8-2.8
				C-571.5,83.6-572,82.4-572.4,81z M-571.5,78.6c-0.1,0.3-0.2,0.7-0.4,1.1c0.4,1.5,0.8,2.9,1.4,4c0.7-1.5,1-3.2,1.1-5.1H-571.5z"/>
			<path class="st2" d="M-563.7,80.2v1.2c0,2.7-0.6,5-1.9,6.9l-0.7-0.7c1.1-1.6,1.6-3.7,1.6-6.3v-4.9h4.7c-0.1-0.4-0.3-0.8-0.4-1.1
				l1.1-0.2c0.2,0.5,0.3,0.9,0.4,1.2h4.5v3.6h-9.3L-563.7,80.2L-563.7,80.2z M-563,82.8v-1h4c-0.2-0.4-0.3-0.8-0.4-1.1l1.1-0.2
				c0.1,0.4,0.3,0.8,0.4,1.2h4.4v1h-6.2c0,0.5-0.1,0.9-0.2,1.3h5.3c-0.1,1.9-0.1,3-0.3,3.3c-0.1,0.3-0.4,0.5-0.7,0.6
				c-0.4,0.1-1.1,0.2-2.3,0.2h-0.3l-0.3-0.9c0.4,0,0.6,0,0.8,0c0.7,0,1.2,0,1.5-0.1c0.2-0.1,0.3-0.2,0.4-0.4c0-0.2,0.1-0.8,0.2-1.8
				h-4.5c-0.6,1.4-1.6,2.5-3.1,3.3l-0.5-0.9c1.9-0.9,2.9-2.5,3-4.7h-2.3L-563,82.8L-563,82.8z M-555.4,77.5h-8.3v1.8h8.3V77.5z"/>
			<path class="st2" d="M-551.4,77.8h1v10.5h-1V77.8z M-549.4,75.4c0.7,0.8,1.2,1.6,1.7,2.5l-0.9,0.5c-0.5-1-1.1-1.9-1.7-2.6
				L-549.4,75.4z M-548.5,79.3h5.3v6.5h-5.3V79.3z M-547.6,82.1h3.4v-1.9h-3.4V82.1z M-544.1,84.9V83h-3.4v1.9H-544.1z M-542.8,88.2
				l-0.2-0.9h1.2c0.4,0,0.6-0.3,0.6-0.9v-9.3h-5.4v-0.9h6.4v10.5c0,1-0.5,1.5-1.4,1.5C-541.6,88.2-542.8,88.2-542.8,88.2z"/>
		</g>
	</g>
</g>
<g transform="translate(0)">
	<g class="st1">
		<path class="st9" d="M136,95.2h0.9v2.1h2.5c0,3.9-0.1,6.4-0.2,7.3c-0.1,1-0.7,1.5-1.8,1.5h-0.9l-0.2-0.8c0.5,0,0.8,0,1,0
			c0.6,0,1-0.3,1.1-1s0.1-2.7,0.1-6.1h-1.6v0.2c0,3.6-0.8,6.2-2.4,7.9l-0.7-0.6c1.4-1.5,2.1-3.9,2.2-7.3v-0.2h-1.9v-0.8h1.9
			L136,95.2L136,95.2z M144.3,96.7v9.3h-0.9v-0.8h-2.2v0.8h-0.8v-9.3H144.3z M141.3,104.4h2.1v-6.8h-2.2L141.3,104.4L141.3,104.4z"
			/>
		<path class="st9" d="M148.9,95.6l0.7-0.5c1.1,0.7,2,2.1,2.7,4c1.1,2.9,2.6,4.9,4.5,6.1l-0.5,0.7c-1.9-1.2-3.5-3.3-4.8-6.5
			c-0.1-0.2-0.1-0.4-0.2-0.4c-0.8,3.1-2.4,5.4-5,7l-0.5-0.7c2.6-1.7,4.2-4.1,5-7.3C150.3,97,149.7,96.2,148.9,95.6z"/>
		<path class="st9" d="M160.1,99.2v1.1c0,2.3-0.5,4.3-1.6,6l-0.6-0.6c0.9-1.4,1.4-3.2,1.4-5.4v-4.2h4c-0.1-0.4-0.3-0.7-0.4-0.9
			l0.9-0.1c0.2,0.4,0.3,0.7,0.4,1.1h3.9v3.1L160.1,99.2L160.1,99.2z M160.6,101.4v-0.8h3.4c-0.1-0.4-0.3-0.7-0.4-0.9l0.9-0.1
			c0.1,0.3,0.2,0.7,0.4,1.1h3.8v0.8h-5.3c0,0.4-0.1,0.8-0.2,1.1h4.5c0,1.6-0.1,2.5-0.2,2.8c-0.1,0.3-0.3,0.5-0.6,0.6s-1,0.1-2,0.1
			h-0.2l-0.2-0.8c0.3,0,0.5,0,0.7,0c0.6,0,1.1,0,1.3-0.1s0.3-0.2,0.3-0.3c0-0.2,0.1-0.7,0.1-1.6H163c-0.5,1.2-1.4,2.2-2.6,2.8
			l-0.5-0.8c1.6-0.8,2.5-2.1,2.6-4h-1.9C160.6,101.3,160.6,101.4,160.6,101.4z M167.2,96.9h-7.1v1.5h7.1V96.9z"/>
		<path class="st9" d="M170.6,97.2h0.8v9h-0.8V97.2z M172.3,95.1c0.6,0.7,1.1,1.4,1.5,2.2l-0.8,0.4c-0.5-0.9-1-1.6-1.5-2.2
			L172.3,95.1z M173.1,98.4h4.6v5.6h-4.6V98.4z M173.9,100.8h2.9v-1.6h-2.9V100.8z M176.8,103.2v-1.6h-2.9v1.6H176.8z M178,106.1
			l-0.2-0.8h1c0.4,0,0.6-0.2,0.6-0.7v-8h-4.7v-0.8h5.5v9c0,0.8-0.4,1.3-1.2,1.3H178z"/>
	</g>
</g>
<g transform="translate(0)">
	<g class="st1">
		<path class="st9" d="M370.2,101.9c-0.5,1.5-1,2.9-1.5,4.1l-0.8-0.3c0.6-1.3,1.1-2.7,1.5-4.1L370.2,101.9z M368.6,98.4
			c0.7,0.6,1.3,1.1,1.8,1.7l-0.6,0.6c-0.5-0.6-1-1.1-1.8-1.7L368.6,98.4z M368.6,95.3c0.7,0.5,1.2,1.1,1.7,1.6l-0.6,0.6
			c-0.4-0.5-1-1-1.7-1.6L368.6,95.3z M371.4,97.9h-1v-0.8h1.7c-0.1-0.6-0.3-1.2-0.5-1.8l0.9-0.2c0.2,0.6,0.4,1.2,0.5,2h1.4v0.8h-2.1
			v0.8c0,0.2,0,0.5,0,0.9h1.9c0,2.8-0.1,4.5-0.2,5.2c-0.1,0.8-0.4,1.1-1.1,1.1H372l-0.2-0.7c0.5,0,0.8,0,1,0s0.4-0.2,0.4-0.7
			c0.1-0.4,0.1-1.8,0.1-4h-1.2c-0.2,2.5-0.7,4.4-1.6,5.7l-0.6-0.6c1-1.4,1.5-3.7,1.5-6.9L371.4,97.9L371.4,97.9z M375.6,97.7
			c-0.3,0.8-0.7,1.4-1.2,1.9l-0.5-0.7c0.7-1,1.2-2.3,1.5-3.9l0.9,0.1c-0.1,0.5-0.2,1.1-0.4,1.6h3v0.9L375.6,97.7L375.6,97.7z
			 M375.3,99h3.3v0.8c-0.4,0.5-0.8,1-1.2,1.4v0.7h1.7v0.8h-1.7v2.1c0,0.8-0.3,1.1-0.9,1.1h-1.1l-0.2-0.8c0.4,0,0.7,0,1,0
			c0.2,0,0.4-0.2,0.4-0.7v-1.9h-1.8v-0.8h1.8v-0.9c0.5-0.5,0.9-1,1.1-1.3h-2.3L375.3,99L375.3,99z"/>
		<path class="st9" d="M381,98.3c0.7,0.8,1.4,1.5,1.9,2.2c0.4-1,0.6-2.2,0.8-3.4h-3.2v-0.9h4V97c-0.1,1.6-0.4,3-1,4.2
			c0.6,0.7,1,1.4,1.4,2.1l-0.6,0.6c-0.4-0.6-0.8-1.2-1.2-1.8c-0.7,1.2-1.6,2.3-2.6,3.2l-0.6-0.7c1.1-0.9,2-2,2.6-3.3
			c-0.7-0.9-1.4-1.7-2.1-2.5L381,98.3z M390.4,98l0.1,0.8l-3.3,0.5c0,0.5,0.1,1,0.2,1.6c0.1,0.5,0.2,1,0.3,1.5
			c0.6-0.7,1.2-1.6,1.7-2.6l0.7,0.5c-0.7,1.2-1.4,2.3-2.1,3.1c0.1,0.3,0.2,0.5,0.3,0.6c0.4,0.7,0.7,1.1,1,1.1c0.2,0,0.4-0.8,0.6-2.1
			l0.7,0.5c-0.2,0.7-0.3,1.3-0.5,1.8c-0.2,0.6-0.5,0.9-0.8,0.9c-0.5,0-1-0.4-1.5-1.2c-0.2-0.3-0.4-0.6-0.5-0.9
			c-0.8,0.7-1.6,1.3-2.5,1.6l-0.5-0.7c1-0.4,1.9-1,2.7-1.8c-0.2-0.5-0.3-1-0.4-1.6s-0.2-1.2-0.3-2l-1.5,0.3l-0.1-0.8l1.6-0.3
			c-0.1-1.1-0.1-2.2-0.1-3.5h0.9c0,1.2,0,2.3,0.1,3.3L390.4,98z M388.6,95.5c0.6,0.6,1,1.2,1.3,1.6l-0.7,0.5c-0.3-0.5-0.7-1-1.3-1.6
			L388.6,95.5z"/>
		<path class="st9" d="M392.8,95.9h9.3v0.8h-2v3.2h2.6v0.8h-2.6v5.3h-0.9v-5.3h-3.5c-0.1,1.2-0.3,2.3-0.7,3.1
			c-0.5,1-1.2,1.8-2.3,2.3l-0.5-0.7c1-0.6,1.7-1.3,2-2.2c0.2-0.7,0.4-1.5,0.5-2.5h-2.8v-0.8h2.8v-0.4v-2.8h-2.2v-0.8H392.8z
			 M395.8,96.7v3v0.2h3.4v-3.2H395.8z"/>
		<path class="st9" d="M406.2,95.2c-0.1,0.8-0.2,1.6-0.3,2.3h1.8V98c-0.1,1.9-0.4,3.6-1,5c0.6,0.6,1.1,1.2,1.4,1.6l-0.6,0.7
			c-0.4-0.5-0.8-1-1.2-1.4c-0.5,0.9-1.1,1.7-1.8,2.4l-0.5-0.7c0.7-0.6,1.3-1.4,1.7-2.3c-0.4-0.4-0.9-0.9-1.5-1.5
			c0.3-1,0.5-2.2,0.8-3.4h-1v-0.8h1.1c0.1-0.8,0.2-1.5,0.3-2.3L406.2,95.2z M406.9,98.3h-1.1c-0.2,1.3-0.5,2.3-0.7,3.1
			c0.4,0.3,0.7,0.6,1,0.9C406.5,101.2,406.8,99.8,406.9,98.3z M408.1,99.2c0.7-0.4,1.6-1.7,2.6-4.1l0.8,0.3
			c-0.7,1.5-1.4,2.8-2.2,3.7c1.4-0.1,2.7-0.2,3.9-0.4c-0.4-0.7-0.7-1.3-1-1.8l0.7-0.4c0.7,1.1,1.3,2.2,1.9,3.5l-0.8,0.4
			c-0.2-0.6-0.4-0.9-0.4-0.9c-1.6,0.2-3.4,0.4-5.3,0.5L408.1,99.2z M414,101.1v5.1h-0.8v-0.7h-3.7v0.7h-0.8v-5.1H414z M409.5,104.6
			h3.7v-2.8h-3.7V104.6z"/>
	</g>
</g>
<g transform="translate(0)">
	<g class="st1">
		<path class="st9" d="M485.1,101.9c-0.5,1.5-1,2.9-1.5,4.1l-0.8-0.3c0.6-1.3,1.1-2.7,1.5-4.1L485.1,101.9z M483.4,98.4
			c0.7,0.6,1.3,1.1,1.8,1.7l-0.6,0.6c-0.5-0.6-1-1.1-1.8-1.7L483.4,98.4z M483.5,95.3c0.7,0.5,1.2,1.1,1.7,1.6l-0.6,0.6
			c-0.4-0.5-1-1-1.7-1.6L483.5,95.3z M486.2,97.9h-1v-0.8h1.7c-0.1-0.6-0.3-1.2-0.5-1.8l0.9-0.2c0.2,0.6,0.4,1.2,0.5,2h1.4v0.8h-2.1
			v0.8c0,0.2,0,0.5,0,0.9h1.9c0,2.8-0.1,4.5-0.2,5.2c-0.1,0.8-0.4,1.1-1.1,1.1h-0.9l-0.2-0.7c0.5,0,0.8,0,1,0s0.4-0.2,0.4-0.7
			c0.1-0.4,0.1-1.8,0.1-4H487c-0.2,2.5-0.7,4.4-1.6,5.7l-0.6-0.6c1-1.4,1.5-3.7,1.5-6.9L486.2,97.9L486.2,97.9z M490.5,97.7
			c-0.3,0.8-0.7,1.4-1.2,1.9l-0.5-0.7c0.7-1,1.2-2.3,1.5-3.9l0.9,0.1c-0.1,0.5-0.2,1.1-0.4,1.6h3v0.9L490.5,97.7L490.5,97.7z
			 M490.1,99h3.3v0.8c-0.4,0.5-0.8,1-1.2,1.4v0.7h1.7v0.8h-1.7v2.1c0,0.8-0.3,1.1-0.9,1.1h-1.1l-0.2-0.8c0.4,0,0.7,0,1,0
			c0.2,0,0.4-0.2,0.4-0.7v-1.9h-1.8v-0.8h1.8v-0.9c0.5-0.5,0.9-1,1.1-1.3h-2.3L490.1,99L490.1,99z"/>
		<path class="st9" d="M495.8,98.3c0.7,0.8,1.4,1.5,1.9,2.2c0.4-1,0.6-2.2,0.8-3.4h-3.2v-0.9h4V97c-0.1,1.6-0.4,3-1,4.2
			c0.6,0.7,1,1.4,1.4,2.1l-0.6,0.6c-0.4-0.6-0.8-1.2-1.2-1.8c-0.7,1.2-1.6,2.3-2.6,3.2l-0.6-0.7c1.1-0.9,2-2,2.6-3.3
			c-0.7-0.9-1.4-1.7-2.1-2.5L495.8,98.3z M505.2,98l0.1,0.8l-3.3,0.5c0,0.5,0.1,1,0.2,1.6c0.1,0.5,0.2,1,0.3,1.5
			c0.6-0.7,1.2-1.6,1.7-2.6l0.7,0.5c-0.7,1.2-1.4,2.3-2.1,3.1c0.1,0.3,0.2,0.5,0.3,0.6c0.4,0.7,0.7,1.1,1,1.1c0.2,0,0.4-0.8,0.6-2.1
			l0.7,0.5c-0.2,0.7-0.3,1.3-0.5,1.8c-0.2,0.6-0.5,0.9-0.8,0.9c-0.5,0-1-0.4-1.5-1.2c-0.2-0.3-0.4-0.6-0.5-0.9
			c-0.8,0.7-1.6,1.3-2.5,1.6l-0.5-0.7c1-0.4,1.9-1,2.7-1.8c-0.2-0.5-0.3-1-0.4-1.6s-0.2-1.2-0.3-2l-1.5,0.3l-0.1-0.8l1.6-0.3
			c-0.1-1.1-0.1-2.2-0.1-3.5h0.9c0,1.2,0,2.3,0.1,3.3L505.2,98z M503.5,95.5c0.6,0.6,1,1.2,1.3,1.6l-0.7,0.5c-0.3-0.5-0.7-1-1.3-1.6
			L503.5,95.5z"/>
		<path class="st9" d="M511.8,95.1h0.9v2.2h4.3v5.6h-0.9v-0.8h-3.4v4.1h-0.9v-4.1h-3.4v0.8h-0.9v-5.6h4.3L511.8,95.1L511.8,95.1z
			 M508.4,101.3h3.4v-3.2h-3.4V101.3z M512.7,101.3h3.4v-3.2h-3.4V101.3z"/>
	</g>
</g>
<g transform="translate(0)">
	<g class="st1">
		<path class="st9" d="M612.1,101.9c-0.5,1.5-1,2.9-1.5,4.1l-0.8-0.3c0.6-1.3,1.1-2.7,1.5-4.1L612.1,101.9z M610.4,98.4
			c0.7,0.6,1.3,1.1,1.8,1.7l-0.6,0.6c-0.5-0.6-1-1.1-1.8-1.7L610.4,98.4z M610.5,95.3c0.7,0.5,1.2,1.1,1.7,1.6l-0.6,0.6
			c-0.4-0.5-1-1-1.7-1.6L610.5,95.3z M613.2,97.9h-1v-0.8h1.7c-0.1-0.6-0.3-1.2-0.5-1.8l0.9-0.2c0.2,0.6,0.4,1.2,0.5,2h1.4v0.8h-2.1
			v0.8c0,0.2,0,0.5,0,0.9h1.9c0,2.8-0.1,4.5-0.2,5.2c-0.1,0.8-0.4,1.1-1.1,1.1h-0.9l-0.2-0.7c0.5,0,0.8,0,1,0s0.4-0.2,0.4-0.7
			c0.1-0.4,0.1-1.8,0.1-4H614c-0.2,2.5-0.7,4.4-1.6,5.7l-0.6-0.6c1-1.4,1.5-3.7,1.5-6.9v-0.8H613.2z M617.5,97.7
			c-0.3,0.8-0.7,1.4-1.2,1.9l-0.5-0.7c0.7-1,1.2-2.3,1.5-3.9l0.9,0.1c-0.1,0.5-0.2,1.1-0.4,1.6h3v0.9L617.5,97.7L617.5,97.7z
			 M617.1,99h3.3v0.8c-0.4,0.5-0.8,1-1.2,1.4v0.7h1.7v0.8h-1.7v2.1c0,0.8-0.3,1.1-0.9,1.1h-1.1l-0.2-0.8c0.4,0,0.7,0,1,0
			c0.2,0,0.4-0.2,0.4-0.7v-1.9h-1.8v-0.8h1.8v-0.9c0.5-0.5,0.9-1,1.1-1.3h-2.3L617.1,99L617.1,99z"/>
		<path class="st9" d="M622.8,98.3c0.7,0.8,1.4,1.5,1.9,2.2c0.4-1,0.6-2.2,0.8-3.4h-3.2v-0.9h4V97c-0.1,1.6-0.4,3-1,4.2
			c0.6,0.7,1,1.4,1.4,2.1l-0.6,0.6c-0.4-0.6-0.8-1.2-1.2-1.8c-0.7,1.2-1.6,2.3-2.6,3.2l-0.6-0.7c1.1-0.9,2-2,2.6-3.3
			c-0.7-0.9-1.4-1.7-2.1-2.5L622.8,98.3z M632.2,98l0.1,0.8l-3.3,0.5c0,0.5,0.1,1,0.2,1.6c0.1,0.5,0.2,1,0.3,1.5
			c0.6-0.7,1.2-1.6,1.7-2.6l0.7,0.5c-0.7,1.2-1.4,2.3-2.1,3.1c0.1,0.3,0.2,0.5,0.3,0.6c0.4,0.7,0.7,1.1,1,1.1c0.2,0,0.4-0.8,0.6-2.1
			l0.7,0.5c-0.2,0.7-0.3,1.3-0.5,1.8c-0.2,0.6-0.5,0.9-0.8,0.9c-0.5,0-1-0.4-1.5-1.2c-0.2-0.3-0.4-0.6-0.5-0.9
			c-0.8,0.7-1.6,1.3-2.5,1.6l-0.5-0.7c1-0.4,1.9-1,2.7-1.8c-0.2-0.5-0.3-1-0.4-1.6c-0.1-0.6-0.2-1.2-0.3-2l-1.5,0.3l-0.1-0.8
			l1.6-0.3c-0.1-1.1-0.1-2.2-0.1-3.5h0.9c0,1.2,0,2.3,0.1,3.3L632.2,98z M630.5,95.5c0.6,0.6,1,1.2,1.3,1.6l-0.7,0.5
			c-0.3-0.5-0.7-1-1.3-1.6L630.5,95.5z"/>
		<path class="st9" d="M636.8,95.4c-0.6,1.5-1.2,2.8-1.9,3.7c0.5-0.1,1.1-0.2,1.7-0.3l0.7-1.3l0.8,0.3c-1.1,2-2,3.5-2.7,4.3
			c0.9-0.2,1.8-0.4,2.7-0.7v0.8c-1.3,0.4-2.5,0.7-3.7,0.9l-0.2-0.8c0.2-0.1,0.3-0.2,0.4-0.3c0.5-0.5,1-1.3,1.7-2.4
			c-0.5,0.1-1.2,0.2-2.1,0.3l-0.2-0.8c0.1-0.1,0.3-0.2,0.4-0.3c0.7-1.1,1.2-2.4,1.7-3.8L636.8,95.4z M638.2,104.6
			c-1.2,0.4-2.6,0.8-4.2,1.1l-0.1-0.8c1.6-0.3,3-0.6,4.3-1.1V104.6z M638.1,96.7h2.9v-1.5h0.9v1.5h2.9v0.8h-2.9v1.8h2.5v0.8h-5.9
			v-0.8h2.5v-1.8h-2.9V96.7z M644,101.3v4.8h-0.8v-0.6h-3.4v0.6h-0.9v-4.8H644z M639.7,104.7h3.4v-2.6h-3.4V104.7z"/>
		<path class="st9" d="M646.1,96.4h4.7v-1.2h0.9v1.2h4.7v0.8h-4.7v1.2h3.8v3.4h-3c0.8,1.2,2.3,2.3,4.4,3.3l-0.6,0.7
			c-2.1-1.2-3.6-2.5-4.5-4l0,0v4.4h-0.9v-4.4l0,0c-0.9,1.6-2.4,3-4.5,4l-0.5-0.8c2-0.8,3.4-1.9,4.3-3.2h-3v-3.4h3.8v-1.2h-4.7v-0.8
			H646.1z M650.8,101v-1.8h-2.9v1.8H650.8z M654.6,101v-1.8h-2.9v1.8H654.6z"/>
	</g>
</g>
</svg>
