<?xml version="1.0" encoding="utf-8"?>
<!-- Generator: Adobe Illustrator 22.1.0, SVG Export Plug-In . SVG Version: 6.00 Build 0)  -->
<svg version="1.1" id="svgwrapper_svg" xmlns="http://www.w3.org/2000/svg" xmlns:xlink="http://www.w3.org/1999/xlink" x="0px"
	 y="0px" width="830px" height="463px" viewBox="0 0 830 463" style="enable-background:new 0 0 830 463;" xml:space="preserve">
<style type="text/css">
	.st0{fill:none;stroke:#BABABA;stroke-miterlimit:10;stroke-dasharray:6,4;}
	.st1{enable-background:new    ;}
	.st2{fill:#444444;}
	.st3{fill-opacity:0;}
	.st4{fill:none;stroke:#888888;}
	.st5{fill:#888888;}
	.st6{fill:none;stroke:#FF0000;stroke-width:15;stroke-opacity:0;}
	.st7{opacity:0.6;fill:#BBBBBB;enable-background:new    ;}
	.st8{fill:#FFFFFF;stroke:#E5E5E5;}
	.st9{fill:#878787;}
</style>
<path class="st0" d="M129.6,121.2h223v102h-223V121.2"/>
<g transform="translate(10 10)">
	<g class="st1">
		<path class="st2" d="M130.5,125.9h6c-0.3-0.7-0.6-1.3-1-1.8l1-0.4c0.4,0.6,0.7,1.3,1.1,2.1h5.2v1h-7.4l-0.1,2.5h5.8
			c0,2.8-0.1,4.5-0.3,5.3c-0.3,1.2-1,1.8-2.1,1.8c-0.3,0-0.8,0-1.6-0.1l-0.3-0.9c0.7,0,1.3,0,1.8,0c0.7,0,1.1-0.5,1.3-1.5
			c0.1-0.5,0.1-1.8,0.2-3.8h-4.9c-0.2,1.1-0.5,2.1-1,3.1c-0.7,1.2-1.6,2.3-2.9,3.3l-0.7-0.7c1.5-1.3,2.5-2.4,3-3.5s0.7-2.3,0.8-3.6
			c0-0.9,0.1-1.6,0.1-2h-3.9L130.5,125.9C130.6,125.9,130.5,125.9,130.5,125.9z"/>
		<path class="st2" d="M144.7,129.6h5.9v1h-2.5v3.6c0.9-0.2,1.9-0.4,3-0.7v1c-2,0.5-4.1,0.9-6.5,1.2l-0.2-1c0.7-0.1,1.6-0.2,2.7-0.4
			v-3.8h-2.5L144.7,129.6L144.7,129.6z M144.5,126.3h6.8c0-0.7-0.1-1.5-0.1-2.5h1c0,1,0,1.8,0.1,2.5h4.3v1h-4.3
			c0.2,2.3,0.5,4.3,1.1,5.9c0.6,1.5,1.1,2.3,1.6,2.3c0.3,0,0.6-0.8,0.9-2.4l0.9,0.5c-0.4,2-1,3-1.7,3.1c-1.2-0.1-2.3-1.6-3.1-4.7
			c-0.3-1.3-0.5-2.9-0.6-4.6h-6.9V126.3z M154.4,123.9c0.4,0.5,0.9,1.1,1.3,1.8l-0.8,0.4c-0.4-0.7-0.8-1.3-1.3-1.9L154.4,123.9z"/>
		<path class="st2" d="M162.6,125.3v10h-1.1v-8.6c-0.6,0.6-1.4,1.1-2.4,1.4V127c0.4-0.1,0.9-0.3,1.4-0.6c0.5-0.3,0.9-0.6,1.2-1
			L162.6,125.3L162.6,125.3z"/>
	</g>
</g>
<rect x="129.6" y="236.2" class="st3" width="223" height="102"/>
<path class="st0" d="M129.6,236.2h223v102h-223V236.2"/>
<g transform="translate(10 10)">
	<g class="st1">
		<path class="st2" d="M130.5,240.9h6c-0.3-0.7-0.6-1.3-1-1.8l1-0.4c0.4,0.6,0.7,1.3,1.1,2.1h5.2v1h-7.4l-0.1,2.5h5.8
			c0,2.8-0.1,4.5-0.3,5.3c-0.3,1.2-1,1.8-2.1,1.8c-0.3,0-0.8,0-1.6-0.1l-0.3-0.9c0.7,0,1.3,0,1.8,0c0.7,0,1.1-0.5,1.3-1.5
			c0.1-0.5,0.1-1.8,0.2-3.8h-4.9c-0.2,1.1-0.5,2.1-1,3.1c-0.7,1.2-1.6,2.3-2.9,3.3l-0.7-0.7c1.5-1.3,2.5-2.4,3-3.5s0.7-2.3,0.8-3.6
			c0-0.9,0.1-1.6,0.1-2h-3.9L130.5,240.9L130.5,240.9L130.5,240.9z"/>
		<path class="st2" d="M144.7,244.6h5.9v1h-2.5v3.6c0.9-0.2,1.9-0.4,3-0.7v1c-2,0.5-4.1,0.9-6.5,1.2l-0.2-1c0.7-0.1,1.6-0.2,2.7-0.4
			v-3.8h-2.5L144.7,244.6L144.7,244.6z M144.5,241.3h6.8c0-0.7-0.1-1.5-0.1-2.5h1c0,1,0,1.8,0.1,2.5h4.3v1h-4.3
			c0.2,2.3,0.5,4.3,1.1,5.9c0.6,1.5,1.1,2.3,1.6,2.3c0.3,0,0.6-0.8,0.9-2.4l0.9,0.5c-0.4,2-1,3-1.7,3.1c-1.2-0.1-2.3-1.6-3.1-4.7
			c-0.3-1.3-0.5-2.9-0.6-4.6h-6.9V241.3z M154.4,238.9c0.4,0.5,0.9,1.1,1.3,1.8l-0.8,0.4c-0.4-0.7-0.8-1.3-1.3-1.9L154.4,238.9z"/>
		<path class="st2" d="M164.2,240.9c0.6,0.5,0.9,1.2,0.9,2.1c0,0.9-0.3,1.6-1,2.4c-0.4,0.4-1.1,0.9-2.1,1.6c-1.3,0.8-2,1.6-2.2,2.3
			h5.3v1h-6.7c0-0.9,0.3-1.8,1-2.5c0.4-0.5,1.2-1.1,2.2-1.8c0.8-0.6,1.3-1,1.6-1.2c0.5-0.6,0.8-1.2,0.8-1.8s-0.2-1.1-0.5-1.4
			c-0.4-0.3-0.9-0.5-1.5-0.5c-0.7,0-1.2,0.2-1.6,0.7c-0.4,0.5-0.6,1.1-0.6,2h-1.1c0-1.1,0.3-2,0.9-2.7c0.6-0.7,1.4-1,2.4-1
			C162.9,240.1,163.6,240.3,164.2,240.9z"/>
	</g>
</g>
<path class="st0" d="M129.6,351.2h223v102h-223V351.2"/>
<g transform="translate(10 10)">
	<g class="st1">
		<path class="st2" d="M130.5,355.9h6c-0.3-0.7-0.6-1.3-1-1.8l1-0.4c0.4,0.6,0.7,1.3,1.1,2.1h5.2v1h-7.4l-0.1,2.5h5.8
			c0,2.8-0.1,4.5-0.3,5.3c-0.3,1.2-1,1.8-2.1,1.8c-0.3,0-0.8,0-1.6-0.1l-0.3-0.9c0.7,0,1.3,0,1.8,0c0.7,0,1.1-0.5,1.3-1.5
			c0.1-0.5,0.1-1.8,0.2-3.8h-4.9c-0.2,1.1-0.5,2.1-1,3.1c-0.7,1.2-1.6,2.3-2.9,3.3l-0.7-0.7c1.5-1.3,2.5-2.4,3-3.5s0.7-2.3,0.8-3.6
			c0-0.9,0.1-1.6,0.1-2h-3.9L130.5,355.9L130.5,355.9z"/>
		<path class="st2" d="M144.7,359.6h5.9v1h-2.5v3.6c0.9-0.2,1.9-0.4,3-0.7v1c-2,0.5-4.1,0.9-6.5,1.2l-0.2-1c0.7-0.1,1.6-0.2,2.7-0.4
			v-3.8h-2.5L144.7,359.6L144.7,359.6z M144.5,356.3h6.8c0-0.7-0.1-1.5-0.1-2.5h1c0,1,0,1.8,0.1,2.5h4.3v1h-4.3
			c0.2,2.3,0.5,4.3,1.1,5.9c0.6,1.5,1.1,2.3,1.6,2.3c0.3,0,0.6-0.8,0.9-2.4l0.9,0.5c-0.4,2-1,3-1.7,3.1c-1.2-0.1-2.3-1.6-3.1-4.7
			c-0.3-1.3-0.5-2.9-0.6-4.6h-6.9V356.3z M154.4,353.9c0.4,0.5,0.9,1.1,1.3,1.8l-0.8,0.4c-0.4-0.7-0.8-1.3-1.3-1.9L154.4,353.9z"/>
		<path class="st2" d="M164.2,355.8c0.6,0.5,0.9,1.2,0.9,2c0,1.1-0.5,1.9-1.6,2.2c0.6,0.2,1,0.5,1.3,0.9s0.5,0.9,0.5,1.5
			c0,0.9-0.3,1.6-1,2.2c-0.6,0.6-1.5,0.9-2.5,0.9c-0.9,0-1.7-0.2-2.3-0.7c-0.7-0.6-1.1-1.4-1.2-2.6h1.2c0,0.8,0.3,1.4,0.8,1.8
			c0.4,0.3,1,0.5,1.6,0.5c0.7,0,1.3-0.2,1.7-0.6s0.6-0.9,0.6-1.5s-0.2-1.1-0.6-1.4s-0.9-0.5-1.6-0.5h-0.8v-0.9h0.8
			c0.7,0,1.2-0.1,1.5-0.4c0.4-0.3,0.5-0.7,0.5-1.3c0-0.6-0.2-1-0.5-1.3c-0.4-0.3-0.9-0.5-1.5-0.5c-0.7,0-1.2,0.2-1.6,0.5
			c-0.4,0.4-0.6,0.9-0.7,1.6h-1.1c0.1-1,0.4-1.7,1.1-2.3c0.6-0.5,1.3-0.8,2.3-0.8C162.9,355.1,163.6,355.3,164.2,355.8z"/>
	</g>
</g>
<g id="DashRectBlueGroup26_1_" transform="translate(786.57 62)">
	<path class="st0" d="M-422,58.7h111v334h-111V58.7"/>
</g>
<rect x="481.4" y="120.2" class="st3" width="120" height="333"/>
<path class="st0" d="M481.4,120.2h120v333h-120L481.4,120.2"/>
<g id="DashRectBlueGroup34_1_" transform="translate(1157.57 62)">
	<path class="st0" d="M-551.2,58.6h111v334h-111V58.6"/>
</g>
<g id="middlegroup_1_" transform="translate(0)">
	<g id="Link18_1_" transform="translate(0)">
		<path class="st4" d="M137.1,42.9h-20V286l0,0h11"/>
		<g transform="translate(0.5)">
			<polygon class="st5" points="123.1,290.5 129.1,286 123.1,281.5 			"/>
		</g>
		<path class="st6" d="M112.7,286h4.4"/>
		<path class="st6" d="M117.1,286h11"/>
	</g>
</g>
<g id="RectEndPoint1_1_" transform="translate(141 98)">
	<rect x="-1.4" y="61.2" class="st7" width="97" height="50"/>
	<rect x="-3.4" y="59.2" class="st8" width="97" height="50"/>
	<g transform="translate(20 9)">
		<g class="st1">
			<path class="st2" d="M1.6,68.9C2.8,70.2,4,71.6,5.1,73l-0.7,0.7c-1.2-1.6-2.3-2.9-3.2-3.8c-1.1,1.6-2.3,3-3.6,4.2L-3,73.3
				c1.4-1.3,2.6-2.7,3.7-4.4H1.6L1.6,68.9z M2.6,74.2h-3V80c0,0.3,0.2,0.5,0.5,0.5h2.7c0.5,0,0.8-0.1,0.9-0.3
				c0.1-0.3,0.2-0.8,0.3-1.6l1,0.3c-0.1,1.2-0.3,1.9-0.5,2.2c-0.2,0.2-0.7,0.3-1.3,0.3h-3.3c-0.8,0-1.2-0.4-1.2-1.1v-7h5V77
				c0,0.8-0.4,1.1-1.2,1.2c-0.5,0-1,0-1.5,0l-0.3-1c0.5,0.1,1,0.1,1.4,0.1s0.6-0.2,0.6-0.6L2.6,74.2L2.6,74.2z M6.1,81.5l-0.2-1
				c0.8,0,1.5,0.1,2.1,0.1c0.3,0,0.5-0.2,0.5-0.6V68.9h1v11.5c0,0.8-0.4,1.2-1.1,1.2L6.1,81.5L6.1,81.5z M5.9,70h1v8.7h-1V70z"/>
			<path class="st2" d="M23.9,80.3l-0.2,1h-4.1c-2.5,0-4.3-0.4-5.4-1.1c-0.2-0.2-0.4-0.3-0.5-0.4c-0.4,0.6-1,1.2-1.7,1.7l-0.7-0.9
				c0.6-0.5,1.2-1,1.7-1.7c-0.6-0.8-1-1.8-1.3-3l0.8-0.3c0.3,1,0.6,1.8,1,2.4c0.5-1,0.8-2.2,0.8-3.5h-2.6v-0.8
				c0.8-1.1,1.6-2.2,2.2-3.4h-2.3v-1H15v0.8c-0.6,1.2-1.3,2.3-2.1,3.3h2.2V74c-0.1,1.8-0.4,3.4-1.1,4.7c0.2,0.2,0.5,0.4,0.7,0.6
				c0.9,0.5,2.4,0.8,4.3,0.8C20.5,80.4,22.1,80.4,23.9,80.3z M22.8,74.6h-3v1.1h3.3v0.8h-3.3v1.2h3.7v0.9h-3.7V80h-1v-1.4h-3.2v-0.9
				h3.2v-1.2h-2.7v-0.8h2.7v-1.1h-2.4v-0.8h2.4v-1.1h-3.1v-0.8h3.1v-1.1h-2.4V70h2.4v-1h1v1h3v1.9h0.9v0.8h-0.9V74.6z M19.8,70.6
				v1.1h2v-1.1H19.8z M19.8,72.6v1.1h2v-1.1H19.8z"/>
			<path class="st2" d="M27.7,73.5v1.2c0,2.7-0.6,5-1.9,6.9l-0.7-0.7c1.1-1.6,1.6-3.7,1.6-6.3v-4.9h4.7c-0.1-0.4-0.3-0.8-0.4-1.1
				l1.1-0.2c0.2,0.5,0.3,0.9,0.4,1.2H37v3.6h-9.3C27.6,73.2,27.6,73.5,27.7,73.5z M28.4,76.1v-1h4c-0.2-0.4-0.3-0.8-0.4-1.1l1.1-0.2
				c0.1,0.4,0.3,0.8,0.4,1.2h4.4v1h-6.3c0,0.5-0.1,0.9-0.2,1.3h5.3c-0.1,1.9-0.1,3-0.3,3.3c-0.1,0.3-0.4,0.5-0.7,0.6
				c-0.4,0.1-1.1,0.2-2.3,0.2h-0.3l-0.3-0.9c0.4,0,0.6,0,0.8,0c0.7,0,1.2,0,1.5-0.1c0.2-0.1,0.3-0.2,0.4-0.4c0-0.2,0.1-0.8,0.2-1.8
				h-4.5c-0.6,1.4-1.6,2.5-3.1,3.3l-0.5-0.9c1.9-0.9,2.9-2.5,3-4.7h-2.2C28.4,75.9,28.4,76.1,28.4,76.1z M36,70.8h-8.3v1.8H36V70.8z
				"/>
			<path class="st2" d="M40,71.1h1v10.5h-1V71.1z M42,68.7c0.7,0.8,1.2,1.6,1.7,2.5l-0.9,0.5c-0.5-1-1.1-1.9-1.7-2.6L42,68.7z
				 M42.9,72.6h5.3v6.5h-5.3V72.6z M43.8,75.4h3.4v-1.9h-3.4V75.4z M47.3,78.2v-1.9h-3.4v1.9H47.3z M48.6,81.5l-0.3-0.9h1.2
				c0.4,0,0.6-0.3,0.6-0.9v-9.3h-5.4v-0.9h6.4V80c0,1-0.5,1.5-1.4,1.5H48.6z"/>
		</g>
	</g>
</g>
<g id="RectEndPoint5_1_" transform="translate(249 98)">
	<rect x="-1.4" y="61.2" class="st7" width="97.5" height="50"/>
	<rect x="-3.4" y="59.2" class="st8" width="97.5" height="50"/>
	<g transform="translate(20 9)">
		<g class="st1">
			<path class="st2" d="M-3.1,66.6h1.9v-2.7h1v2.7h1.7v1h-1.7v0.8c0.6,0.6,1.2,1.5,2,2.5l-0.6,0.9c-0.6-1-1-1.8-1.4-2.4v7.3h-1v-7
				c-0.4,1.3-1,2.6-1.8,3.7l-0.4-1.1c1-1.4,1.7-2.9,2.2-4.7H-3L-3.1,66.6L-3.1,66.6z M3.2,70.3v4.9C4,75,4.8,74.7,5.7,74.3l0.2,0.9
				c-1,0.4-2.3,0.8-3.8,1.2l-0.2-0.9c0.2-0.1,0.4-0.2,0.4-0.4V64.4h6.1v6H5.8c0.2,0.9,0.5,1.7,0.9,2.3c0.7-0.4,1.3-0.9,2-1.6
				l0.6,0.7c-0.6,0.7-1.3,1.3-2.1,1.7c0.7,0.9,1.5,1.6,2.5,2.2l-0.6,0.9C6.8,75.1,5.4,73,5,70.4L3.2,70.3L3.2,70.3z M7.4,66.9v-1.7
				H3.3v1.7H7.4z M3.2,67.8v1.6h4.1v-1.6H3.2z"/>
			<path class="st2" d="M11.2,76.5l-0.2-1c0.4,0,0.8,0.1,1.1,0.1c0.4,0,0.5-0.2,0.5-0.6v-3.4c-0.7,0.2-1.2,0.4-1.7,0.6l-0.3-1
				c0.6-0.1,1.3-0.3,1.9-0.6v-3.2h-1.7v-1h1.7v-2.6h1v2.6h1.3v1h-1.2v2.8c0.4-0.2,0.9-0.4,1.3-0.6v1c-0.3,0.1-0.7,0.4-1.3,0.6v4.1
				c0,0.8-0.4,1.2-1.2,1.2H11.2z M16.6,70.3c-0.2,2.4-0.7,4.5-1.6,6.3l-0.8-0.7c1-1.8,1.5-4.2,1.5-7.2v-4.4h7.4v3.4h-2.6v1.7h3v0.9
				h-3V72h2.4v4.6H22V76h-3.8v0.7h-0.9v-4.6h2.3v-1.7L16.6,70.3L16.6,70.3z M19.4,67.8h-2.8v1.7h2.8V67.8z M22.1,65.3h-5.5v1.6H22
				L22.1,65.3L22.1,65.3z M18,75.1h3.8V73H18V75.1z"/>
			<path class="st2" d="M27.2,68.5v1.2c0,2.7-0.6,5-1.9,6.9L24.6,76c1.1-1.6,1.6-3.7,1.6-6.3v-4.9h4.7c-0.1-0.4-0.3-0.8-0.4-1.1
				l1.1-0.2c0.2,0.5,0.3,0.9,0.4,1.2h4.5v3.6h-9.3C27.1,68.3,27.1,68.5,27.2,68.5z M27.9,71.1v-1h4c-0.2-0.4-0.3-0.8-0.4-1.1
				l1.1-0.2c0.1,0.4,0.3,0.8,0.4,1.2h4.4v1h-6.2c0,0.5-0.1,0.9-0.2,1.3h5.3c-0.1,1.9-0.1,3-0.3,3.3c-0.1,0.3-0.4,0.5-0.7,0.6
				c-0.4,0.1-1.1,0.2-2.3,0.2h-0.4l-0.3-0.9c0.4,0,0.6,0,0.8,0c0.7,0,1.2,0,1.5-0.1c0.2-0.1,0.3-0.2,0.4-0.4c0-0.2,0.1-0.8,0.2-1.8
				h-4.6c-0.6,1.4-1.6,2.5-3.1,3.3L27,75.6c1.9-0.9,2.9-2.5,3-4.7h-2.1V71.1z M35.5,65.8h-8.3v1.8h8.3V65.8z"/>
			<path class="st2" d="M39.5,66.1h1v10.5h-1V66.1z M41.5,63.7c0.7,0.8,1.2,1.6,1.7,2.5l-0.9,0.5c-0.5-1-1.1-1.9-1.7-2.6L41.5,63.7z
				 M42.4,67.6h5.3v6.5h-5.3V67.6z M43.3,70.4h3.4v-1.9h-3.4V70.4z M46.8,73.2v-1.9h-3.4v1.9H46.8z M48.1,76.5l-0.3-0.9H49
				c0.4,0,0.6-0.3,0.6-0.9v-9.3h-5.4v-0.9h6.4V75c0,1-0.5,1.5-1.4,1.5H48.1z"/>
			<path class="st2" d="M-7,87.1h-3.2v-1H2.4v1H-6l-0.5,1.6h6.8c-0.1,2.2-0.3,3.6-0.6,4s-1,0.6-1.9,0.6c-0.7,0-1.3,0-1.9-0.1
				l-0.3-0.9c0.7,0.1,1.4,0.1,2,0.1c0.8,0,1.2-0.2,1.4-0.5s0.3-1.1,0.4-2.4h-7L-7,87.1z M-8,81.1h8.2v3.8H-8V81.1z M-0.8,84v-2h-6.1
				v2H-0.8z"/>
			<path class="st2" d="M6.1,80.7h1v2.4H10c0,4.6-0.1,7.4-0.2,8.5c-0.1,1.2-0.8,1.7-2.1,1.7l-1.1-0.1l-0.3-0.9c0.6,0,1,0.1,1.2,0.1
				c0.7,0,1.2-0.4,1.3-1.2C8.9,90.4,8.9,88,9,84.1H7.1v0.3c0,4.2-1,7.3-2.7,9.2l-0.8-0.7c1.7-1.7,2.5-4.6,2.5-8.5v-0.3H3.9v-1h2.2
				C6.1,83.1,6.1,80.7,6.1,80.7z M15.8,82.4v10.9h-1v-0.9h-2.5v0.9h-1V82.4H15.8z M12.3,91.3h2.5v-8h-2.5V91.3z"/>
			<path class="st2" d="M21.2,81.1l0.8-0.5c1.2,0.9,2.3,2.4,3.2,4.7c1.3,3.4,3.1,5.7,5.3,7.1l-0.6,0.8c-2.3-1.4-4.1-3.9-5.6-7.6
				c-0.1-0.3-0.2-0.5-0.2-0.6c-0.9,3.6-2.9,6.3-5.8,8.2l-0.6-0.9c3-2,4.9-4.8,5.8-8.5C22.8,82.7,22.1,81.8,21.2,81.1z"/>
			<path class="st2" d="M34.2,85.3v1.2c0,2.7-0.6,5-1.9,6.9l-0.7-0.7c1.1-1.6,1.6-3.7,1.6-6.3v-4.9h4.7c-0.1-0.4-0.3-0.8-0.4-1.1
				l1.1-0.2c0.2,0.5,0.3,0.9,0.4,1.2h4.5V85h-9.3C34.1,85,34.1,85.3,34.2,85.3z M34.9,87.9v-1h4c-0.2-0.4-0.3-0.8-0.4-1.1l1.1-0.2
				c0.1,0.4,0.3,0.8,0.4,1.2h4.4v1h-6.2c0,0.5-0.1,0.9-0.2,1.3h5.3c-0.1,1.9-0.1,3-0.3,3.3c-0.1,0.3-0.4,0.5-0.7,0.6
				c-0.4,0.1-1.1,0.2-2.3,0.2h-0.4l-0.3-0.9c0.4,0,0.6,0,0.8,0c0.7,0,1.2,0,1.5-0.1c0.2-0.1,0.3-0.2,0.4-0.4c0-0.2,0.1-0.8,0.2-1.8
				h-4.6c-0.6,1.4-1.6,2.5-3.1,3.3L34,92.4c1.9-0.9,2.9-2.5,3-4.7h-2.1V87.9z M42.5,82.6h-8.3v1.8h8.3V82.6z"/>
			<path class="st2" d="M46.5,82.9h1v10.5h-1V82.9z M48.5,80.5c0.7,0.8,1.2,1.6,1.7,2.5l-0.9,0.5c-0.5-1-1.1-1.9-1.7-2.6L48.5,80.5z
				 M49.4,84.4h5.3v6.5h-5.3V84.4z M50.3,87.2h3.4v-1.9h-3.4V87.2z M53.8,90v-1.9h-3.4V90H53.8z M55.1,93.3l-0.3-0.9H56
				c0.4,0,0.6-0.3,0.6-0.9v-9.3h-5.4v-0.9h6.4v10.5c0,1-0.5,1.5-1.4,1.5C56.2,93.3,55.1,93.3,55.1,93.3z"/>
		</g>
	</g>
</g>
<g id="RectEndPoint7_1_" transform="translate(141 211)">
	<rect x="-1.4" y="61.2" class="st7" width="98" height="50"/>
	<rect x="-3.4" y="59.2" class="st8" width="98" height="50"/>
	<g transform="translate(20 9)">
		<g class="st1">
			<path class="st2" d="M-0.6,76c-0.6,0.6-1.1,1.1-1.7,1.5l-0.6-0.8c1.7-1.4,3.1-3.1,4.1-5h-3.6v-1h4.1c0.3-0.7,0.6-1.4,0.7-2l1,0.1
				c-0.2,0.7-0.4,1.4-0.7,1.9h7v1H2.2c-0.5,1.1-1.2,2.1-2,3.1v6.9h-1V76H-0.6z M1.6,75.3h3.2v-2.6h1v2.6h3.3v1H5.8v3.9h4v1H1v-1h3.8
				v-3.9H1.6V75.3z"/>
			<path class="st2" d="M14.6,69.1c-0.7,1.8-1.4,3.3-2.2,4.4c0.5,0,1.2-0.1,1.9-0.2l0.8-1.6L16,72c-1.2,2.3-2.2,4-3.1,5
				c1-0.2,2-0.5,3-0.8v0.9c-1.5,0.5-2.9,0.8-4.2,1l-0.3-0.9c0.2-0.1,0.3-0.2,0.5-0.3c0.5-0.5,1.1-1.5,1.9-2.8
				c-0.5,0.1-1.3,0.2-2.3,0.3l-0.2-0.9c0.1-0.1,0.3-0.2,0.4-0.4c0.8-1.3,1.4-2.8,2-4.4L14.6,69.1z M16.2,79.8c-1.4,0.5-3,1-4.7,1.3
				l-0.1-1c1.8-0.3,3.4-0.7,4.8-1.3V79.8z M23,71.3l0.1,0.9l-3.6,0.5c0,0.7,0.1,1.3,0.1,1.9l3.7-0.6l0.2,1l-3.8,0.6
				c0,0.2,0.1,0.5,0.1,0.7c0.1,0.7,0.3,1.3,0.5,1.9c0.8-0.7,1.4-1.5,2-2.4l0.8,0.5c-0.8,1.1-1.6,2-2.4,2.8l0.2,0.3
				c0.5,0.7,0.9,1,1.2,1c0.4,0,0.7-0.8,0.9-2.3l0.9,0.6c-0.4,1.9-1,2.8-1.7,2.8s-1.3-0.5-1.9-1.3c-0.1-0.2-0.2-0.4-0.3-0.5
				c-1,0.8-2.2,1.3-3.3,1.7L16,80.6c1.3-0.4,2.5-1,3.5-1.8c-0.3-0.6-0.5-1.3-0.6-2c-0.1-0.3-0.1-0.6-0.2-1.1l-2.5,0.4l-0.1-1
				l2.5-0.4c-0.1-0.6-0.1-1.2-0.1-1.9l-2,0.3l-0.2-0.9l2.1-0.3v-3.1h1v3L23,71.3z M21,68.8c0.7,0.7,1.3,1.3,1.7,1.7L21.9,71
				c-0.4-0.5-0.9-1.1-1.7-1.8L21,68.8z"/>
			<path class="st2" d="M27.2,70.6v9.6h10.6v1H26.2V69.6h11.3v1h-3.3v5.7c0,0.4,0.2,0.6,0.6,0.6H36c0.3,0,0.4-0.1,0.5-0.3
				c0.1-0.2,0.2-0.9,0.3-1.9l1,0.3c-0.1,1.3-0.3,2.2-0.5,2.5s-0.6,0.4-1.1,0.4h-1.7c-0.8,0-1.2-0.4-1.2-1.3v-5.9h-2
				c-0.1,3.7-1,6.3-2.7,7.7l-0.8-0.7c1.6-1.2,2.5-3.6,2.6-7.1C30.4,70.6,27.2,70.6,27.2,70.6z"/>
			<path class="st2" d="M39.3,69.4h6.4v1h-1.8V72h1.6v9.6h-0.9v-0.8h-4v0.8h-0.9V72h1.5v-1.6h-1.9C39.3,70.4,39.3,69.4,39.3,69.4z
				 M41.4,72.9h-0.8v4.7h4v-1.2h-0.7c-0.6,0-0.9-0.3-0.9-1v-2.5h-0.9v0.9c0,1.5-0.3,2.6-0.9,3.3l-0.5-0.5c0.5-0.6,0.8-1.5,0.8-2.8
				L41.4,72.9L41.4,72.9z M40.6,79.9h4v-1.4h-4V79.9z M42.1,72H43v-1.6h-0.9V72z M44.5,75.6v-2.7h-0.9v2.3c0,0.2,0.1,0.4,0.3,0.4
				C43.9,75.6,44.5,75.6,44.5,75.6z M52,77.9c-0.1,1.5-0.3,2.4-0.5,2.8s-0.7,0.6-1.3,0.6h-2.8c-0.7,0-1-0.4-1-1.3v-5.9h3.8v-3.7
				h-4.1v-1h5v5.7h-3.8v4.6c0,0.5,0.1,0.7,0.4,0.7h2.2c0.4,0,0.6-0.2,0.8-0.6c0.1-0.4,0.2-1.1,0.2-2.3L52,77.9z"/>
		</g>
	</g>
</g>
<g id="RectEndPoint10_1_" transform="translate(141 326)">
	<rect x="-1.4" y="61.2" class="st7" width="100" height="50"/>
	<rect x="-3.4" y="59.2" class="st8" width="100" height="50"/>
	<g transform="translate(20 9)">
		<g class="st1">
			<path class="st2" d="M-1,63.6c0,1.4-0.2,2.7-0.5,4l-0.8-0.2c0.3-1.2,0.5-2.5,0.5-3.8L-1,63.6z M-0.3,60.9h1v12.7h-1V60.9z
				 M1.7,63.2c0.4,0.9,0.7,1.9,1,3.1l-0.8,0.2c-0.3-1.1-0.6-2.1-1-3.1L1.7,63.2z M2.7,63h2.5v-2.1h1V63h3v4.2h1.1v1H6.4
				c0.9,1.9,2.3,3.5,4.1,4.6l-0.7,0.8c-1.9-1.3-3.3-3-4.2-5c-0.6,2.2-1.9,3.9-3.8,4.9l-0.6-0.8c1.8-1,3-2.5,3.5-4.6H1.9v-1H5
				c0.1-0.7,0.2-1.4,0.2-2v-1.2H2.6C2.7,63.9,2.7,63,2.7,63z M6.2,63.9v1c0,0.8-0.1,1.5-0.2,2.3h2.2v-3.3
				C8.2,63.9,6.2,63.9,6.2,63.9z"/>
			<path class="st2" d="M21,73.4c-0.5,0-1.3,0-2.5,0c-0.9,0-1.6-0.1-2.2-0.3c-0.5-0.2-1-0.5-1.5-1c-0.2-0.2-0.4-0.3-0.5-0.3
				c-0.3,0-0.9,0.6-1.6,1.9L11.9,73c0.7-1.2,1.4-1.9,1.9-2.1v-4.3h-2v-0.9h2.9v5.2c0.1,0.1,0.2,0.2,0.4,0.3c0.3,0.4,0.7,0.7,1.1,0.9
				c0.4,0.2,1.1,0.3,1.9,0.3c1,0,1.9,0,2.8,0c0.4,0,1.1,0,2,0c0.8,0,1.3,0,1.6-0.1l-0.2,1L21,73.4L21,73.4z M12.9,61
				c1,0.7,1.8,1.5,2.4,2.2l-0.7,0.7c-0.6-0.7-1.4-1.5-2.4-2.2L12.9,61z M16.1,62h3.6v-1.1h0.9V62h3.5v0.9h-3.5V64h3v3.6h-3v4.3h-1
				V68c-0.7,1.3-1.8,2.3-3.3,3.2l-0.6-0.8c1.5-0.8,2.7-1.7,3.3-2.8h-2.4V64h3v-1.2H16L16.1,62L16.1,62z M19.6,66.7v-1.8h-2.1v1.8
				H19.6z M22.7,66.7v-1.8h-2.1v1.8H22.7z M21.7,68.1c1,0.8,1.8,1.5,2.5,2.4l-0.7,0.7c-0.6-0.7-1.4-1.5-2.4-2.4L21.7,68.1z"/>
			<path class="st2" d="M28.1,60.9h1v2.4H32c0,4.6-0.1,7.4-0.2,8.5c-0.1,1.2-0.8,1.7-2.1,1.7l-1.1-0.1l-0.3-0.9c0.6,0,1,0.1,1.2,0.1
				c0.7,0,1.2-0.4,1.3-1.2c0.1-0.8,0.1-3.2,0.2-7.1h-1.9v0.3c0,4.2-1,7.3-2.7,9.2L25.6,73c1.7-1.7,2.5-4.6,2.5-8.5v-0.3h-2.2v-1h2.2
				V60.9z M37.8,62.6v10.9h-1v-0.9h-2.5v0.9h-1V62.6H37.8z M34.3,71.5h2.5v-8h-2.5V71.5z"/>
			<path class="st2" d="M42.2,65.5v1.2c0,2.7-0.6,5-1.9,6.9L39.6,73c1.1-1.6,1.6-3.7,1.6-6.3v-4.9h4.7c-0.1-0.4-0.3-0.8-0.4-1.1
				l1.1-0.2c0.2,0.5,0.3,0.9,0.4,1.2h4.5v3.6h-9.3C42.2,65.3,42.2,65.5,42.2,65.5z M42.9,68.1v-1h4c-0.2-0.4-0.3-0.8-0.4-1.1
				l1.1-0.2c0.1,0.4,0.3,0.8,0.4,1.2h4.4v1h-6.2c0,0.5-0.1,0.9-0.2,1.3h5.3c-0.1,1.9-0.1,3-0.3,3.3c-0.1,0.3-0.4,0.5-0.7,0.6
				c-0.4,0.1-1.1,0.2-2.3,0.2h-0.4l-0.3-0.9c0.4,0,0.6,0,0.8,0c0.7,0,1.2,0,1.5-0.1c0.2-0.1,0.3-0.2,0.4-0.4c0-0.2,0.1-0.8,0.2-1.8
				h-4.6c-0.6,1.4-1.6,2.5-3.1,3.3L42,72.6c1.9-0.9,2.9-2.5,3-4.7h-2.1V68.1z M50.5,62.8h-8.3v1.8h8.3V62.8z"/>
			<path class="st2" d="M-4,77.5c-0.6,0.9-1,1.9-1.3,2.9c-0.4,1.2-0.6,2.4-0.6,3.6s0.2,2.4,0.6,3.6c0.3,1,0.8,1.9,1.3,2.9h-1
				c-0.6-0.9-1.1-1.8-1.4-2.9C-6.8,86.4-7,85.2-7,84c0-1.3,0.2-2.5,0.6-3.7c0.4-1,0.8-2,1.4-2.9L-4,77.5L-4,77.5z"/>
			<path class="st2" d="M0.2,82.3v1.2c0,2.7-0.6,5-1.9,6.9l-0.7-0.7c1.1-1.6,1.6-3.7,1.6-6.3v-4.9h4.7c-0.1-0.4-0.3-0.8-0.4-1.1
				l1.1-0.2c0.2,0.5,0.3,0.9,0.4,1.2h4.5V82H0.1C0.1,82,0.1,82.3,0.2,82.3z M0.9,84.9v-1h4c-0.2-0.4-0.3-0.8-0.4-1.1l1.1-0.2
				C5.7,83,5.9,83.4,6,83.8h4.4v1H4.2c0,0.5-0.1,0.9-0.2,1.3h5.3c-0.1,1.9-0.1,3-0.3,3.3c-0.1,0.3-0.4,0.5-0.7,0.6
				c-0.4,0.1-1.1,0.2-2.3,0.2H5.7l-0.3-0.9c0.4,0,0.6,0,0.8,0c0.7,0,1.2,0,1.5-0.1C7.9,89.1,8,89,8.1,88.8c0-0.2,0.1-0.8,0.2-1.8
				H3.8c-0.6,1.4-1.6,2.5-3.1,3.3l-0.5-0.9c1.9-0.9,2.9-2.5,3-4.7H0.9V84.9z M8.5,79.6H0.2v1.8h8.3V79.6z"/>
			<path class="st2" d="M12.5,79.9h1v10.5h-1V79.9z M14.5,77.5c0.7,0.8,1.2,1.6,1.7,2.5l-0.9,0.5c-0.5-1-1.1-1.9-1.7-2.6L14.5,77.5z
				 M15.4,81.4h5.3v6.5h-5.3C15.4,87.9,15.4,81.4,15.4,81.4z M16.3,84.2h3.4v-1.9h-3.4V84.2z M19.8,87v-1.9h-3.4V87H19.8z
				 M21.1,90.3l-0.3-0.9H22c0.4,0,0.6-0.3,0.6-0.9v-9.3h-5.4v-0.9h6.4v10.5c0,1-0.5,1.5-1.4,1.5C22.2,90.3,21.1,90.3,21.1,90.3z"/>
			<path class="st2" d="M27.7,79.4V89h10.6v1H26.6V78.4h11.3v1h-3.3v5.7c0,0.4,0.2,0.6,0.6,0.6h1.2c0.3,0,0.4-0.1,0.5-0.3
				c0.1-0.2,0.2-0.9,0.3-1.9l1,0.3c-0.1,1.3-0.3,2.2-0.5,2.5s-0.6,0.4-1.1,0.4h-1.7c-0.8,0-1.2-0.4-1.2-1.3v-5.9h-2
				c-0.1,3.7-1,6.3-2.7,7.7l-0.8-0.7c1.6-1.2,2.5-3.6,2.6-7.1C30.8,79.4,27.7,79.4,27.7,79.4z"/>
			<path class="st2" d="M39.8,78.2h6.4v1h-1.8v1.6H46v9.6h-1v-0.8h-4v0.8h-0.9v-9.6h1.5v-1.6h-1.9C39.8,79.2,39.8,78.2,39.8,78.2z
				 M41.9,81.7h-0.8v4.7h4v-1.2h-0.7c-0.6,0-0.9-0.3-0.9-1v-2.5h-0.9v0.9c0,1.5-0.3,2.6-0.9,3.3l-0.5-0.5c0.5-0.6,0.8-1.5,0.8-2.8
				L41.9,81.7L41.9,81.7z M41.1,88.7h4v-1.4h-4V88.7z M42.6,80.8h0.9v-1.6h-0.9V80.8z M45,84.4v-2.7h-0.9V84c0,0.2,0.1,0.4,0.3,0.4
				H45z M52.5,86.7c-0.1,1.5-0.3,2.4-0.5,2.8s-0.7,0.6-1.3,0.6h-2.8c-0.7,0-1-0.4-1-1.3v-5.9h3.8v-3.7h-4.1v-1h5v5.7h-3.8v4.6
				c0,0.5,0.1,0.7,0.4,0.7h2.2c0.4,0,0.6-0.2,0.8-0.6c0.1-0.4,0.2-1.1,0.2-2.3L52.5,86.7z"/>
			<path class="st2" d="M55.2,77.5c0.6,0.9,1.1,1.8,1.4,2.9c0.4,1.2,0.6,2.4,0.6,3.7c0,1.2-0.2,2.4-0.6,3.6c-0.4,1-0.9,2-1.4,2.9h-1
				c0.5-0.9,1-1.9,1.3-2.9c0.4-1.3,0.6-2.5,0.6-3.6s-0.2-2.4-0.6-3.6c-0.3-1-0.8-2-1.3-2.9L55.2,77.5L55.2,77.5z"/>
		</g>
	</g>
</g>
<g id="RectEndPoint17_1_" transform="translate(5 202.5)">
	<rect x="126.6" y="-192.8" class="st7" width="101" height="51"/>
	<rect x="124.6" y="-194.8" class="st8" width="101" height="51"/>
	<g transform="translate(20 9)">
		<g>
			<g>
				<path class="st9" d="M136.6-189.6c2.2,0,4,1.8,4,4s-1.8,4-4,4s-4-1.8-4-4S134.4-189.6,136.6-189.6 M136.6-191.6
					c-3.3,0-6,2.7-6,6s2.7,6,6,6s6-2.7,6-6S139.9-191.6,136.6-191.6z"/>
				<path class="st9" d="M140.6-175.6c3.3,0,6,2.7,6,6v1h-20v-1c0-3.3,2.7-6,6-6H140.6 M140.6-177.6h-8c-4.4,0-8,3.6-8,8v3h24v-3
					C148.6-174,145-177.6,140.6-177.6z"/>
				<path class="st9" d="M149.6-177.6h-3c0.8,0.6,1.4,1.2,2,2h1c2.2,0,4,1.8,4,4v1h-3c0,0.3,0,0.7,0,1v1h5v-3
					C155.6-174.9,152.9-177.6,149.6-177.6z"/>
				<path class="st9" d="M145.6-190.6c-0.8,0-1.6,0.2-2.3,0.6c0.4,0.6,0.7,1.2,0.9,1.8c1.4-0.8,3.3-0.3,4.1,1.1
					c0.8,1.4,0.3,3.3-1.1,4.1c-0.9,0.5-2,0.5-3,0c-0.2,0.6-0.5,1.2-0.9,1.8c0.7,0.4,1.5,0.6,2.3,0.6c2.8,0,5-2.2,5-5
					C150.6-188.4,148.4-190.6,145.6-190.6z"/>
			</g>
		</g>
		<g class="st1">
			<path class="st2" d="M169.1-183.2h-1.8v-0.9h4.5v0.9H170v3.2h1.6v0.9h-1.5v3.2c0.5-0.2,1.1-0.4,1.8-0.7v1
				c-1.3,0.6-2.8,1.2-4.4,1.7l-0.3-1c0.8-0.2,1.4-0.4,1.9-0.6v-3.5h-1.6v-0.9h1.6V-183.2z M173.9-179.4h-1.8v-1h7.5v1h-2v5.3
				c0,0.4,0.2,0.6,0.5,0.6h0.4c0.2,0,0.3-0.1,0.4-0.2c0.1-0.1,0.2-0.8,0.3-2l0.9,0.3c-0.1,1.4-0.2,2.2-0.4,2.4s-0.5,0.4-1,0.4h-0.9
				c-0.4,0-0.7-0.1-0.9-0.4c-0.2-0.2-0.3-0.6-0.3-0.9v-5.6h-1.7v1c0,2.7-1.3,4.8-3.6,6l-0.8-0.7c2.2-1.1,3.4-2.9,3.4-5.4
				L173.9-179.4L173.9-179.4z M172.6-184.4h6.6v1h-6.6V-184.4z"/>
			<path class="st2" d="M188.9-177.6c0.2,0.7,0.4,1.4,0.4,2.2c0,1.1-0.1,1.9-0.4,2.3c-0.3,0.5-1.1,0.7-2.3,0.7h-0.5l-0.3-0.9h0.7
				c0.8,0,1.3-0.1,1.6-0.4c0.3-0.3,0.4-0.9,0.4-1.8c0-0.3,0-0.5-0.1-0.7c-1.6,1.2-3.6,2.2-6.1,3l-0.7-0.8c2.8-0.8,5-1.9,6.5-3.1
				c-0.1-0.4-0.3-0.8-0.4-1c-1.3,1-3.1,1.9-5.4,2.5l-0.5-0.9c2.4-0.6,4.2-1.4,5.4-2.4c-0.1-0.2-0.3-0.5-0.6-0.7l-0.3,0.2
				c-1,0.4-2.2,0.9-3.8,1.3l-0.5-0.8c1.4-0.3,2.6-0.7,3.6-1.1c0.6-0.3,1.1-0.5,1.4-0.7h-3.7v-0.9h8.4v0.9h-3.1
				c-0.5,0.3-0.9,0.6-1.1,0.7c0.5,0.5,0.9,1.1,1.2,1.6c1.3-0.4,2.5-0.9,3.7-1.7l0.7,0.7c-0.8,0.5-1.6,0.9-2.4,1.2
				c0.7,1.8,1.7,3.2,3.2,4.2l-0.7,0.8c-1.5-1.3-2.6-2.8-3.3-4.7L188.9-177.6z M187.8-185.3c0.1,0.3,0.3,0.8,0.5,1.3h5.3v2.4h-1v-1.5
				h-9.8v1.5h-1v-2.4h5.5c-0.1-0.4-0.3-0.8-0.5-1.1L187.8-185.3z"/>
		</g>
	</g>
</g>
<g>
	<g id="RectEndPoint27_1_" transform="translate(844.07 98)">
		<rect x="-472.2" y="61.7" class="st7" width="97" height="50"/>
		<rect x="-474.2" y="59.7" class="st8" width="97" height="50"/>
	</g>
	<g transform="translate(20 9)">
		<g class="st1">
			<path class="st2" d="M363.7,160.3c-0.3,1.1-0.7,2-1.2,3v9.5h-1V165c-0.4,0.6-0.8,1.2-1.3,1.7l-0.3-1.1c1.3-1.7,2.3-3.6,2.9-5.8
				L363.7,160.3z M372.4,166.2v2.4h-0.8v0.6h-3v2.3c0,0.8-0.4,1.1-1.2,1.1h-1.6l-0.2-1c0.7,0,1.2,0.1,1.4,0.1c0.4,0,0.5-0.2,0.5-0.5
				v-2h-3.1v-0.6h-0.9v-2.4H372.4z M367.9,159.8c0.1,0.2,0.2,0.6,0.4,1.2h4v0.9h-8.7V161h3.7c-0.1-0.4-0.3-0.7-0.4-1L367.9,159.8z
				 M364.5,168.4h6.9v-1.3h-6.9V168.4z M364.6,162.8h6.7v2.6h-6.7V162.8z M370.3,164.6v-1.1h-4.7v1.1H370.3z"/>
			<path class="st2" d="M380.4,160h1v4.5h4.3v1h-4.3v5.7h5.1v1h-12.4v-1h2.4v-8.7h1v8.7h2.9V160z"/>
			<path class="st2" d="M390.5,164.6v1.2c0,2.7-0.6,5-1.9,6.9l-0.7-0.7c1.1-1.6,1.6-3.7,1.6-6.3v-4.9h4.7c-0.1-0.4-0.3-0.8-0.4-1.1
				l1.1-0.2c0.2,0.5,0.3,0.9,0.4,1.2h4.5v3.6h-9.3L390.5,164.6L390.5,164.6z M391.1,167.2v-1h4c-0.2-0.4-0.3-0.8-0.4-1.1l1.1-0.2
				c0.1,0.4,0.3,0.8,0.4,1.2h4.4v1h-6.2c0,0.5-0.1,0.9-0.2,1.3h5.3c-0.1,1.9-0.1,3-0.3,3.3c-0.1,0.3-0.4,0.5-0.7,0.6
				c-0.4,0.1-1.1,0.2-2.3,0.2h-0.3l-0.3-0.9c0.4,0,0.6,0,0.8,0c0.7,0,1.2,0,1.5-0.1c0.2-0.1,0.3-0.2,0.4-0.4c0-0.2,0.1-0.8,0.2-1.8
				H394c-0.6,1.4-1.6,2.5-3.1,3.3l-0.5-0.9c1.9-0.9,2.9-2.5,3-4.7h-2.3V167.2z M398.7,161.9h-8.3v1.8h8.3V161.9z"/>
			<path class="st2" d="M402.7,162.2h1v10.5h-1V162.2z M404.8,159.8c0.7,0.8,1.2,1.6,1.7,2.5l-0.9,0.5c-0.5-1-1.1-1.9-1.7-2.6
				L404.8,159.8z M405.6,163.7h5.3v6.5h-5.3V163.7z M406.6,166.5h3.4v-1.9h-3.4V166.5z M410,169.3v-1.9h-3.4v1.9H410z M411.3,172.6
				l-0.3-0.9h1.2c0.4,0,0.6-0.3,0.6-0.9v-9.3h-5.4v-0.9h6.4v10.5c0,1-0.5,1.5-1.4,1.5H411.3z"/>
			<path class="st2" d="M418.4,160h1v2.4h2.9c0,4.6-0.1,7.4-0.2,8.5c-0.1,1.2-0.8,1.7-2.1,1.7l-1.1-0.1l-0.3-0.9
				c0.6,0,1,0.1,1.2,0.1c0.7,0,1.2-0.4,1.3-1.2s0.1-3.2,0.2-7.1h-1.9v0.3c0,4.2-1,7.3-2.7,9.2l-0.8-0.7c1.7-1.7,2.5-4.6,2.5-8.5
				v-0.3h-2.3v-1h2.2L418.4,160L418.4,160z M428,161.7v10.9h-1v-1h-2.5v0.9h-1v-10.9h4.5V161.7z M424.5,170.6h2.5v-8h-2.5V170.6z"/>
			<path class="st2" d="M433.4,160.4l0.8-0.5c1.2,0.9,2.3,2.4,3.2,4.7c1.3,3.4,3.1,5.7,5.3,7.1l-0.6,0.8c-2.3-1.4-4.1-3.9-5.6-7.6
				c-0.1-0.3-0.2-0.5-0.2-0.6c-0.9,3.6-2.9,6.3-5.8,8.2l-0.6-0.9c3-2,4.9-4.8,5.8-8.5C435.1,162,434.3,161.1,433.4,160.4z"/>
			<path class="st2" d="M369.8,176.7c0.7,0.5,1.2,1,1.7,1.5l-0.6,0.6h1.7v1h-4.3c0.1,1.7,0.3,3.1,0.5,4.1c0.1,0.3,0.2,0.6,0.3,1
				c0.7-1.1,1.3-2.4,1.7-3.9l0.9,0.4c-0.6,1.9-1.3,3.4-2.2,4.7c0.2,0.5,0.4,0.8,0.6,1.2c0.5,0.7,0.8,1,1.1,1c0.3,0,0.5-0.7,0.7-2.2
				l0.9,0.5c-0.3,1.9-0.8,2.8-1.4,2.8s-1.2-0.4-1.9-1.3c-0.3-0.3-0.5-0.7-0.7-1.2c-1,1.1-2.1,2-3.4,2.6l-0.6-0.8
				c1.4-0.6,2.6-1.6,3.6-2.8c-0.2-0.6-0.4-1.1-0.5-1.7c-0.3-1.1-0.5-2.6-0.6-4.4h-4.8v2.3h3.4c0,2.4-0.1,3.9-0.3,4.6
				c-0.2,0.6-0.6,0.9-1.3,0.9c-0.2,0-0.6,0-1.2-0.1l-0.3-0.9c0.5,0,1,0,1.4,0c0.3,0,0.5-0.2,0.6-0.6c0.1-0.4,0.1-1.4,0.2-3h-2.4v0.4
				c-0.1,2.5-0.6,4.5-1.7,6l-0.8-0.7c0.9-1.3,1.4-3.1,1.4-5.3v-4.7h5.8c0-0.7,0-1.4,0-2.2h1c0,0.8,0,1.5,0,2.2h2.6
				c-0.4-0.5-1-1-1.7-1.6L369.8,176.7z"/>
			<path class="st2" d="M381,183.7c-0.2,2.1-0.6,3.4-1.3,4.2c-0.7,0.9-2.4,1.4-5,1.7l-0.4-0.9c2.3-0.1,3.8-0.6,4.5-1.4
				c0.7-0.7,1-1.9,1.1-3.7L381,183.7z M384.9,181.8v5.1h-1v-4.2H377v4.4h-1v-5.3H384.9z M376.6,177.2h7.4v3.5h-7.4V177.2z
				 M383.1,179.8v-1.6h-5.4v1.6H383.1z M381.4,186.9c1.7,0.5,3.4,1.2,4.9,2l-0.5,0.8c-1.6-0.9-3.2-1.5-4.9-2L381.4,186.9z"/>
			<path class="st2" d="M400.2,176.6c-0.6,0.9-1,1.9-1.3,2.9c-0.4,1.2-0.6,2.4-0.6,3.6s0.2,2.4,0.6,3.6c0.3,1,0.8,1.9,1.3,2.9h-1
				c-0.6-0.9-1.1-1.8-1.4-2.9c-0.4-1.2-0.6-2.4-0.6-3.6c0-1.3,0.2-2.5,0.6-3.7c0.4-1,0.8-2,1.4-2.9L400.2,176.6L400.2,176.6z"/>
			<path class="st2" d="M402.1,177.6h12.5v1h-1.8v9.5c0,0.9-0.4,1.4-1.3,1.4h-2.4l-0.2-1c1,0,1.8,0.1,2.2,0.1c0.5,0,0.7-0.2,0.7-0.7
				v-9.3h-9.7L402.1,177.6L402.1,177.6z M409.2,180.7v5.1h-4.5v1.2h-1v-6.4L409.2,180.7L409.2,180.7z M404.7,184.9h3.5v-3.3h-3.5
				V184.9L404.7,184.9z"/>
			<path class="st2" d="M425.3,189.3c-0.5,0-1.3,0-2.5,0c-0.9,0-1.7-0.1-2.2-0.3c-0.6-0.2-1.1-0.5-1.5-1c-0.2-0.2-0.4-0.3-0.5-0.3
				c-0.3,0-0.9,0.6-1.7,1.9l-0.8-0.7c0.7-1.2,1.4-1.9,2-2.1v-4.3h-2v-0.9h2.9v5.2c0.1,0.1,0.2,0.2,0.3,0.3c0.3,0.4,0.7,0.7,1.1,0.9
				s1.1,0.3,1.9,0.3c1,0,1.9,0,2.8,0c0.4,0,1.1,0,2,0c0.8,0,1.3,0,1.6-0.1l-0.2,1h-3.2L425.3,189.3L425.3,189.3z M417.1,176.9
				c0.9,0.7,1.7,1.4,2.4,2.2l-0.7,0.7c-0.6-0.7-1.4-1.4-2.4-2.2L417.1,176.9z M424,176.7h1v1.8h2.8v1H425v2h3.3v1H426v3.7
				c0,0.2,0.1,0.3,0.4,0.3h0.5c0.2,0,0.4,0,0.5-0.1c0.2-0.1,0.3-0.6,0.4-1.6l0.9,0.3c-0.1,1.1-0.3,1.8-0.5,2s-0.6,0.3-1.1,0.3h-1
				c-0.3,0-0.6-0.1-0.8-0.3s-0.3-0.4-0.3-0.7v-4h-1.4c0,0.9-0.2,1.8-0.4,2.5c-0.4,1.1-1.2,1.9-2.5,2.6l-0.6-0.8
				c1.1-0.5,1.9-1.2,2.2-2.1c0.2-0.6,0.4-1.3,0.4-2.2h-2.2v-1h3.5v-2h-2.3c-0.3,0.5-0.5,1-0.8,1.5l-0.9-0.5c0.7-1,1.2-2.2,1.6-3.5
				l1,0.2c-0.2,0.6-0.3,1-0.4,1.4h1.8L424,176.7L424,176.7z"/>
			<path class="st2" d="M431.4,176.6c0.6,0.9,1.1,1.8,1.4,2.9c0.4,1.2,0.6,2.4,0.6,3.7c0,1.2-0.2,2.4-0.6,3.6c-0.4,1-0.9,2-1.4,2.9
				h-1c0.5-0.9,1-1.9,1.3-2.9c0.4-1.3,0.6-2.5,0.6-3.6s-0.2-2.4-0.6-3.6c-0.3-1-0.8-2-1.3-2.9L431.4,176.6L431.4,176.6z"/>
		</g>
	</g>
</g>
<g id="RectEndPoint31_1_" transform="translate(1027 99)">
	<rect x="-537.1" y="61.2" class="st7" width="108" height="49"/>
	<rect x="-539.1" y="59.2" class="st8" width="108" height="49"/>
	<g transform="translate(20 9)">
		<g class="st1">
			<path class="st2" d="M-527.9,68.9h1v12.7h-1v-4.9c-0.8,0.9-1.8,1.8-2.9,2.5l-0.3-1c1.2-0.8,2.2-1.7,3.2-2.7V68.9L-527.9,68.9z
				 M-529.9,70.3c0.5,1.1,1,2.3,1.4,3.6l-0.9,0.4c-0.4-1.4-0.9-2.6-1.5-3.7L-529.9,70.3z M-522,68.9c0,1,0,2.3,0,3.7h3.4v1h-3.3
				c0.6,3.2,1.9,5.6,3.8,7.3l-0.7,0.8c-1.8-1.7-3-3.8-3.6-6.3c-0.6,2.5-1.7,4.7-3.3,6.4l-0.7-0.8c1.9-2.1,3-4.5,3.2-7.3h-2.8v-1h2.9
				c0-1.8,0.1-3,0.1-3.7L-522,68.9L-522,68.9z M-520.4,69.1c0.7,0.8,1.3,1.5,1.7,2.2l-0.8,0.6c-0.4-0.7-1-1.4-1.7-2.3L-520.4,69.1z"
				/>
			<path class="st2" d="M-510.1,68.8c0,0.4-0.1,0.9-0.3,1.5h5.4v1h-4.5c0.7,1.5,2.4,2.8,5.2,3.6l-0.5,0.9c-3.1-1.1-5-2.6-5.7-4.5
				h-0.2c-0.3,0.8-0.7,1.5-1.2,2.1c-0.1,0.1-0.1,0.1-0.1,0.2c0.6,0.4,1.3,1,2,1.7l-0.7,0.7c-0.7-0.7-1.3-1.3-2-1.8
				c-0.9,0.7-2.2,1.2-3.9,1.7L-517,75c2-0.5,3.4-1.2,4.3-2.2c0.4-0.4,0.7-0.9,1-1.5h-4.6v-1h4.9c0.2-0.5,0.3-1.1,0.3-1.6
				L-510.1,68.8z M-514.6,77.2c-0.3,1.4-0.8,2.7-1.4,3.8l-0.9-0.5c0.6-1,1-2.2,1.3-3.4L-514.6,77.2z M-512.2,81.4
				c-0.9,0-1.4-0.5-1.4-1.4v-3h1v2.8c0,0.4,0.2,0.6,0.7,0.6h3c0.3,0,0.5-0.1,0.6-0.3c0.2-0.2,0.3-0.8,0.3-1.7l1,0.3
				c-0.1,1.2-0.3,2-0.6,2.3c-0.3,0.2-0.6,0.4-1.2,0.4C-508.8,81.4-512.2,81.4-512.2,81.4z M-510.3,76.5c0.5,0.7,0.9,1.5,1.3,2.4
				l-0.9,0.4c-0.4-1-0.8-1.8-1.2-2.5L-510.3,76.5z M-506.1,76.7c0.7,1,1.3,2.2,1.8,3.4l-0.9,0.4c-0.5-1.3-1.1-2.5-1.8-3.5
				L-506.1,76.7z"/>
			<path class="st2" d="M-494.1,81.6l-0.3-1h1.8c0.4,0,0.5-0.2,0.5-0.6v-9.7h-9.2v11.3h-1V69.4h11.2v10.9c0,0.9-0.4,1.4-1.2,1.4
				h-1.8V81.6z M-500.2,71.9h7.2v0.9h-7.2V71.9z M-499.4,74.4h5.6v4.5h-5.6V74.4z M-494.8,78v-2.7h-3.7V78H-494.8z"/>
			<path class="st2" d="M-483.1,68.8h1v1.7h4.2v1h-4.2v1.9h5.6v1h-5.6v4.2h-1v-4.2h-5.9v-1h2.1v-3.5h1v3.5h2.6v-4.6H-483.1z
				 M-484.8,75.6c-0.8,1.3-1.9,2.5-3.1,3.4l-0.6-0.8c1.2-0.9,2.2-2,3-3.2L-484.8,75.6z M-477.6,75.9c-1.8,3.9-5.1,5.8-10.1,5.8
				l-0.4-1c4.8,0,8-1.8,9.6-5.4L-477.6,75.9z"/>
		</g>
	</g>
</g>
<g id="RectEndPoint36_1_" transform="translate(1166.07 154)">
	<rect x="-550.7" y="5.7" class="st7" width="96" height="50"/>
	<rect x="-552.7" y="3.7" class="st8" width="96" height="50"/>
	<g transform="translate(20 9)">
		<g class="st1">
			<path class="st2" d="M-562.8,12.9L-563,12c1-0.4,2.3-2.1,3.9-5l1,0.3c-1.1,1.9-2.1,3.5-3.2,4.7c2.5-0.1,4.8-0.2,6.9-0.4
				c-0.6-0.9-1.1-1.8-1.7-2.5l0.9-0.4c1.1,1.5,2.1,3.1,3,4.7l-1,0.5c-0.2-0.4-0.4-0.8-0.7-1.4l-1.9,0.2v5.5c0,0.4,0.2,0.6,0.6,0.6
				h1.5c0.4,0,0.6-0.1,0.8-0.3c0.2-0.3,0.3-1,0.4-2.3l1,0.3c-0.1,1.5-0.3,2.4-0.7,2.8c-0.3,0.3-0.7,0.4-1.3,0.4h-2
				c-0.9,0-1.3-0.4-1.3-1.3v-5.6l-2.2,0.1c-0.1,2-0.5,3.4-1,4.4c-0.7,1.1-1.8,2-3.3,2.8l-0.7-0.8c1.4-0.7,2.4-1.5,3-2.4
				c0.5-0.9,0.9-2.2,1-3.9C-561.2,12.8-562.1,12.8-562.8,12.9z"/>
			<path class="st2" d="M-550,11.2h2.9v6.2c0.5-0.4,1.1-0.9,1.6-1.5l0.3,1c-0.8,0.8-1.8,1.5-2.8,2.2l-0.4-0.9
				c0.2-0.2,0.3-0.4,0.3-0.6v-5.5h-2v-0.9H-550z M-548.5,7.1c1,0.7,1.8,1.4,2.4,2.2l-0.7,0.7c-0.6-0.7-1.4-1.4-2.4-2.2L-548.5,7.1z
				 M-543.7,9.8c-0.5,1-1.1,1.8-1.8,2.5l-0.6-0.8c1.2-1.1,2-2.7,2.4-4.6l1,0.2c-0.1,0.6-0.3,1.1-0.5,1.7h5.6v1h-2.9v3.4h3.5v1h-3.5
				v5.7h-1v-5.7h-4.2v-1h4.2V9.8H-543.7z"/>
			<path class="st2" d="M-533.6,11.6v1.2c0,2.7-0.6,5-1.9,6.9l-0.7-0.7c1.1-1.6,1.6-3.7,1.6-6.3V8h4.7c-0.1-0.4-0.3-0.8-0.4-1.1
				l1.1-0.2c0.2,0.5,0.3,0.9,0.4,1.2h4.5v3.6h-9.3L-533.6,11.6L-533.6,11.6z M-532.9,14.2v-1h4c-0.2-0.4-0.3-0.8-0.4-1.1l1.1-0.2
				c0.1,0.4,0.3,0.8,0.4,1.2h4.4v1h-6.2c0,0.5-0.1,0.9-0.2,1.3h5.3c-0.1,1.9-0.1,3-0.3,3.3c-0.1,0.3-0.4,0.5-0.7,0.6
				c-0.4,0.1-1.1,0.2-2.3,0.2h-0.3l-0.3-0.9c0.4,0,0.6,0,0.8,0c0.7,0,1.2,0,1.5-0.1c0.2-0.1,0.3-0.2,0.4-0.4c0-0.2,0.1-0.8,0.2-1.8
				h-4.5c-0.6,1.4-1.6,2.5-3.1,3.3l-0.5-0.9c1.9-0.9,2.9-2.5,3-4.7h-2.3L-532.9,14.2L-532.9,14.2z M-525.3,9h-8.3v1.7h8.3V9z"/>
			<path class="st2" d="M-521.3,9.3h1v10.5h-1V9.3z M-519.3,6.8c0.7,0.8,1.2,1.6,1.7,2.5l-0.9,0.5c-0.5-1-1.1-1.9-1.7-2.6
				L-519.3,6.8z M-518.4,10.7h5.3v6.5h-5.3V10.7z M-517.5,13.5h3.4v-1.9h-3.4V13.5z M-514,16.4v-1.9h-3.4v1.9H-514z M-512.7,19.7
				l-0.3-0.9h1.2c0.4,0,0.6-0.3,0.6-0.9V8.6h-5.4v-1h6.4v10.5c0,1-0.5,1.5-1.4,1.5h-1.1L-512.7,19.7L-512.7,19.7z"/>
			<path class="st2" d="M-505.7,7h1v2.4h2.9c0,4.6-0.1,7.4-0.2,8.5c-0.1,1.2-0.8,1.7-2.1,1.7l-1.1-0.1l-0.3-0.9c0.6,0,1,0.1,1.2,0.1
				c0.7,0,1.2-0.4,1.3-1.2c0.1-0.8,0.1-3.2,0.2-7.1h-1.9v0.3c0,4.2-1,7.3-2.7,9.2l-0.8-0.7c1.7-1.7,2.5-4.6,2.5-8.5v-0.3h-2.2v-1
				h2.2V7z M-496,8.7v10.9h-1v-0.9h-2.5v0.9h-1V8.7H-496z M-499.5,17.7h2.5v-8h-2.5V17.7z"/>
			<path class="st2" d="M-490.6,7.5l0.8-0.5c1.2,0.9,2.3,2.4,3.2,4.7c1.3,3.4,3.1,5.7,5.3,7.1l-0.6,0.8c-2.3-1.4-4.1-3.9-5.6-7.6
				c-0.1-0.3-0.2-0.5-0.2-0.6c-0.9,3.6-2.9,6.3-5.8,8.2l-0.6-0.9c3-2,4.9-4.8,5.8-8.5C-488.9,9-489.7,8.1-490.6,7.5z"/>
			<path class="st2" d="M-554.3,23.7c0.7,0.5,1.2,1,1.7,1.5l-0.6,0.6h1.7v1h-4.3c0.1,1.7,0.3,3.1,0.5,4.1c0.1,0.3,0.2,0.6,0.3,1
				c0.7-1.1,1.3-2.4,1.7-3.9l0.9,0.4c-0.6,1.9-1.3,3.4-2.2,4.7c0.2,0.5,0.4,0.8,0.6,1.2c0.5,0.7,0.8,1,1.1,1s0.5-0.7,0.7-2.2
				l0.9,0.5c-0.3,1.9-0.8,2.8-1.4,2.8c-0.6,0-1.2-0.4-1.9-1.3c-0.3-0.3-0.5-0.7-0.7-1.2c-1,1.1-2.1,2-3.4,2.6l-0.6-0.8
				c1.4-0.6,2.6-1.6,3.6-2.8c-0.2-0.6-0.4-1.1-0.5-1.7c-0.3-1.1-0.5-2.6-0.6-4.4h-4.8v2.3h3.4c0,2.4-0.1,3.9-0.3,4.6
				c-0.2,0.6-0.6,0.9-1.3,0.9c-0.2,0-0.6,0-1.2-0.1l-0.3-0.9c0.5,0,1,0,1.4,0c0.3,0,0.5-0.2,0.6-0.6c0.1-0.4,0.1-1.4,0.2-3h-2.4v0.5
				c-0.1,2.5-0.6,4.5-1.7,6l-0.8-0.7c0.9-1.3,1.4-3.1,1.4-5.3v-4.7h5.8c0-0.7,0-1.4,0-2.2h1c0,0.8,0,1.5,0,2.2h2.6
				c-0.4-0.5-1-1-1.7-1.6L-554.3,23.7z"/>
			<path class="st2" d="M-543,30.7c-0.2,2.1-0.6,3.4-1.3,4.2c-0.7,0.9-2.4,1.4-5,1.7l-0.4-0.9c2.3-0.1,3.8-0.6,4.5-1.4
				c0.7-0.7,1-1.9,1.1-3.7L-543,30.7z M-539.2,28.8v5.1h-1v-4.2h-6.9v4.4h-1v-5.3H-539.2z M-547.4,24.2h7.4v3.5h-7.4V24.2z
				 M-541,26.8v-1.6h-5.4v1.6H-541z M-542.7,33.9c1.7,0.5,3.4,1.2,4.9,2l-0.5,0.8c-1.6-0.9-3.2-1.5-4.9-2L-542.7,33.9z"/>
			<path class="st2" d="M-523.8,23.6c-0.6,0.9-1,1.9-1.3,2.9c-0.4,1.2-0.6,2.4-0.6,3.6s0.2,2.4,0.6,3.6c0.3,1,0.8,1.9,1.3,2.9h-1
				c-0.6-0.9-1.1-1.8-1.4-2.9c-0.4-1.2-0.6-2.4-0.6-3.6c0-1.3,0.2-2.5,0.6-3.7c0.4-1,0.8-2,1.4-2.9h1V23.6z"/>
			<path class="st2" d="M-521.9,24.6h12.5v1h-1.8v9.5c0,0.9-0.4,1.4-1.3,1.4h-2.3l-0.2-1c1,0,1.8,0.1,2.2,0.1c0.5,0,0.7-0.2,0.7-0.7
				v-9.3h-9.6v-1C-521.7,24.6-521.9,24.6-521.9,24.6z M-514.8,27.7v5.1h-4.5V34h-1v-6.4h5.5V27.7z M-519.3,31.9h3.5v-3.3h-3.5V31.9z
				"/>
			<path class="st2" d="M-498.7,36.3c-0.5,0-1.3,0-2.5,0c-0.9,0-1.7-0.1-2.2-0.3c-0.6-0.2-1.1-0.5-1.5-1c-0.2-0.2-0.4-0.3-0.5-0.3
				c-0.3,0-0.9,0.6-1.7,1.9l-0.8-0.7c0.7-1.2,1.4-1.9,2-2.1v-4.3h-2v-0.9h2.9v5.2c0.1,0.1,0.2,0.2,0.3,0.3c0.3,0.4,0.7,0.7,1.1,0.9
				s1.1,0.3,1.9,0.3c1,0,1.9,0,2.8,0c0.4,0,1.1,0,2,0c0.8,0,1.3,0,1.6-0.1l-0.2,1L-498.7,36.3L-498.7,36.3z M-506.9,24
				c0.9,0.7,1.7,1.4,2.4,2.2l-0.7,0.7c-0.6-0.7-1.4-1.4-2.4-2.2L-506.9,24z M-500,23.7h1v1.8h2.8v1h-2.8v2h3.3v1h-2.3v3.7
				c0,0.2,0.1,0.3,0.4,0.3h0.5c0.2,0,0.4,0,0.5-0.1c0.2-0.1,0.3-0.6,0.4-1.6l0.9,0.3c-0.1,1.1-0.3,1.8-0.5,2s-0.6,0.3-1.1,0.3h-1
				c-0.3,0-0.6-0.1-0.8-0.3c-0.2-0.2-0.3-0.4-0.3-0.7v-4h-1.4c0,0.9-0.2,1.8-0.4,2.5c-0.4,1.1-1.2,1.9-2.5,2.6l-0.6-0.8
				c1.1-0.5,1.9-1.2,2.2-2.1c0.2-0.6,0.4-1.3,0.4-2.2h-2.2v-1h3.5v-2h-2.3c-0.3,0.5-0.5,1-0.8,1.5l-0.9-0.5c0.7-1,1.2-2.2,1.6-3.5
				l1,0.2c-0.2,0.6-0.3,1-0.4,1.4h1.8L-500,23.7L-500,23.7z"/>
			<path class="st2" d="M-492.6,23.6c0.6,0.9,1.1,1.8,1.4,2.9c0.4,1.2,0.6,2.4,0.6,3.7c0,1.2-0.2,2.4-0.6,3.6c-0.4,1-0.9,2-1.4,2.9
				h-1c0.5-0.9,1-1.9,1.3-2.9c0.4-1.2,0.6-2.5,0.6-3.6s-0.2-2.4-0.6-3.6c-0.3-1-0.8-2-1.3-2.9L-492.6,23.6L-492.6,23.6z"/>
		</g>
	</g>
</g>
<g id="RectEndPoint37_1_" transform="translate(1211.57 222)">
	<rect x="-595.7" y="10.2" class="st7" width="96" height="50"/>
	<rect x="-597.7" y="8.2" class="st8" width="96" height="50"/>
	<g transform="translate(20 9)">
		<g class="st1">
			<path class="st2" d="M-590.5,17.7c0.2,0.3,0.3,0.7,0.5,1.2h5.3v0.9h-12v-0.9h5.7c-0.1-0.3-0.3-0.6-0.5-1L-590.5,17.7z
				 M-587.2,23.5v-3h1v3.9h-4.5l-0.3,1h5.7v4.2c0,0.8-0.4,1.1-1.2,1.1h-1.2l-0.3-1h1.1c0.4,0,0.5-0.1,0.5-0.4v-3.1h-2.6
				c0.6,0.9,1.1,1.8,1.6,2.8l-0.8,0.4l-0.4-0.8c-1.1,0.2-2.9,0.4-5.1,0.7l-0.2-0.9c0.2,0,0.4-0.1,0.4-0.2c0.3-0.5,0.7-1.2,1-2h-2.7
				v4.4h-1v-5.3h4l0.3-1h-3.4v-3.9h1v3h7.1L-587.2,23.5L-587.2,23.5z M-592.9,20.2c0.8,0.3,1.7,0.7,2.5,1.1c0.6-0.4,1.1-0.8,1.6-1.2
				l0.7,0.4c-0.5,0.4-1,0.8-1.5,1.2c0.5,0.3,1.1,0.6,1.7,1l-0.5,0.7c-0.7-0.5-1.4-0.9-2.1-1.2c-0.8,0.4-1.7,0.8-2.8,1.2l-0.4-0.7
				c0.9-0.3,1.7-0.6,2.3-0.9c-0.8-0.4-1.5-0.7-2.1-0.9L-592.9,20.2z M-589.2,26.2h-2.2c-0.3,0.7-0.6,1.4-1,2.1
				c1.3-0.1,2.5-0.3,3.5-0.5c-0.3-0.5-0.6-1-0.8-1.4L-589.2,26.2z"/>
			<path class="st2" d="M-582.1,18.7h10.9v1h-2.3v3.7h3.1v1h-3.1v6.2h-1v-6.2h-4c-0.1,1.4-0.4,2.6-0.8,3.6c-0.5,1.2-1.4,2.1-2.6,2.7
				l-0.5-0.9c1.1-0.6,1.9-1.5,2.4-2.6c0.3-0.8,0.5-1.8,0.6-2.9h-3.2v-1h3.3v-0.5v-3.2h-2.5v-0.9H-582.1z M-578.5,19.6v3.5v0.2h4
				v-3.7C-574.5,19.6-578.5,19.6-578.5,19.6z"/>
			<path class="st2" d="M-566.6,22.5v1.2c0,2.7-0.6,5-1.9,6.9l-0.7-0.7c1.1-1.6,1.6-3.7,1.6-6.3v-4.9h4.7c-0.1-0.4-0.3-0.8-0.4-1.1
				l1.1-0.2c0.2,0.5,0.3,0.9,0.4,1.2h4.5v3.6h-9.3L-566.6,22.5L-566.6,22.5z M-565.9,25.1v-1h4c-0.2-0.4-0.3-0.8-0.4-1.1l1.1-0.2
				c0.1,0.4,0.3,0.8,0.4,1.2h4.4v1h-6.2c0,0.5-0.1,0.9-0.2,1.3h5.3c-0.1,1.9-0.1,3-0.3,3.3c-0.1,0.3-0.4,0.5-0.7,0.6
				c-0.4,0.1-1.1,0.2-2.3,0.2h-0.3l-0.3-0.9c0.4,0,0.6,0,0.8,0c0.7,0,1.2,0,1.5-0.1c0.2-0.1,0.3-0.2,0.4-0.4c0-0.2,0.1-0.8,0.2-1.8
				h-4.5c-0.6,1.4-1.6,2.5-3.1,3.3l-0.5-0.9c1.9-0.9,2.9-2.5,3-4.7h-2.3L-565.9,25.1L-565.9,25.1z M-558.3,19.8h-8.3v1.8h8.3V19.8z"
				/>
			<path class="st2" d="M-554.3,20.1h1v10.5h-1V20.1z M-552.3,17.7c0.7,0.8,1.2,1.6,1.7,2.5l-0.9,0.5c-0.5-1-1.1-1.9-1.7-2.6
				L-552.3,17.7z M-551.4,21.6h5.3v6.5h-5.3V21.6z M-550.5,24.4h3.4v-1.9h-3.4V24.4z M-547,27.2v-1.9h-3.4v1.9H-547z M-545.7,30.5
				l-0.3-0.9h1.2c0.4,0,0.6-0.3,0.6-0.9v-9.3h-5.4v-0.9h6.4V29c0,1-0.5,1.5-1.4,1.5H-545.7z"/>
		</g>
	</g>
</g>
<g id="RectEndPoint38_1_" transform="translate(1210.57 292)">
	<rect x="-595.7" y="10.2" class="st7" width="97" height="50"/>
	<rect x="-597.7" y="8.2" class="st8" width="97" height="50"/>
	<g transform="translate(20 9)">
		<g class="st1">
			<path class="st2" d="M-595.5,27.3c-0.1,1.4-0.4,2.5-1,3.5l-0.7-0.6c0.5-1,0.8-2.4,0.8-4v-4.3c-0.1,0.1-0.1,0.1-0.1,0.2l-0.6-0.7
				c0.8-0.9,1.5-2.1,2.1-3.5l0.9,0.2l-0.4,0.9h2.5v0.7c-0.3,0.6-0.6,1.1-0.9,1.6h1.7v8.4c0,0.7-0.3,1-1,1h-0.8l-0.2-0.8
				c0.4,0,0.6,0.1,0.7,0.1c0.3,0,0.5-0.2,0.5-0.5v-1.9h-1.3v3.2h-0.8v-3.2h-1.4V27.3L-595.5,27.3z M-593.9,21.1
				c0.3-0.4,0.6-0.8,0.9-1.5h-1.8c-0.2,0.4-0.5,0.9-0.9,1.5H-593.9z M-595.4,24.6v1.7v0.2h1.3v-1.8h-1.3V24.6z M-594.1,22h-1.3v1.8
				h1.3V22z M-592,23.8V22h-1.3v1.8H-592z M-592,26.4v-1.8h-1.3v1.8H-592z M-589.4,25.3c-0.3,0.5-0.6,0.9-0.9,1.3l-0.6-0.7
				c0.6-0.7,1-1.6,1.2-2.7l0.8,0.2c-0.1,0.4-0.2,0.7-0.3,1h1.3v-1.3h1v1.3h2.1v0.9h-2.1V27h2.4v0.9h-2.4v2.7h-1v-2.7h-3.1V27h3.1
				v-1.7H-589.4z M-590.7,19.5v-0.9h5.8c0,1.9-0.1,3-0.4,3.4s-0.7,0.6-1.3,0.6c-0.2,0-0.6,0-1.2-0.1l-0.2-0.8l1.2,0.1
				c0.4,0,0.6-0.1,0.7-0.4c0.1-0.2,0.1-0.9,0.2-1.9h-2.1c-0.1,0.6-0.3,1.2-0.6,1.7c-0.4,0.6-0.9,1.1-1.6,1.6l-0.6-0.8
				c0.6-0.4,1.1-0.8,1.4-1.3c0.2-0.4,0.4-0.8,0.5-1.2C-588.9,19.5-590.7,19.5-590.7,19.5z"/>
			<path class="st2" d="M-582.7,19.2h1.3v-1.4h0.9v1.4h1.9v-1.4h0.9v1.4h1.3v0.9h-1.3v1.5h1.5v0.9h-6.9v-0.9h1.6v-1.5h-1.3
				L-582.7,19.2C-582.8,19.2-582.7,19.2-582.7,19.2z M-581,28.2v2.4h-1v-7.3h5v6c0,0.8-0.4,1.2-1.2,1.2h-1.2l-0.3-0.9h1.2
				c0.3,0,0.5-0.2,0.5-0.5v-1h-3V28.2z M-577.9,25.4v-1.1h-3v1.1H-577.9z M-581,26.3v1.1h3v-1.1H-581z M-580.4,21.5h1.9V20h-1.9
				V21.5z M-575.3,23.4c-0.2,0.5-0.5,1-0.8,1.4l-0.6-0.8c1-1.5,1.6-3.6,2-6.2l1,0.2c-0.1,0.7-0.2,1.4-0.4,2h3.7v1h-0.9
				c-0.1,2.4-0.6,4.4-1.4,6.1c0.8,1.2,1.6,2.2,2.7,2.8l-0.6,0.8c-1-0.7-1.9-1.6-2.6-2.7c-0.7,1.1-1.6,2-2.8,2.8l-0.5-0.9
				c1.2-0.7,2.1-1.7,2.8-2.8C-574.4,25.9-574.9,24.7-575.3,23.4z M-574.4,20.9c-0.1,0.3-0.2,0.7-0.4,1.1c0.4,1.5,0.8,2.9,1.4,4
				c0.7-1.5,1-3.2,1.1-5.1H-574.4z"/>
			<path class="st2" d="M-566.6,22.5v1.2c0,2.7-0.6,5-1.9,6.9l-0.7-0.7c1.1-1.6,1.6-3.7,1.6-6.3v-4.9h4.7c-0.1-0.4-0.3-0.8-0.4-1.1
				l1.1-0.2c0.2,0.5,0.3,0.9,0.4,1.2h4.5v3.6h-9.3L-566.6,22.5L-566.6,22.5z M-565.9,25.1v-1h4c-0.2-0.4-0.3-0.8-0.4-1.1l1.1-0.2
				c0.1,0.4,0.3,0.8,0.4,1.2h4.4v1h-6.2c0,0.5-0.1,0.9-0.2,1.3h5.3c-0.1,1.9-0.1,3-0.3,3.3c-0.1,0.3-0.4,0.5-0.7,0.6
				c-0.4,0.1-1.1,0.2-2.3,0.2h-0.3l-0.3-0.9c0.4,0,0.6,0,0.8,0c0.7,0,1.2,0,1.5-0.1c0.2-0.1,0.3-0.2,0.4-0.4c0-0.2,0.1-0.8,0.2-1.8
				h-4.5c-0.6,1.4-1.6,2.5-3.1,3.3l-0.5-0.9c1.9-0.9,2.9-2.5,3-4.7h-2.3L-565.9,25.1L-565.9,25.1z M-558.3,19.8h-8.3v1.8h8.3V19.8z"
				/>
			<path class="st2" d="M-554.3,20.1h1v10.5h-1V20.1z M-552.3,17.7c0.7,0.8,1.2,1.6,1.7,2.5l-0.9,0.5c-0.5-1-1.1-1.9-1.7-2.6
				L-552.3,17.7z M-551.4,21.6h5.3v6.5h-5.3V21.6z M-550.5,24.4h3.4v-1.9h-3.4V24.4z M-547,27.2v-1.9h-3.4v1.9H-547z M-545.7,30.5
				l-0.3-0.9h1.2c0.4,0,0.6-0.3,0.6-0.9v-9.3h-5.4v-0.9h6.4V29c0,1-0.5,1.5-1.4,1.5H-545.7z"/>
		</g>
	</g>
</g>
<g transform="translate(0)">
	<g class="st1">
		<path class="st9" d="M132.2,95.2h0.9v2.1h2.5c0,3.9-0.1,6.4-0.2,7.3c-0.1,1-0.7,1.5-1.8,1.5h-0.9l-0.2-0.8c0.5,0,0.8,0,1,0
			c0.6,0,1-0.3,1.1-1s0.1-2.7,0.1-6.1h-1.6v0.2c0,3.6-0.8,6.2-2.4,7.9l-0.7-0.6c1.4-1.5,2.1-3.9,2.2-7.3v-0.2h-1.9v-0.8h1.9
			L132.2,95.2L132.2,95.2z M140.5,96.7v9.3h-0.9v-0.8h-2.2v0.8h-0.8v-9.3H140.5z M137.5,104.4h2.1v-6.8h-2.2L137.5,104.4
			L137.5,104.4z"/>
		<path class="st9" d="M145.1,95.7l0.7-0.5c1.1,0.7,2,2.1,2.7,4c1.1,2.9,2.6,4.9,4.5,6.1l-0.5,0.7c-1.9-1.2-3.5-3.3-4.8-6.5
			c-0.1-0.3-0.1-0.5-0.2-0.5c-0.8,3.1-2.4,5.4-5,7l-0.5-0.7c2.6-1.7,4.2-4.1,5-7.3C146.5,97,145.9,96.2,145.1,95.7z"/>
		<path class="st9" d="M156.2,99.2v1.1c0,2.3-0.5,4.3-1.6,6l-0.6-0.6c0.9-1.4,1.4-3.2,1.4-5.4v-4.2h4c-0.1-0.4-0.3-0.7-0.4-0.9
			l0.9-0.1c0.2,0.4,0.3,0.7,0.4,1.1h3.9v3.1L156.2,99.2L156.2,99.2z M156.8,101.4v-0.8h3.4c-0.1-0.4-0.3-0.7-0.4-0.9l0.9-0.1
			c0.1,0.3,0.2,0.7,0.4,1.1h3.8v0.8h-5.3c0,0.4-0.1,0.8-0.2,1.1h4.5c0,1.6-0.1,2.5-0.2,2.8c-0.1,0.3-0.3,0.5-0.6,0.6s-1,0.1-2,0.1
			h-0.2l-0.2-0.8c0.3,0,0.5,0,0.7,0c0.6,0,1.1,0,1.3-0.1s0.3-0.2,0.3-0.3c0-0.2,0.1-0.7,0.1-1.6h-3.9c-0.5,1.2-1.4,2.2-2.6,2.8
			l-0.5-0.8c1.6-0.8,2.5-2.1,2.6-4h-1.9C156.8,101.3,156.8,101.4,156.8,101.4z M163.4,96.9h-7.1v1.5h7.1V96.9z"/>
		<path class="st9" d="M166.8,97.2h0.8v9h-0.8V97.2z M168.5,95.1c0.6,0.7,1.1,1.4,1.5,2.2l-0.8,0.4c-0.5-0.9-1-1.6-1.5-2.2
			L168.5,95.1z M169.2,98.4h4.6v5.6h-4.6V98.4z M170.1,100.9h2.9v-1.6h-2.9V100.9z M173,103.3v-1.6h-2.9v1.6H173z M174.2,106.1
			l-0.2-0.8h1c0.4,0,0.6-0.2,0.6-0.7v-8h-4.7v-0.8h5.5v9c0,0.8-0.4,1.3-1.2,1.3H174.2z"/>
	</g>
</g>
<g transform="translate(0)">
	<g class="st1">
		<path class="st9" d="M367.3,101.9c-0.5,1.5-1,2.9-1.5,4.1l-0.8-0.3c0.6-1.3,1.1-2.7,1.5-4.1L367.3,101.9z M365.7,98.4
			c0.7,0.6,1.3,1.1,1.8,1.7l-0.6,0.6c-0.5-0.6-1-1.1-1.8-1.7L365.7,98.4z M365.7,95.4c0.7,0.5,1.2,1.1,1.7,1.6l-0.6,0.6
			c-0.4-0.5-1-1-1.7-1.6L365.7,95.4z M368.5,97.9h-1v-0.8h1.7c-0.1-0.6-0.3-1.2-0.5-1.8l0.9-0.2c0.2,0.6,0.4,1.2,0.5,2h1.4v0.8h-2.1
			v0.8c0,0.2,0,0.5,0,0.9h1.9c0,2.8-0.1,4.5-0.2,5.2c-0.1,0.8-0.4,1.1-1.1,1.1h-0.9l-0.2-0.7c0.5,0,0.8,0,1,0s0.4-0.2,0.4-0.7
			c0.1-0.4,0.1-1.8,0.1-4h-1.2c-0.2,2.5-0.7,4.4-1.6,5.7l-0.6-0.6c1-1.4,1.5-3.7,1.5-6.9L368.5,97.9L368.5,97.9z M372.7,97.7
			c-0.3,0.8-0.7,1.4-1.2,1.9l-0.5-0.7c0.7-1,1.2-2.3,1.5-3.9l0.9,0.1c-0.1,0.5-0.2,1.1-0.4,1.6h3v0.9L372.7,97.7L372.7,97.7z
			 M372.4,99h3.3v0.8c-0.4,0.5-0.8,1-1.2,1.4v0.7h1.7v0.8h-1.7v2.1c0,0.8-0.3,1.1-0.9,1.1h-1.1l-0.2-0.8c0.4,0,0.7,0,1,0
			c0.2,0,0.4-0.2,0.4-0.7v-1.9h-1.8V102h1.8v-0.9c0.5-0.5,0.9-1,1.1-1.3h-2.3L372.4,99L372.4,99z"/>
		<path class="st9" d="M378.1,98.3c0.7,0.8,1.4,1.5,1.9,2.2c0.4-1,0.6-2.2,0.8-3.4h-3.2v-0.9h4V97c-0.1,1.6-0.4,3-1,4.2
			c0.6,0.7,1,1.4,1.4,2.1l-0.6,0.6c-0.4-0.6-0.8-1.2-1.2-1.8c-0.7,1.2-1.6,2.3-2.6,3.2l-0.6-0.7c1.1-0.9,2-2,2.6-3.3
			c-0.7-0.9-1.4-1.7-2.1-2.5L378.1,98.3z M387.5,98l0.1,0.8l-3.3,0.5c0,0.5,0.1,1,0.2,1.6c0.1,0.5,0.2,1,0.3,1.5
			c0.6-0.7,1.2-1.6,1.7-2.6l0.7,0.5c-0.7,1.2-1.4,2.3-2.1,3.1c0.1,0.3,0.2,0.5,0.3,0.6c0.4,0.7,0.7,1.1,1,1.1c0.2,0,0.4-0.8,0.6-2.1
			l0.7,0.5c-0.2,0.7-0.3,1.3-0.5,1.8c-0.2,0.6-0.5,0.9-0.8,0.9c-0.5,0-1-0.4-1.5-1.2c-0.2-0.3-0.4-0.6-0.5-0.9
			c-0.8,0.7-1.6,1.3-2.5,1.6l-0.5-0.7c1-0.4,1.9-1,2.7-1.8c-0.2-0.5-0.3-1-0.4-1.6s-0.2-1.2-0.3-2l-1.5,0.3l-0.1-0.8l1.6-0.3
			c-0.1-1.1-0.1-2.2-0.1-3.5h0.9c0,1.2,0,2.3,0.1,3.3L387.5,98z M385.7,95.5c0.6,0.6,1,1.2,1.3,1.6l-0.7,0.5c-0.3-0.5-0.7-1-1.3-1.6
			L385.7,95.5z"/>
		<path class="st9" d="M389.9,95.9h9.3v0.8h-2v3.2h2.6v0.8h-2.6v5.3h-0.9v-5.3h-3.5c-0.1,1.2-0.3,2.3-0.7,3.1
			c-0.5,1-1.2,1.8-2.3,2.3l-0.5-0.7c1-0.6,1.7-1.3,2-2.2c0.2-0.7,0.4-1.5,0.5-2.5H389v-0.8h2.8v-0.4v-2.8h-2.2v-0.8H389.9z
			 M392.9,96.8v3v0.2h3.4v-3.2H392.9z"/>
		<path class="st9" d="M403.3,95.2c-0.1,0.8-0.2,1.6-0.3,2.3h1.8V98c-0.1,1.9-0.4,3.6-1,5c0.6,0.6,1.1,1.2,1.4,1.6l-0.6,0.7
			c-0.4-0.5-0.8-1-1.2-1.4c-0.5,0.9-1.1,1.7-1.8,2.4l-0.5-0.7c0.7-0.6,1.3-1.4,1.7-2.3c-0.4-0.4-0.9-0.9-1.5-1.5
			c0.3-1,0.5-2.2,0.8-3.4h-1v-0.8h1.1c0.1-0.8,0.2-1.5,0.3-2.3L403.3,95.2z M404,98.3h-1.1c-0.2,1.3-0.5,2.3-0.7,3.1
			c0.4,0.3,0.7,0.6,1,0.9C403.6,101.2,403.9,99.8,404,98.3z M405.2,99.2c0.7-0.4,1.6-1.7,2.6-4.1l0.8,0.3c-0.7,1.5-1.4,2.8-2.2,3.7
			c1.4-0.1,2.7-0.2,3.9-0.4c-0.4-0.7-0.7-1.3-1-1.8l0.7-0.4c0.7,1.1,1.3,2.2,1.9,3.5l-0.8,0.4c-0.2-0.6-0.4-0.9-0.4-0.9
			c-1.6,0.2-3.4,0.4-5.3,0.5L405.2,99.2z M411.1,101.1v5.1h-0.8v-0.7h-3.7v0.7h-0.8v-5.1H411.1z M406.6,104.7h3.7v-2.8h-3.7V104.7z"
			/>
	</g>
</g>
<g transform="translate(0)">
	<g class="st1">
		<path class="st9" d="M482.2,101.9c-0.5,1.5-1,2.9-1.5,4.1l-0.8-0.3c0.6-1.3,1.1-2.7,1.5-4.1L482.2,101.9z M480.5,98.4
			c0.7,0.6,1.3,1.1,1.8,1.7l-0.6,0.6c-0.5-0.6-1-1.1-1.8-1.7L480.5,98.4z M480.6,95.4c0.7,0.5,1.2,1.1,1.7,1.6l-0.6,0.6
			c-0.4-0.5-1-1-1.7-1.6L480.6,95.4z M483.3,97.9h-1v-0.8h1.7c-0.1-0.6-0.3-1.2-0.5-1.8l0.9-0.2c0.2,0.6,0.4,1.2,0.5,2h1.4v0.8h-2.1
			v0.8c0,0.2,0,0.5,0,0.9h1.9c0,2.8-0.1,4.5-0.2,5.2c-0.1,0.8-0.4,1.1-1.1,1.1h-0.9l-0.2-0.7c0.5,0,0.8,0,1,0s0.4-0.2,0.4-0.7
			c0.1-0.4,0.1-1.8,0.1-4h-1.1c-0.2,2.5-0.7,4.4-1.6,5.7l-0.6-0.6c1-1.4,1.5-3.7,1.5-6.9L483.3,97.9L483.3,97.9z M487.6,97.7
			c-0.3,0.8-0.7,1.4-1.2,1.9l-0.5-0.7c0.7-1,1.2-2.3,1.5-3.9l0.9,0.1c-0.1,0.5-0.2,1.1-0.4,1.6h3v0.9L487.6,97.7L487.6,97.7z
			 M487.2,99h3.3v0.8c-0.4,0.5-0.8,1-1.2,1.4v0.7h1.7v0.8h-1.7v2.1c0,0.8-0.3,1.1-0.9,1.1h-1.1l-0.2-0.8c0.4,0,0.7,0,1,0
			c0.2,0,0.4-0.2,0.4-0.7v-1.9h-1.8V102h1.8v-0.9c0.5-0.5,0.9-1,1.1-1.3h-2.3L487.2,99L487.2,99z"/>
		<path class="st9" d="M492.9,98.3c0.7,0.8,1.4,1.5,1.9,2.2c0.4-1,0.6-2.2,0.8-3.4h-3.2v-0.9h4V97c-0.1,1.6-0.4,3-1,4.2
			c0.6,0.7,1,1.4,1.4,2.1l-0.6,0.6c-0.4-0.6-0.8-1.2-1.2-1.8c-0.7,1.2-1.6,2.3-2.6,3.2l-0.6-0.7c1.1-0.9,2-2,2.6-3.3
			c-0.7-0.9-1.4-1.7-2.1-2.5L492.9,98.3z M502.3,98l0.1,0.8l-3.3,0.5c0,0.5,0.1,1,0.2,1.6c0.1,0.5,0.2,1,0.3,1.5
			c0.6-0.7,1.2-1.6,1.7-2.6l0.7,0.5c-0.7,1.2-1.4,2.3-2.1,3.1c0.1,0.3,0.2,0.5,0.3,0.6c0.4,0.7,0.7,1.1,1,1.1c0.2,0,0.4-0.8,0.6-2.1
			l0.7,0.5c-0.2,0.7-0.3,1.3-0.5,1.8c-0.2,0.6-0.5,0.9-0.8,0.9c-0.5,0-1-0.4-1.5-1.2c-0.2-0.3-0.4-0.6-0.5-0.9
			c-0.8,0.7-1.6,1.3-2.5,1.6l-0.5-0.7c1-0.4,1.9-1,2.7-1.8c-0.2-0.5-0.3-1-0.4-1.6s-0.2-1.2-0.3-2l-1.5,0.3l-0.1-0.8l1.6-0.3
			c-0.1-1.1-0.1-2.2-0.1-3.5h0.9c0,1.2,0,2.3,0.1,3.3L502.3,98z M500.6,95.5c0.6,0.6,1,1.2,1.3,1.6l-0.7,0.5c-0.3-0.5-0.7-1-1.3-1.6
			L500.6,95.5z"/>
		<path class="st9" d="M508.9,95.1h0.9v2.2h4.3v5.6h-0.9v-0.8h-3.4v4.1h-0.9v-4.1h-3.4v0.8h-0.9v-5.6h4.3L508.9,95.1L508.9,95.1z
			 M505.5,101.4h3.4v-3.2h-3.4V101.4z M509.8,101.4h3.4v-3.2h-3.4L509.8,101.4L509.8,101.4z"/>
	</g>
</g>
<g transform="translate(0)">
	<g class="st1">
		<path class="st9" d="M609.2,101.9c-0.5,1.5-1,2.9-1.5,4.1l-0.8-0.3c0.6-1.3,1.1-2.7,1.5-4.1L609.2,101.9z M607.5,98.4
			c0.7,0.6,1.3,1.1,1.8,1.7l-0.6,0.6c-0.5-0.6-1-1.1-1.8-1.7L607.5,98.4z M607.6,95.4c0.7,0.5,1.2,1.1,1.7,1.6l-0.6,0.6
			c-0.4-0.5-1-1-1.7-1.6L607.6,95.4z M610.3,97.9h-1v-0.8h1.7c-0.1-0.6-0.3-1.2-0.5-1.8l0.9-0.2c0.2,0.6,0.4,1.2,0.5,2h1.4v0.8h-2.1
			v0.8c0,0.2,0,0.5,0,0.9h1.9c0,2.8-0.1,4.5-0.2,5.2c-0.1,0.8-0.4,1.1-1.1,1.1h-0.9l-0.2-0.7c0.5,0,0.8,0,1,0s0.4-0.2,0.4-0.7
			c0.1-0.4,0.1-1.8,0.1-4h-1.1c-0.2,2.5-0.7,4.4-1.6,5.7l-0.6-0.6c1-1.4,1.5-3.7,1.5-6.9v-0.8H610.3z M614.6,97.7
			c-0.3,0.8-0.7,1.4-1.2,1.9l-0.5-0.7c0.7-1,1.2-2.3,1.5-3.9l0.9,0.1c-0.1,0.5-0.2,1.1-0.4,1.6h3v0.9L614.6,97.7L614.6,97.7z
			 M614.2,99h3.3v0.8c-0.4,0.5-0.8,1-1.2,1.4v0.7h1.7v0.8h-1.7v2.1c0,0.8-0.3,1.1-0.9,1.1h-1.1l-0.2-0.8c0.4,0,0.7,0,1,0
			c0.2,0,0.4-0.2,0.4-0.7v-1.9h-1.8V102h1.8v-0.9c0.5-0.5,0.9-1,1.1-1.3h-2.3L614.2,99L614.2,99z"/>
		<path class="st9" d="M619.9,98.3c0.7,0.8,1.4,1.5,1.9,2.2c0.4-1,0.6-2.2,0.8-3.4h-3.2v-0.9h4V97c-0.1,1.6-0.4,3-1,4.2
			c0.6,0.7,1,1.4,1.4,2.1l-0.6,0.6c-0.4-0.6-0.8-1.2-1.2-1.8c-0.7,1.2-1.6,2.3-2.6,3.2l-0.6-0.7c1.1-0.9,2-2,2.6-3.3
			c-0.7-0.9-1.4-1.7-2.1-2.5L619.9,98.3z M629.3,98l0.1,0.8l-3.3,0.5c0,0.5,0.1,1,0.2,1.6c0.1,0.5,0.2,1,0.3,1.5
			c0.6-0.7,1.2-1.6,1.7-2.6l0.7,0.5c-0.7,1.2-1.4,2.3-2.1,3.1c0.1,0.3,0.2,0.5,0.3,0.6c0.4,0.7,0.7,1.1,1,1.1c0.2,0,0.4-0.8,0.6-2.1
			l0.7,0.5c-0.2,0.7-0.3,1.3-0.5,1.8c-0.2,0.6-0.5,0.9-0.8,0.9c-0.5,0-1-0.4-1.5-1.2c-0.2-0.3-0.4-0.6-0.5-0.9
			c-0.8,0.7-1.6,1.3-2.5,1.6l-0.5-0.7c1-0.4,1.9-1,2.7-1.8c-0.2-0.5-0.3-1-0.4-1.6c-0.1-0.6-0.2-1.2-0.3-2l-1.5,0.3l-0.1-0.8
			l1.6-0.3c-0.1-1.1-0.1-2.2-0.1-3.5h0.9c0,1.2,0,2.3,0.1,3.3L629.3,98z M627.6,95.5c0.6,0.6,1,1.2,1.3,1.6l-0.7,0.5
			c-0.3-0.5-0.7-1-1.3-1.6L627.6,95.5z"/>
		<path class="st9" d="M633.9,95.5c-0.6,1.5-1.2,2.8-1.9,3.7c0.5-0.1,1.1-0.2,1.7-0.3l0.7-1.3l0.8,0.3c-1.1,2-2,3.5-2.7,4.3
			c0.9-0.2,1.8-0.4,2.7-0.7v0.8c-1.3,0.4-2.5,0.7-3.7,0.9l-0.2-0.8c0.2-0.1,0.3-0.2,0.4-0.3c0.5-0.5,1-1.3,1.7-2.4
			c-0.5,0.1-1.2,0.2-2.1,0.3l-0.2-0.8c0.1-0.1,0.3-0.2,0.4-0.3c0.7-1.1,1.2-2.4,1.7-3.8L633.9,95.5z M635.3,104.6
			c-1.2,0.4-2.6,0.8-4.2,1.1l-0.1-0.8c1.6-0.3,3-0.6,4.3-1.1V104.6z M635.2,96.7h2.9v-1.5h0.9v1.5h2.9v0.8H639v1.8h2.5v0.8h-5.9
			v-0.8h2.5v-1.8h-2.9L635.2,96.7L635.2,96.7z M641.1,101.3v4.8h-0.8v-0.6h-3.4v0.6H636v-4.8H641.1z M636.8,104.8h3.4v-2.6h-3.4
			V104.8z"/>
		<path class="st9" d="M643.2,96.4h4.7v-1.2h0.9v1.2h4.7v0.8h-4.7v1.2h3.8v3.4h-3c0.8,1.2,2.3,2.3,4.4,3.3l-0.6,0.7
			c-2.1-1.2-3.6-2.5-4.5-4l0,0v4.4H648v-4.4l0,0c-0.9,1.6-2.4,3-4.5,4L643,105c2-0.8,3.4-1.9,4.3-3.2h-3v-3.4h3.8v-1.2h-4.7v-0.8
			H643.2z M647.9,101v-1.8H645v1.8H647.9z M651.7,101v-1.8h-2.9v1.8H651.7z"/>
	</g>
</g>
</svg>
