<?xml version="1.0" encoding="UTF-8" standalone="no"?>
<!DOCTYPE svg PUBLIC "-//W3C//DTD SVG 1.1//EN"
 "http://www.w3.org/Graphics/SVG/1.1/DTD/svg11.dtd">
<!-- Generated by graphviz version 2.44.0 (20200408.0750)
 -->
<!-- Pages: 1 -->
<svg width="339pt" height="229pt"
 viewBox="0.00 0.00 339.02 228.63" xmlns="http://www.w3.org/2000/svg" xmlns:xlink="http://www.w3.org/1999/xlink">
<g id="graph0" class="graph" transform="scale(1 1) rotate(0) translate(4 224.63)">
<polygon fill="white" stroke="transparent" points="-4,4 -4,-224.63 335.02,-224.63 335.02,4 -4,4"/>
<!-- entry -->
<g id="node1" class="node">
<title>entry</title>
<polygon fill="none" stroke="black" points="102.98,-220.63 59.14,-202.63 102.98,-184.63 146.82,-202.63 102.98,-220.63"/>
<text text-anchor="middle" x="102.98" y="-198.43" font-family="consolas" font-size="14.00">entry</text>
</g>
<!-- stopped -->
<g id="node4" class="node">
<title>stopped</title>
<ellipse fill="none" stroke="black" cx="102.98" cy="-129.63" rx="51.93" ry="18"/>
<text text-anchor="middle" x="102.98" y="-125.43" font-family="consolas" font-size="14.00">&lt;stopped&gt;</text>
</g>
<!-- entry&#45;&gt;stopped -->
<g id="edge1" class="edge">
<title>entry&#45;&gt;stopped</title>
<path fill="none" stroke="black" d="M102.98,-184.44C102.98,-176.42 102.98,-166.68 102.98,-157.7"/>
<polygon fill="black" stroke="black" points="106.48,-157.66 102.98,-147.66 99.48,-157.66 106.48,-157.66"/>
</g>
<!-- playing -->
<g id="node2" class="node">
<title>playing</title>
<ellipse fill="none" stroke="black" cx="46.98" cy="-29.42" rx="46.97" ry="18"/>
<text text-anchor="middle" x="46.98" y="-25.22" font-family="consolas" font-size="14.00">isPlaying</text>
</g>
<!-- playingPaused -->
<g id="node3" class="node">
<title>playingPaused</title>
<ellipse fill="none" stroke="black" cx="264.98" cy="-29.42" rx="66.08" ry="29.33"/>
<text text-anchor="middle" x="264.98" y="-33.62" font-family="consolas" font-size="14.00">isPlaying &amp;&amp;</text>
<text text-anchor="middle" x="264.98" y="-16.82" font-family="consolas" font-size="14.00">isPaused</text>
</g>
<!-- playing&#45;&gt;playingPaused -->
<g id="edge3" class="edge">
<title>playing&#45;&gt;playingPaused</title>
<path fill="none" stroke="black" d="M94.02,-29.42C121.58,-29.42 157.05,-29.42 188.53,-29.42"/>
<polygon fill="black" stroke="black" points="188.6,-32.92 198.6,-29.42 188.6,-25.92 188.6,-32.92"/>
<text text-anchor="middle" x="146.46" y="-36.62" font-family="consolas" font-size="14.00">play()/resume()</text>
</g>
<!-- playing&#45;&gt;stopped -->
<g id="edge5" class="edge">
<title>playing&#45;&gt;stopped</title>
<path fill="none" stroke="black" d="M60.56,-46.97C67.22,-55.56 75.06,-66.41 80.98,-76.83 85.45,-84.68 89.55,-93.62 92.98,-101.83"/>
<polygon fill="black" stroke="black" points="89.83,-103.38 96.8,-111.36 96.33,-100.78 89.83,-103.38"/>
<text text-anchor="middle" x="106.31" y="-81.03" font-family="consolas" font-size="14.00">stop()</text>
</g>
<!-- playingPaused&#45;&gt;playing -->
<g id="edge4" class="edge">
<title>playingPaused&#45;&gt;playing</title>
<path fill="none" stroke="black" d="M207.85,-14.42C182.73,-9.6 152.86,-6.28 125.86,-9.62 115.35,-10.91 104.22,-13.15 93.75,-15.67"/>
<polygon fill="black" stroke="black" points="92.78,-12.3 83.94,-18.14 94.49,-19.09 92.78,-12.3"/>
<text text-anchor="middle" x="146.46" y="-13.82" font-family="consolas" font-size="14.00">pause()</text>
</g>
<!-- playingPaused&#45;&gt;stopped -->
<g id="edge6" class="edge">
<title>playingPaused&#45;&gt;stopped</title>
<path fill="none" stroke="black" d="M226.86,-53.53C199.42,-70.17 162.74,-92.4 136.43,-108.35"/>
<polygon fill="black" stroke="black" points="134.32,-105.54 127.59,-113.71 137.95,-111.52 134.32,-105.54"/>
<text text-anchor="middle" x="200.31" y="-81.03" font-family="consolas" font-size="14.00">stop()</text>
</g>
<!-- stopped&#45;&gt;playing -->
<g id="edge2" class="edge">
<title>stopped&#45;&gt;playing</title>
<path fill="none" stroke="black" d="M70.45,-115.38C61.43,-110.02 52.71,-102.88 47.56,-93.63 41.55,-82.84 40.71,-69.32 41.66,-57.55"/>
<polygon fill="black" stroke="black" points="45.16,-57.73 42.94,-47.37 38.22,-56.86 45.16,-57.73"/>
<text text-anchor="middle" x="64.7" y="-81.03" font-family="consolas" font-size="14.00">play()</text>
</g>
</g>
</svg>
