<?xml version="1.0" encoding="UTF-8" standalone="no"?>
<!DOCTYPE svg PUBLIC "-//W3C//DTD SVG 1.1//EN"
 "http://www.w3.org/Graphics/SVG/1.1/DTD/svg11.dtd">
<!-- Generated by graphviz version 2.44.0 (20200408.0750)
 -->
<!-- Pages: 1 -->
<svg width="229pt" height="295pt"
 viewBox="0.00 0.00 228.71 294.60" xmlns="http://www.w3.org/2000/svg" xmlns:xlink="http://www.w3.org/1999/xlink">
<g id="graph0" class="graph" transform="scale(1 1) rotate(0) translate(4 290.6)">
<polygon fill="white" stroke="transparent" points="-4,4 -4,-290.6 224.71,-290.6 224.71,4 -4,4"/>
<!-- entry -->
<g id="node1" class="node">
<title>entry</title>
<polygon fill="none" stroke="black" points="128.08,-286.6 84.24,-268.6 128.08,-250.6 171.92,-268.6 128.08,-286.6"/>
<text text-anchor="middle" x="128.08" y="-264.4" font-family="consolas" font-size="14.00">entry</text>
</g>
<!-- stopped -->
<g id="node4" class="node">
<title>stopped</title>
<ellipse fill="none" stroke="black" cx="128.08" cy="-195.6" rx="51.93" ry="18"/>
<text text-anchor="middle" x="128.08" y="-191.4" font-family="consolas" font-size="14.00">&lt;stopped&gt;</text>
</g>
<!-- entry&#45;&gt;stopped -->
<g id="edge1" class="edge">
<title>entry&#45;&gt;stopped</title>
<path fill="none" stroke="black" d="M128.08,-250.41C128.08,-242.39 128.08,-232.65 128.08,-223.67"/>
<polygon fill="black" stroke="black" points="131.58,-223.63 128.08,-213.63 124.58,-223.63 131.58,-223.63"/>
</g>
<!-- playing -->
<g id="node2" class="node">
<title>playing</title>
<ellipse fill="none" stroke="black" cx="82.08" cy="-106.8" rx="46.97" ry="18"/>
<text text-anchor="middle" x="82.08" y="-102.6" font-family="consolas" font-size="14.00">isPlaying</text>
</g>
<!-- playingPaused -->
<g id="node3" class="node">
<title>playingPaused</title>
<ellipse fill="none" stroke="black" cx="120.08" cy="-18" rx="100.76" ry="18"/>
<text text-anchor="middle" x="120.08" y="-13.8" font-family="consolas" font-size="14.00">isPlaying &amp;&amp; isPaused</text>
</g>
<!-- playing&#45;&gt;playingPaused -->
<g id="edge3" class="edge">
<title>playing&#45;&gt;playingPaused</title>
<path fill="none" stroke="black" d="M44.19,-96.15C17.8,-87.52 -10.29,-73.26 4.01,-54 10.81,-44.85 19.92,-38.01 30.07,-32.91"/>
<polygon fill="black" stroke="black" points="31.49,-36.1 39.21,-28.85 28.65,-29.7 31.49,-36.1"/>
<text text-anchor="middle" x="51.11" y="-58.2" font-family="consolas" font-size="14.00">play() / resume()</text>
</g>
<!-- playing&#45;&gt;stopped -->
<g id="edge5" class="edge">
<title>playing&#45;&gt;stopped</title>
<path fill="none" stroke="black" d="M94.5,-124.46C98.45,-130.12 102.68,-136.6 106.08,-142.8 110.42,-150.72 114.49,-159.67 117.92,-167.88"/>
<polygon fill="black" stroke="black" points="114.78,-169.44 121.77,-177.4 121.27,-166.82 114.78,-169.44"/>
<text text-anchor="middle" x="131.4" y="-147" font-family="consolas" font-size="14.00">stop()</text>
</g>
<!-- playingPaused&#45;&gt;playing -->
<g id="edge4" class="edge">
<title>playingPaused&#45;&gt;playing</title>
<path fill="none" stroke="black" d="M112.86,-36.32C108.62,-46.41 103.12,-59.36 98.08,-70.8 96.82,-73.64 95.5,-76.61 94.17,-79.56"/>
<polygon fill="black" stroke="black" points="90.94,-78.2 89.98,-88.75 97.31,-81.1 90.94,-78.2"/>
<text text-anchor="middle" x="125.67" y="-58.2" font-family="consolas" font-size="14.00">pause()</text>
</g>
<!-- playingPaused&#45;&gt;stopped -->
<g id="edge6" class="edge">
<title>playingPaused&#45;&gt;stopped</title>
<path fill="none" stroke="black" d="M138.63,-35.94C143.23,-41.23 147.56,-47.42 150.08,-54 182.98,-139.96 158.84,-137.79 152.08,-159.6 151.02,-163.01 149.5,-166.38 147.74,-169.61"/>
<polygon fill="black" stroke="black" points="144.67,-167.92 142.28,-178.24 150.59,-171.66 144.67,-167.92"/>
<text text-anchor="middle" x="182.4" y="-102.6" font-family="consolas" font-size="14.00">stop()</text>
</g>
<!-- stopped&#45;&gt;playing -->
<g id="edge2" class="edge">
<title>stopped&#45;&gt;playing</title>
<path fill="none" stroke="black" d="M95.49,-181.37C86.47,-176.02 77.76,-168.87 72.65,-159.6 68.4,-151.89 68.68,-142.65 70.69,-134.12"/>
<polygon fill="black" stroke="black" points="74.03,-135.16 73.67,-124.57 67.35,-133.08 74.03,-135.16"/>
<text text-anchor="middle" x="89.79" y="-147" font-family="consolas" font-size="14.00">play()</text>
</g>
</g>
</svg>
